HuanleSans.ufo
<glyph name="exclam" format="2">
	<advance width="254"/>
	<unicode hex="0021"/>
	<outline>
		<contour>
			<point x="161" y="659" type="line"/>
			<point x="110" y="656" type="line"/>
			<point x="103" y="648" type="line"/>
			<point x="102" y="218" type="line"/>
			<point x="109" y="209" type="line"/>
			<point x="150" y="214" type="line"/>
			<point x="169" y="650" type="line"/>
		</contour>
		<contour>
			<point x="119" y="77" type="curve" smooth="yes"/>
			<point x="93" y="77"/>
			<point x="77" y="61"/>
			<point x="77" y="36" type="curve" smooth="yes"/>
			<point x="77" y="11"/>
			<point x="92" y="-4"/>
			<point x="116" y="-4" type="curve" smooth="yes"/>
			<point x="141" y="-4"/>
			<point x="157" y="12"/>
			<point x="157" y="38" type="curve" smooth="yes"/>
			<point x="157" y="62"/>
			<point x="143" y="77"/>
		</contour>
	</outline>
</glyph>
<glyph name="quotedbl" format="2">
	<advance width="268"/>
	<unicode hex="0022"/>
	<outline>
		<contour>
			<point x="103" y="638" type="line"/>
			<point x="52" y="634" type="line"/>
			<point x="57" y="458" type="line"/>
			<point x="63" y="452" type="line"/>
			<point x="99" y="457" type="line"/>
			<point x="108" y="632" type="line"/>
		</contour>
		<contour>
			<point x="213" y="638" type="line"/>
			<point x="162" y="634" type="line"/>
			<point x="168" y="458" type="line"/>
			<point x="174" y="452" type="line"/>
			<point x="209" y="457" type="line"/>
			<point x="219" y="632" type="line"/>
		</contour>
	</outline>
</glyph>
<glyph name="numbersign" format="2">
	<advance width="508"/>
	<unicode hex="0023"/>
	<outline>
		<contour>
			<point x="407" y="574" type="line"/>
			<point x="367" y="574" type="line"/>
			<point x="244" y="38" type="line"/>
			<point x="248" y="32" type="line"/>
			<point x="288" y="32" type="line"/>
			<point x="411" y="567" type="line"/>
		</contour>
		<contour>
			<point x="447" y="248" type="line"/>
			<point x="23" y="248" type="line"/>
			<point x="20" y="210" type="line"/>
			<point x="25" y="205" type="line"/>
			<point x="448" y="205" type="line"/>
			<point x="452" y="243" type="line"/>
		</contour>
		<contour>
			<point x="249" y="574" type="line"/>
			<point x="210" y="574" type="line"/>
			<point x="86" y="38" type="line"/>
			<point x="91" y="32" type="line"/>
			<point x="131" y="32" type="line"/>
			<point x="254" y="567" type="line"/>
		</contour>
		<contour>
			<point x="483" y="410" type="line"/>
			<point x="59" y="410" type="line"/>
			<point x="56" y="372" type="line"/>
			<point x="61" y="367" type="line"/>
			<point x="484" y="367" type="line"/>
			<point x="488" y="405" type="line"/>
		</contour>
	</outline>
</glyph>
<glyph name="dollar" format="2">
	<advance width="421"/>
	<unicode hex="0024"/>
	<outline>
		<contour>
			<point x="262" y="465" type="line"/>
			<point x="211" y="465" type="line"/>
			<point x="176" y="32" type="line"/>
			<point x="226" y="32" type="line"/>
		</contour>
		<contour>
			<point x="226" y="32" type="line"/>
			<point x="176" y="32" type="line"/>
			<point x="164" y="-122" type="line"/>
			<point x="172" y="-130" type="line"/>
			<point x="213" y="-130" type="line"/>
		</contour>
		<contour>
			<point x="266" y="642" type="line"/>
			<point x="224" y="642" type="line"/>
			<point x="211" y="465" type="line"/>
			<point x="261" y="465" type="line"/>
			<point x="275" y="634" type="line"/>
		</contour>
		<contour>
			<point x="237" y="502" type="curve" smooth="yes"/>
			<point x="127" y="502"/>
			<point x="58" y="440"/>
			<point x="58" y="362" type="curve" smooth="yes"/>
			<point x="58" y="214"/>
			<point x="307" y="231"/>
			<point x="307" y="128" type="curve" smooth="yes"/>
			<point x="307" y="87"/>
			<point x="265" y="49"/>
			<point x="202" y="49" type="curve" smooth="yes"/>
			<point x="159" y="49"/>
			<point x="102" y="68"/>
			<point x="63" y="106" type="curve"/>
			<point x="53" y="102" type="line"/>
			<point x="45" y="28" type="line"/>
			<point x="92" y="5"/>
			<point x="148" y="-5"/>
			<point x="193" y="-5" type="curve" smooth="yes"/>
			<point x="310" y="-5"/>
			<point x="376" y="64"/>
			<point x="376" y="140" type="curve" smooth="yes"/>
			<point x="376" y="288"/>
			<point x="127" y="272"/>
			<point x="127" y="371" type="curve" smooth="yes"/>
			<point x="127" y="407"/>
			<point x="163" y="447"/>
			<point x="229" y="447" type="curve" smooth="yes"/>
			<point x="266" y="447"/>
			<point x="300" y="435"/>
			<point x="337" y="406" type="curve"/>
			<point x="349" y="409" type="line"/>
			<point x="361" y="478" type="line"/>
			<point x="318" y="495"/>
			<point x="274" y="502"/>
		</contour>
	</outline>
</glyph>
<glyph name="percent" format="2">
	<advance width="817"/>
	<unicode hex="0025"/>
	<outline>
		<contour>
			<point x="160" y="516" type="move"/>
		</contour>
		<contour>
			<point x="191" y="644" type="curve" smooth="yes"/>
			<point x="95" y="644"/>
			<point x="42" y="581"/>
			<point x="42" y="465" type="curve" smooth="yes"/>
			<point x="42" y="354"/>
			<point x="92" y="293"/>
			<point x="183" y="293" type="curve" smooth="yes"/>
			<point x="279" y="293"/>
			<point x="331" y="356"/>
			<point x="331" y="473" type="curve" smooth="yes"/>
			<point x="331" y="583"/>
			<point x="281" y="644"/>
		</contour>
		<contour>
			<point x="186" y="594" type="curve" smooth="yes"/>
			<point x="250" y="594"/>
			<point x="284" y="551"/>
			<point x="284" y="466" type="curve" smooth="yes"/>
			<point x="284" y="383"/>
			<point x="251" y="340"/>
			<point x="187" y="340" type="curve" smooth="yes"/>
			<point x="123" y="340"/>
			<point x="90" y="383"/>
			<point x="90" y="469" type="curve" smooth="yes"/>
			<point x="90" y="551"/>
			<point x="123" y="594"/>
		</contour>
		<contour>
			<point x="610" y="676" type="line"/>
			<point x="136" y="-63" type="line"/>
			<point x="141" y="-74" type="line"/>
			<point x="170" y="-91" type="line"/>
			<point x="645" y="647" type="line"/>
			<point x="639" y="659" type="line"/>
		</contour>
		<contour>
			<point x="634" y="347" type="curve" smooth="yes"/>
			<point x="538" y="347"/>
			<point x="485" y="284"/>
			<point x="485" y="168" type="curve" smooth="yes"/>
			<point x="485" y="57"/>
			<point x="536" y="-4"/>
			<point x="626" y="-4" type="curve" smooth="yes"/>
			<point x="723" y="-4"/>
			<point x="774" y="59"/>
			<point x="774" y="176" type="curve" smooth="yes"/>
			<point x="774" y="286"/>
			<point x="725" y="347"/>
		</contour>
		<contour>
			<point x="629" y="297" type="curve" smooth="yes"/>
			<point x="693" y="297"/>
			<point x="727" y="254"/>
			<point x="727" y="169" type="curve" smooth="yes"/>
			<point x="727" y="87"/>
			<point x="694" y="43"/>
			<point x="631" y="43" type="curve" smooth="yes"/>
			<point x="566" y="43"/>
			<point x="533" y="87"/>
			<point x="533" y="173" type="curve" smooth="yes"/>
			<point x="533" y="255"/>
			<point x="566" y="297"/>
		</contour>
	</outline>
</glyph>
<glyph name="ampersand" format="2">
	<advance width="690"/>
	<unicode hex="0026"/>
	<outline>
		<contour>
			<point x="295" y="646" type="curve" smooth="yes"/>
			<point x="174" y="646"/>
			<point x="108" y="586"/>
			<point x="108" y="489" type="curve" smooth="yes"/>
			<point x="108" y="430"/>
			<point x="133" y="382"/>
			<point x="193" y="331" type="curve" smooth="yes"/>
			<point x="602" y="-34" type="line"/>
			<point x="607" y="-35" type="line"/>
			<point x="621" y="-27"/>
			<point x="635" y="-17"/>
			<point x="646" y="-5" type="curve"/>
			<point x="646" y="0" type="line"/>
			<point x="233" y="366" type="line" smooth="yes"/>
			<point x="184" y="407"/>
			<point x="166" y="442"/>
			<point x="166" y="485" type="curve" smooth="yes"/>
			<point x="166" y="555"/>
			<point x="210" y="597"/>
			<point x="294" y="597" type="curve" smooth="yes"/>
			<point x="340" y="597"/>
			<point x="383" y="584"/>
			<point x="424" y="559" type="curve"/>
			<point x="435" y="559" type="line"/>
			<point x="451" y="609" type="line"/>
			<point x="401" y="634"/>
			<point x="349" y="646"/>
		</contour>
		<contour>
			<point x="513" y="355" type="curve"/>
			<point x="515" y="361" type="line"/>
			<point x="673" y="361" type="line"/>
			<point x="679" y="404" type="line"/>
			<point x="674" y="410" type="line"/>
			<point x="389" y="410" type="line"/>
			<point x="383" y="366" type="line"/>
			<point x="388" y="361" type="line"/>
			<point x="460" y="361" type="line"/>
			<point x="480" y="323"/>
			<point x="490" y="283"/>
			<point x="490" y="237" type="curve" smooth="yes"/>
			<point x="490" y="122"/>
			<point x="419" y="43"/>
			<point x="293" y="43" type="curve" smooth="yes"/>
			<point x="192" y="43"/>
			<point x="122" y="93"/>
			<point x="122" y="178" type="curve" smooth="yes"/>
			<point x="122" y="239"/>
			<point x="159" y="286"/>
			<point x="216" y="315" type="curve"/>
			<point x="180" y="364" type="line"/>
			<point x="179" y="338" type="line"/>
			<point x="105" y="299"/>
			<point x="64" y="242"/>
			<point x="64" y="168" type="curve" smooth="yes"/>
			<point x="64" y="59"/>
			<point x="156" y="-6"/>
			<point x="287" y="-6" type="curve" smooth="yes"/>
			<point x="445" y="-6"/>
			<point x="537" y="89"/>
			<point x="537" y="230" type="curve" smooth="yes"/>
			<point x="537" y="274"/>
			<point x="529" y="313"/>
		</contour>
	</outline>
</glyph>
<glyph name="quotesingle" format="2">
	<advance width="157"/>
	<unicode hex="0027"/>
	<outline>
		<contour>
			<point x="103" y="638" type="line"/>
			<point x="52" y="634" type="line"/>
			<point x="58" y="458" type="line"/>
			<point x="64" y="452" type="line"/>
			<point x="100" y="457" type="line"/>
			<point x="108" y="632" type="line"/>
		</contour>
	</outline>
</glyph>
<glyph name="parenleft" format="2">
	<advance width="287"/>
	<unicode hex="0028"/>
	<outline>
		<contour>
			<point x="257" y="662" type="line"/>
			<point x="250" y="662" type="line"/>
			<point x="132" y="577"/>
			<point x="86" y="463"/>
			<point x="85" y="257" type="curve" smooth="yes"/>
			<point x="86" y="56"/>
			<point x="132" y="-56"/>
			<point x="250" y="-142" type="curve"/>
			<point x="257" y="-142" type="line"/>
			<point x="281" y="-118" type="line"/>
			<point x="281" y="-112" type="line"/>
			<point x="180" y="-33"/>
			<point x="141" y="70"/>
			<point x="140" y="258" type="curve" smooth="yes"/>
			<point x="141" y="449"/>
			<point x="180" y="554"/>
			<point x="281" y="632" type="curve"/>
			<point x="281" y="639" type="line"/>
		</contour>
	</outline>
</glyph>
<glyph name="asterisk" format="2">
	<advance width="372"/>
	<unicode hex="002A"/>
	<outline>
		<contour>
			<point x="146" y="228" type="line"/>
			<point x="64" y="144" type="line"/>
			<point x="65" y="138" type="line"/>
			<point x="80" y="129"/>
			<point x="95" y="120"/>
			<point x="111" y="115" type="curve"/>
			<point x="171" y="205" type="line"/>
			<point x="172" y="214" type="line"/>
		</contour>
		<contour>
			<point x="50" y="338" type="line"/>
			<point x="44" y="336" type="line"/>
			<point x="38" y="320"/>
			<point x="37" y="300"/>
			<point x="37" y="284" type="curve"/>
			<point x="138" y="249" type="line"/>
			<point x="145" y="252" type="line"/>
			<point x="150" y="281" type="line"/>
		</contour>
		<contour>
			<point x="214" y="229" type="line"/>
			<point x="193" y="210" type="line"/>
			<point x="242" y="100" type="line"/>
			<point x="248" y="100" type="line"/>
			<point x="262" y="110"/>
			<point x="275" y="121"/>
			<point x="284" y="137" type="curve"/>
			<point x="222" y="227" type="line"/>
		</contour>
		<contour>
			<point x="216" y="418" type="line"/>
			<point x="199" y="418"/>
			<point x="182" y="416"/>
			<point x="165" y="410" type="curve"/>
			<point x="165" y="298" type="line"/>
			<point x="170" y="291" type="line"/>
			<point x="199" y="295" type="line"/>
			<point x="220" y="413" type="line"/>
		</contour>
		<contour>
			<point x="318" y="319" type="curve"/>
			<point x="218" y="284" type="line"/>
			<point x="214" y="276" type="line"/>
			<point x="227" y="250" type="line"/>
			<point x="338" y="268" type="line"/>
			<point x="342" y="272" type="line"/>
			<point x="336" y="288"/>
			<point x="328" y="305"/>
		</contour>
	</outline>
</glyph>
<glyph name="plus" format="2">
	<advance width="487"/>
	<unicode hex="002B"/>
	<outline>
		<contour>
			<point x="267" y="475" type="line"/>
			<point x="214" y="470" type="line"/>
			<point x="214" y="294" type="line"/>
			<point x="39" y="294" type="line"/>
			<point x="34" y="241" type="line"/>
			<point x="40" y="235" type="line"/>
			<point x="214" y="235" type="line"/>
			<point x="214" y="61" type="line"/>
			<point x="221" y="55" type="line"/>
			<point x="274" y="59" type="line"/>
			<point x="274" y="235" type="line"/>
			<point x="449" y="235" type="line"/>
			<point x="454" y="288" type="line"/>
			<point x="447" y="294" type="line"/>
			<point x="274" y="294" type="line"/>
			<point x="274" y="468" type="line"/>
		</contour>
	</outline>
</glyph>
<glyph name="comma" format="2">
	<advance width="229"/>
	<unicode hex="002C"/>
	<outline>
		<contour>
			<point x="134" y="118" type="curve"/>
			<point x="107" y="110"/>
			<point x="82" y="98"/>
			<point x="59" y="83" type="curve"/>
			<point x="59" y="73" type="line"/>
			<point x="84" y="55"/>
			<point x="98" y="35"/>
			<point x="98" y="12" type="curve"/>
			<point x="98" y="-26"/>
			<point x="74" y="-63"/>
			<point x="29" y="-100" type="curve"/>
			<point x="29" y="-108" type="line"/>
			<point x="66" y="-141" type="line"/>
			<point x="147" y="-82"/>
			<point x="187" y="-25"/>
			<point x="187" y="32" type="curve"/>
			<point x="187" y="67"/>
			<point x="168" y="95"/>
		</contour>
	</outline>
</glyph>
<glyph name="period" format="2">
	<advance width="229"/>
	<unicode hex="002E"/>
	<outline>
		<contour>
			<point x="117" y="105" type="curve" smooth="yes"/>
			<point x="78" y="105"/>
			<point x="54" y="80"/>
			<point x="54" y="43" type="curve" smooth="yes"/>
			<point x="54" y="5"/>
			<point x="75" y="-17"/>
			<point x="113" y="-17" type="curve" smooth="yes"/>
			<point x="150" y="-17"/>
			<point x="174" y="8"/>
			<point x="174" y="47" type="curve" smooth="yes"/>
			<point x="174" y="83"/>
			<point x="153" y="105"/>
		</contour>
	</outline>
</glyph>
<glyph name="slash" format="2">
	<advance width="288"/>
	<unicode hex="002F"/>
	<outline>
		<contour>
			<point x="278" y="677" type="line"/>
			<point x="232" y="677" type="line"/>
			<point x="28" y="-105" type="line"/>
			<point x="33" y="-112" type="line"/>
			<point x="80" y="-112" type="line"/>
			<point x="284" y="669" type="line"/>
		</contour>
	</outline>
</glyph>
<glyph name="zero" format="2">
	<advance width="487"/>
	<unicode hex="0030"/>
	<outline>
		<contour>
			<point x="249" y="591" type="curve" smooth="yes"/>
			<point x="118" y="591"/>
			<point x="45" y="482"/>
			<point x="45" y="287" type="curve" smooth="yes"/>
			<point x="45" y="98"/>
			<point x="114" y="-7"/>
			<point x="239" y="-7" type="curve" smooth="yes"/>
			<point x="370" y="-7"/>
			<point x="442" y="102"/>
			<point x="442" y="298" type="curve" smooth="yes"/>
			<point x="442" y="486"/>
			<point x="373" y="591"/>
		</contour>
		<contour>
			<point x="242" y="512" type="curve" smooth="yes"/>
			<point x="329" y="512"/>
			<point x="375" y="435"/>
			<point x="375" y="288" type="curve" smooth="yes"/>
			<point x="375" y="144"/>
			<point x="330" y="68"/>
			<point x="244" y="68" type="curve" smooth="yes"/>
			<point x="156" y="68"/>
			<point x="111" y="146"/>
			<point x="111" y="293" type="curve" smooth="yes"/>
			<point x="111" y="436"/>
			<point x="156" y="512"/>
		</contour>
	</outline>
</glyph>
<glyph name="one" format="2">
	<advance width="487"/>
	<unicode hex="0031"/>
	<outline>
		<contour>
			<point x="285" y="594" type="line"/>
			<point x="106" y="548" type="line"/>
			<point x="106" y="481" type="line"/>
			<point x="114" y="476" type="line"/>
			<point x="215" y="496" type="line"/>
			<point x="216" y="197" type="line"/>
			<point x="211" y="0" type="line"/>
			<point x="297" y="0" type="line"/>
			<point x="292" y="207" type="line"/>
			<point x="298" y="584" type="line"/>
		</contour>
	</outline>
</glyph>
<glyph name="two" format="2">
	<advance width="487"/>
	<unicode hex="0032"/>
	<outline>
		<contour>
			<point x="244" y="592" type="curve" smooth="yes"/>
			<point x="175" y="592"/>
			<point x="109" y="558"/>
			<point x="55" y="503" type="curve"/>
			<point x="69" y="437" type="line"/>
			<point x="79" y="437" type="line"/>
			<point x="122" y="489"/>
			<point x="175" y="519"/>
			<point x="225" y="519" type="curve" smooth="yes"/>
			<point x="279" y="519"/>
			<point x="308" y="485"/>
			<point x="308" y="443" type="curve" smooth="yes"/>
			<point x="308" y="392"/>
			<point x="264" y="333"/>
			<point x="195" y="242" type="curve" smooth="yes"/>
			<point x="49" y="56" type="line"/>
			<point x="49" y="2" type="line"/>
			<point x="54" y="-2" type="line"/>
			<point x="94" y="0" type="line"/>
			<point x="336" y="0" type="line"/>
			<point x="446" y="-4" type="line"/>
			<point x="456" y="64" type="line"/>
			<point x="451" y="72" type="line"/>
			<point x="359" y="68" type="line"/>
			<point x="160" y="68" type="line"/>
			<point x="158" y="72" type="line"/>
			<point x="267" y="220" type="line" smooth="yes"/>
			<point x="349" y="330"/>
			<point x="391" y="398"/>
			<point x="391" y="462" type="curve" smooth="yes"/>
			<point x="391" y="541"/>
			<point x="329" y="592"/>
		</contour>
	</outline>
</glyph>
<glyph name="three" format="2">
	<advance width="487"/>
	<unicode hex="0033"/>
	<outline>
		<contour>
			<point x="236" y="648" type="curve" smooth="yes"/>
			<point x="177" y="648"/>
			<point x="123" y="628"/>
			<point x="69" y="586" type="curve"/>
			<point x="82" y="519" type="line"/>
			<point x="91" y="519" type="line"/>
			<point x="136" y="557"/>
			<point x="175" y="578"/>
			<point x="220" y="578" type="curve" smooth="yes"/>
			<point x="273" y="578"/>
			<point x="309" y="539"/>
			<point x="309" y="492" type="curve" smooth="yes"/>
			<point x="309" y="412"/>
			<point x="251" y="363"/>
			<point x="185" y="362" type="curve" smooth="yes"/>
			<point x="140" y="361" type="line"/>
			<point x="138" y="302" type="line"/>
			<point x="143" y="296" type="line"/>
			<point x="205" y="296" type="line"/>
			<point x="300" y="293"/>
			<point x="336" y="239"/>
			<point x="336" y="163" type="curve" smooth="yes"/>
			<point x="336" y="94"/>
			<point x="275" y="60"/>
			<point x="185" y="60" type="curve" smooth="yes"/>
			<point x="149" y="60"/>
			<point x="113" y="67"/>
			<point x="78" y="82" type="curve"/>
			<point x="72" y="76" type="line"/>
			<point x="77" y="3" type="line"/>
			<point x="108" y="-2"/>
			<point x="147" y="-6"/>
			<point x="180" y="-6" type="curve" smooth="yes"/>
			<point x="321" y="-6"/>
			<point x="417" y="61"/>
			<point x="417" y="174" type="curve" smooth="yes"/>
			<point x="417" y="256"/>
			<point x="373" y="319"/>
			<point x="291" y="338" type="curve"/>
			<point x="291" y="342" type="line"/>
			<point x="363" y="378"/>
			<point x="395" y="442"/>
			<point x="395" y="510" type="curve" smooth="yes"/>
			<point x="395" y="586"/>
			<point x="331" y="648"/>
		</contour>
	</outline>
</glyph>
<glyph name="four" format="2">
	<advance width="487"/>
	<unicode hex="0034"/>
	<outline>
		<contour>
			<point x="383" y="407" type="line"/>
			<point x="314" y="407" type="line"/>
			<point x="314" y="271" type="line"/>
			<point x="311" y="1" type="line"/>
			<point x="316" y="-5" type="line"/>
			<point x="382" y="0" type="line"/>
			<point x="387" y="7" type="line"/>
			<point x="382" y="258" type="line"/>
		</contour>
		<contour>
			<point x="339" y="613" type="line"/>
			<point x="339" y="622" type="line"/>
			<point x="272" y="660" type="line"/>
			<point x="267" y="660" type="line"/>
			<point x="25" y="226" type="line"/>
			<point x="25" y="171" type="line"/>
			<point x="31" y="163" type="line"/>
			<point x="97" y="165" type="line"/>
			<point x="342" y="165" type="line"/>
			<point x="454" y="163" type="line"/>
			<point x="459" y="223" type="line"/>
			<point x="453" y="231" type="line"/>
			<point x="100" y="231" type="line"/>
		</contour>
	</outline>
</glyph>
<glyph name="five" format="2">
	<advance width="487"/>
	<unicode hex="0035"/>
	<outline>
		<contour>
			<point x="414" y="644" type="line"/>
			<point x="326" y="640" type="line"/>
			<point x="171" y="640" type="line"/>
			<point x="113" y="642" type="line"/>
			<point x="100" y="630" type="line"/>
			<point x="96" y="347" type="line"/>
			<point x="103" y="339" type="line"/>
			<point x="175" y="339" type="line" smooth="yes"/>
			<point x="283" y="339"/>
			<point x="336" y="297"/>
			<point x="336" y="209" type="curve" smooth="yes"/>
			<point x="336" y="102"/>
			<point x="276" y="59"/>
			<point x="158" y="59" type="curve" smooth="yes"/>
			<point x="128" y="59"/>
			<point x="95" y="63"/>
			<point x="59" y="71" type="curve"/>
			<point x="52" y="64" type="line"/>
			<point x="59" y="3" type="line"/>
			<point x="91" y="-3"/>
			<point x="129" y="-7"/>
			<point x="158" y="-7" type="curve" smooth="yes"/>
			<point x="323" y="-7"/>
			<point x="416" y="66"/>
			<point x="416" y="216" type="curve" smooth="yes"/>
			<point x="416" y="325"/>
			<point x="329" y="402"/>
			<point x="191" y="402" type="curve" smooth="yes"/>
			<point x="162" y="402" type="line"/>
			<point x="167" y="573" type="line"/>
			<point x="336" y="573" type="line"/>
			<point x="405" y="567" type="line"/>
			<point x="412" y="573" type="line"/>
			<point x="420" y="638" type="line"/>
		</contour>
	</outline>
</glyph>
<glyph name="six" format="2">
	<advance width="500"/>
	<unicode hex="0036"/>
	<outline>
		<contour>
			<point x="365" y="593" type="line"/>
			<point x="360" y="593" type="line"/>
			<point x="171" y="520"/>
			<point x="62" y="382"/>
			<point x="62" y="210" type="curve"/>
			<point x="62" y="72"/>
			<point x="123" y="-7"/>
			<point x="245" y="-7" type="curve"/>
			<point x="367" y="-7"/>
			<point x="436" y="68"/>
			<point x="436" y="179" type="curve"/>
			<point x="436" y="280"/>
			<point x="377" y="346"/>
			<point x="277" y="346" type="curve" smooth="yes"/>
			<point x="224" y="346"/>
			<point x="179" y="328"/>
			<point x="140" y="299" type="curve"/>
			<point x="127" y="313" type="line"/>
			<point x="116" y="233" type="line"/>
			<point x="158" y="273"/>
			<point x="207" y="296"/>
			<point x="259" y="296" type="curve" smooth="yes"/>
			<point x="333" y="296"/>
			<point x="376" y="251"/>
			<point x="376" y="170" type="curve"/>
			<point x="376" y="85"/>
			<point x="329" y="40"/>
			<point x="250" y="40" type="curve"/>
			<point x="163" y="40"/>
			<point x="123" y="99"/>
			<point x="123" y="210" type="curve"/>
			<point x="123" y="376"/>
			<point x="212" y="484"/>
			<point x="415" y="556" type="curve"/>
			<point x="415" y="563" type="line"/>
		</contour>
	</outline>
</glyph>
<glyph name="seven" format="2">
	<advance width="500"/>
	<unicode hex="0037"/>
	<outline>
		<contour>
			<point x="59" y="588" type="line"/>
			<point x="53" y="534" type="line"/>
			<point x="59" y="526" type="line"/>
			<point x="134" y="530" type="line"/>
			<point x="374" y="530" type="line"/>
			<point x="118" y="16" type="line"/>
			<point x="122" y="5" type="line"/>
			<point x="177" y="-11" type="line"/>
			<point x="224" y="101" type="line"/>
			<point x="439" y="538" type="line"/>
			<point x="438" y="587" type="line"/>
			<point x="394" y="586" type="line"/>
			<point x="147" y="586" type="line"/>
		</contour>
	</outline>
</glyph>
<glyph name="eight" format="2">
	<advance width="500"/>
	<unicode hex="0038"/>
	<outline>
		<contour>
			<point x="257" y="591" type="curve" smooth="yes"/>
			<point x="157" y="591"/>
			<point x="86" y="536"/>
			<point x="86" y="441" type="curve" smooth="yes"/>
			<point x="86" y="364"/>
			<point x="136" y="327"/>
			<point x="192" y="301" type="curve"/>
			<point x="192" y="296" type="line"/>
			<point x="126" y="271"/>
			<point x="62" y="228"/>
			<point x="62" y="143" type="curve" smooth="yes"/>
			<point x="62" y="55"/>
			<point x="128" y="-6"/>
			<point x="239" y="-6" type="curve" smooth="yes"/>
			<point x="354" y="-6"/>
			<point x="429" y="57"/>
			<point x="429" y="157" type="curve" smooth="yes"/>
			<point x="429" y="244"/>
			<point x="364" y="277"/>
			<point x="299" y="305" type="curve"/>
			<point x="299" y="310" type="line"/>
			<point x="361" y="337"/>
			<point x="411" y="377"/>
			<point x="411" y="453" type="curve" smooth="yes"/>
			<point x="411" y="539"/>
			<point x="352" y="591"/>
		</contour>
		<contour>
			<point x="241" y="277" type="curve"/>
			<point x="307" y="249"/>
			<point x="372" y="225"/>
			<point x="372" y="152" type="curve" smooth="yes"/>
			<point x="372" y="88"/>
			<point x="324" y="42"/>
			<point x="244" y="42" type="curve" smooth="yes"/>
			<point x="167" y="42"/>
			<point x="120" y="86"/>
			<point x="120" y="149" type="curve" smooth="yes"/>
			<point x="120" y="225"/>
			<point x="182" y="255"/>
		</contour>
		<contour>
			<point x="254" y="542" type="curve" smooth="yes"/>
			<point x="317" y="542"/>
			<point x="356" y="506"/>
			<point x="356" y="448" type="curve" smooth="yes"/>
			<point x="356" y="379"/>
			<point x="305" y="349"/>
			<point x="250" y="328" type="curve"/>
			<point x="194" y="351"/>
			<point x="143" y="377"/>
			<point x="143" y="442" type="curve" smooth="yes"/>
			<point x="143" y="504"/>
			<point x="187" y="542"/>
		</contour>
	</outline>
</glyph>
<glyph name="nine" format="2">
	<advance width="500"/>
	<unicode hex="0039"/>
	<outline>
		<contour>
			<point x="258" y="595" type="curve"/>
			<point x="136" y="595"/>
			<point x="66" y="519"/>
			<point x="66" y="408" type="curve"/>
			<point x="66" y="307"/>
			<point x="125" y="242"/>
			<point x="226" y="242" type="curve" smooth="yes"/>
			<point x="279" y="242"/>
			<point x="324" y="260"/>
			<point x="363" y="289" type="curve"/>
			<point x="376" y="274" type="line"/>
			<point x="387" y="355" type="line"/>
			<point x="344" y="315"/>
			<point x="295" y="292"/>
			<point x="243" y="292" type="curve" smooth="yes"/>
			<point x="169" y="292"/>
			<point x="126" y="337"/>
			<point x="126" y="418" type="curve"/>
			<point x="126" y="502"/>
			<point x="174" y="548"/>
			<point x="253" y="548" type="curve"/>
			<point x="339" y="548"/>
			<point x="379" y="489"/>
			<point x="379" y="377" type="curve"/>
			<point x="379" y="212"/>
			<point x="290" y="103"/>
			<point x="87" y="32" type="curve"/>
			<point x="87" y="24" type="line"/>
			<point x="138" y="-6" type="line"/>
			<point x="142" y="-6" type="line"/>
			<point x="331" y="67"/>
			<point x="440" y="205"/>
			<point x="440" y="378" type="curve"/>
			<point x="440" y="515"/>
			<point x="379" y="595"/>
		</contour>
	</outline>
</glyph>
<glyph name="greater" format="2">
	<advance width="487"/>
	<unicode hex="003E"/>
	<outline>
		<contour>
			<point x="60" y="464" type="line"/>
			<point x="41" y="415" type="line"/>
			<point x="45" y="407" type="line"/>
			<point x="382" y="269" type="line"/>
			<point x="382" y="263" type="line"/>
			<point x="43" y="133" type="line"/>
			<point x="56" y="84" type="line"/>
			<point x="65" y="78" type="line"/>
			<point x="447" y="229" type="line"/>
			<point x="447" y="299" type="line"/>
			<point x="440" y="308" type="line"/>
		</contour>
	</outline>
</glyph>
<glyph name="question" format="2">
	<advance width="329"/>
	<unicode hex="003F"/>
	<outline>
		<contour>
			<point x="86" y="660" type="curve"/>
			<point x="77" y="655" type="line"/>
			<point x="64" y="617" type="line"/>
			<point x="68" y="610" type="line"/>
			<point x="204" y="602"/>
			<point x="270" y="561"/>
			<point x="270" y="493" type="curve" smooth="yes"/>
			<point x="270" y="454"/>
			<point x="247" y="420"/>
			<point x="207" y="395" type="curve" smooth="yes"/>
			<point x="110" y="336" type="line"/>
			<point x="105" y="326" type="line"/>
			<point x="112" y="212" type="line"/>
			<point x="118" y="206" type="line"/>
			<point x="166" y="211" type="line"/>
			<point x="160" y="310" type="line"/>
			<point x="162" y="314" type="line"/>
			<point x="248" y="371" type="line" smooth="yes"/>
			<point x="301" y="405"/>
			<point x="331" y="452"/>
			<point x="331" y="503" type="curve" smooth="yes"/>
			<point x="331" y="593"/>
			<point x="243" y="649"/>
		</contour>
		<contour>
			<point x="144" y="77" type="curve" smooth="yes"/>
			<point x="119" y="77"/>
			<point x="103" y="61"/>
			<point x="103" y="36" type="curve" smooth="yes"/>
			<point x="103" y="11"/>
			<point x="117" y="-4"/>
			<point x="142" y="-4" type="curve" smooth="yes"/>
			<point x="167" y="-4"/>
			<point x="183" y="12"/>
			<point x="183" y="38" type="curve" smooth="yes"/>
			<point x="183" y="62"/>
			<point x="168" y="77"/>
		</contour>
	</outline>
</glyph>
<glyph name="at" format="2">
	<advance width="821"/>
	<unicode hex="0040"/>
	<outline>
		<contour>
			<point x="454" y="609" type="curve"/>
			<point x="204" y="609"/>
			<point x="38" y="436"/>
			<point x="38" y="188" type="curve"/>
			<point x="38" y="-47"/>
			<point x="203" y="-191"/>
			<point x="449" y="-195" type="curve"/>
			<point x="472" y="-160" type="line"/>
			<point x="469" y="-153" type="line"/>
			<point x="238" y="-153"/>
			<point x="85" y="-23"/>
			<point x="85" y="197" type="curve" smooth="yes"/>
			<point x="85" y="411"/>
			<point x="230" y="562"/>
			<point x="447" y="563" type="curve"/>
			<point x="628" y="566"/>
			<point x="740" y="457"/>
			<point x="740" y="293" type="curve"/>
			<point x="740" y="141"/>
			<point x="651" y="51"/>
			<point x="495" y="44" type="curve"/>
			<point x="457" y="-4" type="line"/>
			<point x="669" y="5"/>
			<point x="787" y="110"/>
			<point x="787" y="295" type="curve"/>
			<point x="787" y="484"/>
			<point x="657" y="609"/>
		</contour>
		<contour>
			<point x="567" y="464" type="line"/>
			<point x="513" y="437" type="line"/>
			<point x="507" y="358" type="line"/>
			<point x="457" y="-4" type="line"/>
			<point x="522" y="11" type="line"/>
			<point x="527" y="109" type="line"/>
			<point x="576" y="460" type="line"/>
		</contour>
		<contour>
			<point x="377" y="187" type="move"/>
		</contour>
		<contour>
			<point x="459" y="463" type="line"/>
			<point x="303" y="442"/>
			<point x="223" y="293"/>
			<point x="223" y="148" type="curve" smooth="yes"/>
			<point x="223" y="68"/>
			<point x="248" y="21"/>
			<point x="295" y="-7" type="curve"/>
			<point x="308" y="-7" type="line"/>
			<point x="370" y="51"/>
			<point x="429" y="130"/>
			<point x="478" y="217" type="curve"/>
			<point x="495" y="217" type="line"/>
			<point x="511" y="359" type="line"/>
			<point x="426" y="165"/>
			<point x="333" y="64"/>
			<point x="313" y="64" type="curve" smooth="yes"/>
			<point x="301" y="64"/>
			<point x="280" y="86"/>
			<point x="280" y="164" type="curve" smooth="yes"/>
			<point x="280" y="297"/>
			<point x="343" y="410"/>
			<point x="448" y="411" type="curve"/>
			<point x="531" y="385" type="line"/>
			<point x="554" y="435" type="line"/>
			<point x="464" y="463" type="line"/>
		</contour>
	</outline>
</glyph>
<glyph name="A" format="2">
	<advance width="573"/>
	<unicode hex="0041"/>
	<anchor x="286" y="0" name="bottom"/>
	<anchor x="550" y="0" name="ogonek"/>
	<anchor x="287" y="640" name="top"/>
	<outline>
		<contour>
			<point x="332" y="640" type="line"/>
			<point x="254" y="640" type="line"/>
			<point x="15" y="0" type="line"/>
			<point x="83" y="0" type="line"/>
			<point x="98" y="62" type="line"/>
			<point x="288" y="568" type="line"/>
			<point x="294" y="568" type="line"/>
			<point x="466" y="59" type="line"/>
			<point x="480" y="0" type="line"/>
			<point x="550" y="0" type="line"/>
		</contour>
		<contour>
			<point x="441" y="241" type="line"/>
			<point x="283" y="239" type="line"/>
			<point x="126" y="241" type="line"/>
			<point x="125" y="182" type="line"/>
			<point x="277" y="184" type="line"/>
			<point x="443" y="182" type="line"/>
		</contour>
	</outline>
</glyph>
<glyph name="B" format="2">
	<advance width="527"/>
	<unicode hex="0042"/>
	<outline>
		<contour>
			<point x="263" y="641" type="curve"/>
			<point x="97" y="640" type="line"/>
			<point x="130" y="584" type="line"/>
			<point x="173" y="585"/>
			<point x="216" y="585"/>
			<point x="252" y="585" type="curve" smooth="yes"/>
			<point x="337" y="585"/>
			<point x="376" y="551"/>
			<point x="376" y="480" type="curve" smooth="yes"/>
			<point x="376" y="410"/>
			<point x="341" y="369"/>
			<point x="277" y="354" type="curve"/>
			<point x="123" y="358" type="line"/>
			<point x="123" y="299" type="line"/>
			<point x="288" y="301" type="line"/>
			<point x="373" y="291"/>
			<point x="419" y="252"/>
			<point x="419" y="182" type="curve" smooth="yes"/>
			<point x="419" y="99"/>
			<point x="355" y="53"/>
			<point x="240" y="53" type="curve" smooth="yes"/>
			<point x="210" y="53"/>
			<point x="165" y="55"/>
			<point x="134" y="59" type="curve"/>
			<point x="97" y="0" type="line"/>
			<point x="136" y="-3"/>
			<point x="207" y="-4"/>
			<point x="232" y="-4" type="curve" smooth="yes"/>
			<point x="400" y="-4"/>
			<point x="487" y="59"/>
			<point x="487" y="178" type="curve" smooth="yes"/>
			<point x="487" y="266"/>
			<point x="439" y="317"/>
			<point x="349" y="334" type="curve"/>
			<point x="410" y="359"/>
			<point x="445" y="412"/>
			<point x="445" y="487" type="curve" smooth="yes"/>
			<point x="445" y="588"/>
			<point x="378" y="641"/>
		</contour>
		<contour>
			<point x="165" y="640" type="line"/>
			<point x="96" y="640" type="line"/>
			<point x="101" y="194" type="line"/>
			<point x="96" y="0" type="line"/>
			<point x="164" y="0" type="line"/>
			<point x="161" y="199" type="line"/>
		</contour>
	</outline>
</glyph>
<glyph name="C" format="2">
	<advance width="521"/>
	<unicode hex="0043"/>
	<anchor x="306" y="0" name="bottom"/>
	<anchor x="314" y="640" name="top"/>
	<outline>
		<contour>
			<point x="320" y="645" type="curve" smooth="yes"/>
			<point x="142" y="645"/>
			<point x="40" y="527"/>
			<point x="40" y="316" type="curve" smooth="yes"/>
			<point x="40" y="109"/>
			<point x="137" y="-6"/>
			<point x="308" y="-6" type="curve" smooth="yes"/>
			<point x="372" y="-6"/>
			<point x="431" y="12"/>
			<point x="487" y="46" type="curve"/>
			<point x="492" y="109" type="line"/>
			<point x="483" y="113" type="line"/>
			<point x="435" y="74"/>
			<point x="374" y="51"/>
			<point x="312" y="51" type="curve" smooth="yes"/>
			<point x="184" y="51"/>
			<point x="109" y="145"/>
			<point x="109" y="321" type="curve" smooth="yes"/>
			<point x="109" y="496"/>
			<point x="184" y="588"/>
			<point x="317" y="588" type="curve" smooth="yes"/>
			<point x="378" y="588"/>
			<point x="430" y="567"/>
			<point x="473" y="532" type="curve"/>
			<point x="481" y="534" type="line"/>
			<point x="495" y="595" type="line"/>
			<point x="447" y="627"/>
			<point x="387" y="645"/>
		</contour>
	</outline>
</glyph>
<glyph name="D" format="2">
	<advance width="644"/>
	<unicode hex="0044"/>
	<anchor x="323" y="0" name="bottom"/>
	<anchor x="323" y="320" name="center"/>
	<anchor x="323" y="640" name="top"/>
	<outline>
		<contour>
			<point x="322" y="644" type="curve"/>
			<point x="97" y="640" type="line"/>
			<point x="152" y="583" type="line"/>
			<point x="181" y="584"/>
			<point x="294" y="588"/>
			<point x="317" y="588" type="curve" smooth="yes"/>
			<point x="460" y="588"/>
			<point x="535" y="502"/>
			<point x="535" y="329" type="curve" smooth="yes"/>
			<point x="535" y="144"/>
			<point x="454" y="51"/>
			<point x="312" y="51" type="curve" smooth="yes"/>
			<point x="287" y="51"/>
			<point x="184" y="54"/>
			<point x="143" y="59" type="curve"/>
			<point x="97" y="0" type="line"/>
			<point x="150" y="-3"/>
			<point x="267" y="-6"/>
			<point x="302" y="-6" type="curve"/>
			<point x="496" y="-6"/>
			<point x="604" y="118"/>
			<point x="604" y="342" type="curve" smooth="yes"/>
			<point x="604" y="537"/>
			<point x="504" y="644"/>
		</contour>
		<contour>
			<point x="165" y="640" type="line"/>
			<point x="96" y="640" type="line"/>
			<point x="101" y="194" type="line"/>
			<point x="96" y="0" type="line"/>
			<point x="164" y="0" type="line"/>
			<point x="161" y="199" type="line"/>
		</contour>
	</outline>
</glyph>
<glyph name="E" format="2">
	<advance width="476"/>
	<unicode hex="0045"/>
	<anchor x="278" y="0" name="bottom"/>
	<anchor x="411" y="17" name="ogonek"/>
	<anchor x="272" y="640" name="top"/>
	<outline>
		<contour>
			<point x="165" y="640" type="line"/>
			<point x="96" y="640" type="line"/>
			<point x="101" y="194" type="line"/>
			<point x="96" y="0" type="line"/>
			<point x="164" y="0" type="line"/>
			<point x="161" y="199" type="line"/>
		</contour>
		<contour>
			<point x="447" y="59" type="line"/>
			<point x="292" y="56" type="line"/>
			<point x="143" y="57" type="line"/>
			<point x="139" y="6" type="line"/>
			<point x="143" y="0" type="line"/>
			<point x="446" y="0" type="line"/>
			<point x="451" y="52" type="line"/>
		</contour>
		<contour>
			<point x="392" y="358" type="line"/>
			<point x="285" y="356" type="line"/>
			<point x="145" y="357" type="line"/>
			<point x="141" y="306" type="line"/>
			<point x="145" y="300" type="line"/>
			<point x="279" y="301" type="line"/>
			<point x="391" y="299" type="line"/>
			<point x="397" y="352" type="line"/>
		</contour>
		<contour>
			<point x="446" y="640" type="line"/>
			<point x="143" y="640" type="line"/>
			<point x="139" y="588" type="line"/>
			<point x="143" y="582" type="line"/>
			<point x="294" y="583" type="line"/>
			<point x="444" y="581" type="line"/>
			<point x="450" y="633" type="line"/>
		</contour>
	</outline>
</glyph>
<glyph name="F" format="2">
	<advance width="429"/>
	<unicode hex="0046"/>
	<outline>
		<contour>
			<point x="165" y="640" type="line"/>
			<point x="96" y="640" type="line"/>
			<point x="101" y="194" type="line"/>
			<point x="96" y="0" type="line"/>
			<point x="164" y="0" type="line"/>
			<point x="161" y="199" type="line"/>
		</contour>
		<contour>
			<point x="378" y="346" type="line"/>
			<point x="275" y="344" type="line"/>
			<point x="145" y="345" type="line"/>
			<point x="145" y="289" type="line"/>
			<point x="268" y="289" type="line"/>
			<point x="377" y="287" type="line"/>
			<point x="384" y="339" type="line"/>
		</contour>
		<contour>
			<point x="428" y="640" type="line"/>
			<point x="142" y="640" type="line"/>
			<point x="139" y="588" type="line"/>
			<point x="142" y="582" type="line"/>
			<point x="282" y="583" type="line"/>
			<point x="427" y="579" type="line"/>
			<point x="434" y="633" type="line"/>
		</contour>
	</outline>
</glyph>
<glyph name="G" format="2">
	<advance width="600"/>
	<unicode hex="0047"/>
	<anchor x="307" y="0" name="bottom"/>
	<anchor x="326" y="641" name="top"/>
	<outline>
		<contour>
			<point x="351" y="647" type="curve" smooth="yes"/>
			<point x="152" y="647"/>
			<point x="37" y="529"/>
			<point x="37" y="307" type="curve" smooth="yes"/>
			<point x="37" y="108"/>
			<point x="129" y="-7"/>
			<point x="326" y="-7" type="curve" smooth="yes"/>
			<point x="387" y="-7"/>
			<point x="451" y="4"/>
			<point x="538" y="31" type="curve"/>
			<point x="533" y="182" type="line"/>
			<point x="534" y="247" type="line"/>
			<point x="534" y="271"/>
			<point x="536" y="292"/>
			<point x="541" y="307" type="curve"/>
			<point x="502" y="305"/>
			<point x="463" y="302"/>
			<point x="424" y="302" type="curve" smooth="yes"/>
			<point x="402" y="302"/>
			<point x="369" y="301"/>
			<point x="347" y="306" type="curve"/>
			<point x="349" y="290"/>
			<point x="351" y="281"/>
			<point x="351" y="265" type="curve" smooth="yes"/>
			<point x="351" y="249"/>
			<point x="350" y="242"/>
			<point x="348" y="226" type="curve"/>
			<point x="374" y="234"/>
			<point x="415" y="233"/>
			<point x="436" y="233" type="curve" smooth="yes"/>
			<point x="458" y="233" type="line"/>
			<point x="454" y="89" type="line"/>
			<point x="397" y="71"/>
			<point x="366" y="66"/>
			<point x="330" y="66" type="curve" smooth="yes"/>
			<point x="191" y="66"/>
			<point x="126" y="140"/>
			<point x="126" y="311" type="curve" smooth="yes"/>
			<point x="126" y="492"/>
			<point x="199" y="575"/>
			<point x="338" y="575" type="curve" smooth="yes"/>
			<point x="398" y="575"/>
			<point x="447" y="559"/>
			<point x="512" y="519" type="curve"/>
			<point x="522" y="521" type="line"/>
			<point x="540" y="602" type="line"/>
			<point x="477" y="634"/>
			<point x="417" y="647"/>
		</contour>
	</outline>
</glyph>
<glyph name="H" format="2">
	<advance width="681"/>
	<unicode hex="0048"/>
	<anchor x="341" y="0" name="bottom"/>
	<anchor x="516" y="0" name="bottomright"/>
	<anchor x="341" y="320" name="center"/>
	<anchor x="341" y="640" name="top"/>
	<anchor x="20" y="640" name="topleft"/>
	<outline>
		<contour>
			<point x="584" y="640" type="line"/>
			<point x="516" y="640" type="line"/>
			<point x="519" y="194" type="line"/>
			<point x="516" y="0" type="line"/>
			<point x="582" y="0" type="line"/>
			<point x="581" y="199" type="line"/>
		</contour>
		<contour>
			<point x="164" y="640" type="line"/>
			<point x="97" y="640" type="line"/>
			<point x="100" y="194" type="line"/>
			<point x="97" y="0" type="line"/>
			<point x="164" y="0" type="line"/>
			<point x="161" y="199" type="line"/>
		</contour>
		<contour>
			<point x="152" y="352" type="line"/>
			<point x="152" y="295" type="line"/>
			<point x="333" y="295" type="line"/>
			<point x="528" y="295" type="line"/>
			<point x="528" y="352" type="line"/>
			<point x="339" y="351" type="line"/>
		</contour>
	</outline>
</glyph>
<glyph name="I" format="2">
	<advance width="262"/>
	<unicode hex="0049"/>
	<anchor x="130" y="0" name="bottom"/>
	<anchor x="164" y="0" name="ogonek"/>
	<anchor x="131" y="640" name="top"/>
	<outline>
		<contour>
			<point x="165" y="640" type="line"/>
			<point x="96" y="640" type="line"/>
			<point x="101" y="194" type="line"/>
			<point x="96" y="0" type="line"/>
			<point x="164" y="0" type="line"/>
			<point x="161" y="199" type="line"/>
		</contour>
	</outline>
</glyph>
<glyph name="J" format="2">
	<advance width="262"/>
	<unicode hex="004A"/>
	<anchor x="127" y="640" name="top"/>
	<outline>
		<contour>
			<point x="163" y="80" type="curve" smooth="yes"/>
			<point x="161" y="282" type="line"/>
			<point x="165" y="640" type="line"/>
			<point x="95" y="640" type="line"/>
			<point x="101" y="275" type="line"/>
			<point x="101" y="93" type="line" smooth="yes"/>
			<point x="101" y="-41"/>
			<point x="191" y="-172"/>
			<point x="325" y="-191" type="curve"/>
			<point x="332" y="-191" type="line"/>
			<point x="344" y="-179"/>
			<point x="354" y="-166"/>
			<point x="361" y="-152" type="curve"/>
			<point x="360" y="-143" type="line"/>
			<point x="249" y="-133"/>
			<point x="164" y="-16"/>
		</contour>
	</outline>
</glyph>
<glyph name="K" format="2">
	<advance width="538"/>
	<unicode hex="004B"/>
	<anchor x="284" y="0" name="bottom"/>
	<anchor x="465" y="-5" name="bottomright"/>
	<anchor x="270" y="640" name="top"/>
	<outline>
		<contour>
			<point x="251" y="340" type="curve"/>
			<point x="519" y="640" type="line"/>
			<point x="442" y="640" type="line"/>
			<point x="401" y="586" type="line"/>
			<point x="179" y="342" type="line"/>
			<point x="179" y="337" type="line"/>
			<point x="268" y="219"/>
			<point x="366" y="104"/>
			<point x="465" y="-5" type="curve"/>
			<point x="474" y="-8" type="line"/>
			<point x="495" y="-5"/>
			<point x="516" y="-1"/>
			<point x="536" y="6" type="curve"/>
			<point x="537" y="14" type="line"/>
			<point x="437" y="116"/>
			<point x="338" y="229"/>
		</contour>
		<contour>
			<point x="164" y="640" type="line"/>
			<point x="97" y="640" type="line"/>
			<point x="100" y="194" type="line"/>
			<point x="97" y="0" type="line"/>
			<point x="164" y="0" type="line"/>
			<point x="161" y="199" type="line"/>
		</contour>
	</outline>
</glyph>
<glyph name="L" format="2">
	<advance width="429"/>
	<unicode hex="004C"/>
	<anchor x="235" y="0" name="bottom"/>
	<anchor x="130" y="640" name="top"/>
	<outline>
		<contour>
			<point x="163" y="640" type="line"/>
			<point x="94" y="640" type="line"/>
			<point x="98" y="194" type="line"/>
			<point x="94" y="0" type="line"/>
			<point x="162" y="0" type="line"/>
			<point x="159" y="199" type="line"/>
		</contour>
		<contour>
			<point x="404" y="57" type="line"/>
			<point x="136" y="57" type="line"/>
			<point x="132" y="6" type="line"/>
			<point x="136" y="0" type="line"/>
			<point x="403" y="0" type="line"/>
			<point x="409" y="50" type="line"/>
		</contour>
	</outline>
</glyph>
<glyph name="M" format="2">
	<advance width="787"/>
	<unicode hex="004D"/>
	<anchor x="394" y="0" name="bottom"/>
	<anchor x="394" y="640" name="top"/>
	<outline>
		<contour>
			<point x="659" y="640" type="line"/>
			<point x="583" y="640" type="line"/>
			<point x="550" y="549" type="line"/>
			<point x="395" y="164" type="line"/>
			<point x="389" y="164" type="line"/>
			<point x="242" y="542" type="line"/>
			<point x="208" y="640" type="line"/>
			<point x="131" y="640" type="line"/>
			<point x="63" y="0" type="line"/>
			<point x="121" y="0" type="line"/>
			<point x="139" y="200" type="line"/>
			<point x="175" y="530" type="line"/>
			<point x="182" y="530" type="line"/>
			<point x="360" y="75" type="line"/>
			<point x="417" y="75" type="line"/>
			<point x="604" y="530" type="line"/>
			<point x="610" y="530" type="line"/>
			<point x="646" y="195" type="line"/>
			<point x="662" y="0" type="line"/>
			<point x="723" y="0" type="line"/>
		</contour>
	</outline>
</glyph>
<glyph name="N" format="2">
	<advance width="680"/>
	<unicode hex="004E"/>
	<anchor x="336" y="0" name="bottom"/>
	<anchor x="337" y="640" name="top"/>
	<outline>
		<contour>
			<point x="584" y="642" type="line"/>
			<point x="521" y="637" type="line"/>
			<point x="521" y="109" type="line"/>
			<point x="515" y="109" type="line"/>
			<point x="168" y="640" type="line"/>
			<point x="98" y="640" type="line"/>
			<point x="100" y="190" type="line"/>
			<point x="97" y="0" type="line"/>
			<point x="159" y="0" type="line"/>
			<point x="157" y="208" type="line"/>
			<point x="158" y="531" type="line"/>
			<point x="164" y="531" type="line"/>
			<point x="510" y="0" type="line"/>
			<point x="581" y="0" type="line"/>
			<point x="580" y="185" type="line"/>
		</contour>
	</outline>
</glyph>
<glyph name="O" format="2">
	<advance width="633"/>
	<unicode hex="004F"/>
	<anchor x="317" y="0" name="bottom"/>
	<anchor x="317" y="320" name="center"/>
	<anchor x="445" y="26" name="ogonek"/>
	<anchor x="318" y="640" name="top"/>
	<anchor x="20" y="640" name="topleft"/>
	<anchor x="613" y="640" name="topright"/>
	<outline>
		<contour>
			<point x="324" y="646" type="curve"/>
			<point x="142" y="646"/>
			<point x="40" y="528"/>
			<point x="40" y="316" type="curve" smooth="yes"/>
			<point x="40" y="109"/>
			<point x="137" y="-7"/>
			<point x="309" y="-7" type="curve" smooth="yes"/>
			<point x="491" y="-7"/>
			<point x="594" y="115"/>
			<point x="594" y="332" type="curve" smooth="yes"/>
			<point x="594" y="534"/>
			<point x="497" y="646"/>
		</contour>
		<contour>
			<point x="319" y="591" type="curve" smooth="yes"/>
			<point x="455" y="591"/>
			<point x="525" y="502"/>
			<point x="525" y="320" type="curve" smooth="yes"/>
			<point x="525" y="138"/>
			<point x="453" y="46"/>
			<point x="314" y="46" type="curve" smooth="yes"/>
			<point x="178" y="46"/>
			<point x="109" y="137"/>
			<point x="109" y="323" type="curve" smooth="yes"/>
			<point x="109" y="501"/>
			<point x="181" y="591"/>
		</contour>
	</outline>
</glyph>
<glyph name="P" format="2">
	<advance width="512"/>
	<unicode hex="0050"/>
	<outline>
		<contour>
			<point x="281" y="641" type="curve"/>
			<point x="97" y="640" type="line"/>
			<point x="132" y="582" type="line"/>
			<point x="268" y="585" type="line"/>
			<point x="357" y="582"/>
			<point x="405" y="538"/>
			<point x="405" y="450" type="curve" smooth="yes"/>
			<point x="405" y="356"/>
			<point x="358" y="298"/>
			<point x="270" y="285" type="curve"/>
			<point x="123" y="288" type="line"/>
			<point x="123" y="230" type="line"/>
			<point x="240" y="230" type="line"/>
			<point x="387" y="230"/>
			<point x="473" y="315"/>
			<point x="473" y="455" type="curve" smooth="yes"/>
			<point x="473" y="575"/>
			<point x="404" y="641"/>
		</contour>
		<contour>
			<point x="165" y="640" type="line"/>
			<point x="96" y="640" type="line"/>
			<point x="101" y="194" type="line"/>
			<point x="96" y="0" type="line"/>
			<point x="164" y="0" type="line"/>
			<point x="161" y="199" type="line"/>
		</contour>
	</outline>
</glyph>
<glyph name="Q" format="2">
	<advance width="640"/>
	<unicode hex="0051"/>
	<anchor x="262" y="0" name="bottom"/>
	<anchor x="327" y="641" name="top"/>
	<outline>
		<contour>
			<point x="327" y="648" type="curve"/>
			<point x="141" y="648"/>
			<point x="37" y="529"/>
			<point x="37" y="315" type="curve" smooth="yes"/>
			<point x="37" y="109"/>
			<point x="134" y="-8"/>
			<point x="312" y="-8" type="curve" smooth="yes"/>
			<point x="495" y="-8"/>
			<point x="600" y="117"/>
			<point x="600" y="330" type="curve" smooth="yes"/>
			<point x="600" y="536"/>
			<point x="502" y="648"/>
		</contour>
		<contour>
			<point x="318" y="577" type="curve" smooth="yes"/>
			<point x="447" y="577"/>
			<point x="511" y="495"/>
			<point x="511" y="322" type="curve" smooth="yes"/>
			<point x="511" y="147"/>
			<point x="443" y="63"/>
			<point x="318" y="63" type="curve" smooth="yes"/>
			<point x="189" y="63"/>
			<point x="125" y="147"/>
			<point x="125" y="322" type="curve" smooth="yes"/>
			<point x="125" y="495"/>
			<point x="188" y="577"/>
		</contour>
		<contour>
			<point x="384" y="32" type="curve"/>
			<point x="323" y="3" type="line"/>
			<point x="396" y="-73"/>
			<point x="485" y="-133"/>
			<point x="597" y="-188" type="curve"/>
			<point x="605" y="-185" type="line"/>
			<point x="620" y="-170"/>
			<point x="633" y="-150"/>
			<point x="645" y="-125" type="curve"/>
			<point x="642" y="-115" type="line"/>
			<point x="532" y="-75"/>
			<point x="450" y="-28"/>
		</contour>
	</outline>
</glyph>
<glyph name="R" format="2">
	<advance width="547"/>
	<unicode hex="0052"/>
	<anchor x="274" y="0" name="bottom"/>
	<anchor x="274" y="640" name="top"/>
	<outline>
		<contour>
			<point x="281" y="641" type="curve"/>
			<point x="97" y="640" type="line"/>
			<point x="132" y="582" type="line"/>
			<point x="268" y="585" type="line"/>
			<point x="357" y="583"/>
			<point x="405" y="541"/>
			<point x="405" y="455" type="curve" smooth="yes"/>
			<point x="405" y="373"/>
			<point x="363" y="320"/>
			<point x="287" y="299" type="curve"/>
			<point x="123" y="302" type="line"/>
			<point x="123" y="244" type="line"/>
			<point x="290" y="244" type="line"/>
			<point x="406" y="272"/>
			<point x="474" y="353"/>
			<point x="474" y="460" type="curve" smooth="yes"/>
			<point x="474" y="577"/>
			<point x="404" y="641"/>
		</contour>
		<contour>
			<point x="165" y="640" type="line"/>
			<point x="96" y="640" type="line"/>
			<point x="101" y="194" type="line"/>
			<point x="96" y="0" type="line"/>
			<point x="164" y="0" type="line"/>
			<point x="161" y="199" type="line"/>
		</contour>
		<contour>
			<point x="327" y="281" type="curve"/>
			<point x="262" y="280" type="line"/>
			<point x="314" y="184"/>
			<point x="374" y="89"/>
			<point x="437" y="-3" type="curve"/>
			<point x="447" y="-8" type="line"/>
			<point x="468" y="-6"/>
			<point x="488" y="-1"/>
			<point x="507" y="7" type="curve"/>
			<point x="508" y="16" type="line"/>
			<point x="442" y="103"/>
			<point x="381" y="190"/>
		</contour>
	</outline>
</glyph>
<glyph name="S" format="2">
	<advance width="466"/>
	<unicode hex="0053"/>
	<anchor x="225" y="0" name="bottom"/>
	<anchor x="244" y="640" name="top"/>
	<outline>
		<contour>
			<point x="262" y="645" type="curve" smooth="yes"/>
			<point x="142" y="645"/>
			<point x="60" y="568"/>
			<point x="60" y="471" type="curve" smooth="yes"/>
			<point x="60" y="286"/>
			<point x="354" y="306"/>
			<point x="354" y="165" type="curve" smooth="yes"/>
			<point x="354" y="106"/>
			<point x="303" y="49"/>
			<point x="218" y="49" type="curve" smooth="yes"/>
			<point x="171" y="49"/>
			<point x="109" y="67"/>
			<point x="62" y="112" type="curve"/>
			<point x="52" y="108" type="line"/>
			<point x="44" y="39" type="line"/>
			<point x="95" y="9"/>
			<point x="158" y="-6"/>
			<point x="212" y="-6" type="curve" smooth="yes"/>
			<point x="337" y="-6"/>
			<point x="421" y="76"/>
			<point x="421" y="173" type="curve" smooth="yes"/>
			<point x="421" y="359"/>
			<point x="125" y="343"/>
			<point x="125" y="478" type="curve" smooth="yes"/>
			<point x="125" y="531"/>
			<point x="171" y="589"/>
			<point x="254" y="589" type="curve" smooth="yes"/>
			<point x="294" y="589"/>
			<point x="339" y="575"/>
			<point x="378" y="547" type="curve"/>
			<point x="390" y="551" type="line"/>
			<point x="401" y="615" type="line"/>
			<point x="348" y="637"/>
			<point x="299" y="645"/>
		</contour>
	</outline>
</glyph>
<glyph name="T" format="2">
	<advance width="486"/>
	<unicode hex="0054"/>
	<anchor x="238" y="0" name="bottom"/>
	<anchor x="247" y="320" name="center"/>
	<anchor x="247" y="640" name="top"/>
	<outline>
		<contour>
			<point x="279" y="630" type="line"/>
			<point x="210" y="630" type="line"/>
			<point x="214" y="194" type="line"/>
			<point x="210" y="0" type="line"/>
			<point x="278" y="0" type="line"/>
			<point x="275" y="199" type="line"/>
		</contour>
		<contour>
			<point x="459" y="640" type="line"/>
			<point x="29" y="640" type="line"/>
			<point x="23" y="588" type="line"/>
			<point x="28" y="581" type="line"/>
			<point x="140" y="586" type="line"/>
			<point x="349" y="586" type="line"/>
			<point x="459" y="581" type="line"/>
			<point x="464" y="633" type="line"/>
		</contour>
	</outline>
</glyph>
<glyph name="U" format="2">
	<advance width="623"/>
	<unicode hex="0055"/>
	<anchor x="309" y="0" name="bottom"/>
	<anchor x="451" y="32" name="ogonek"/>
	<anchor x="314" y="640" name="top"/>
	<outline>
		<contour>
			<point x="547" y="640" type="line"/>
			<point x="480" y="640" type="line"/>
			<point x="482" y="233" type="line" smooth="yes"/>
			<point x="483" y="114"/>
			<point x="423" y="53"/>
			<point x="311" y="53" type="curve" smooth="yes"/>
			<point x="198" y="53"/>
			<point x="139" y="117"/>
			<point x="140" y="241" type="curve" smooth="yes"/>
			<point x="143" y="640" type="line"/>
			<point x="77" y="640" type="line"/>
			<point x="77" y="321" type="line"/>
			<point x="77" y="233" type="line" smooth="yes"/>
			<point x="77" y="80"/>
			<point x="157" y="-6"/>
			<point x="306" y="-6" type="curve" smooth="yes"/>
			<point x="460" y="-6"/>
			<point x="548" y="84"/>
			<point x="545" y="240" type="curve"/>
			<point x="545" y="314" type="line"/>
		</contour>
	</outline>
</glyph>
<glyph name="V" format="2">
	<advance width="558"/>
	<unicode hex="0056"/>
	<anchor x="274" y="0" name="bottom"/>
	<anchor x="285" y="640" name="top"/>
	<outline>
		<contour>
			<point x="551" y="640" type="line"/>
			<point x="482" y="640" type="line"/>
			<point x="467" y="577" type="line"/>
			<point x="277" y="71" type="line"/>
			<point x="272" y="71" type="line"/>
			<point x="100" y="580" type="line"/>
			<point x="85" y="640" type="line"/>
			<point x="16" y="640" type="line"/>
			<point x="234" y="0" type="line"/>
			<point x="312" y="0" type="line"/>
		</contour>
	</outline>
</glyph>
<glyph name="W" format="2">
	<advance width="891"/>
	<unicode hex="0057"/>
	<anchor x="438" y="640" name="top"/>
	<outline>
		<contour>
			<point x="882" y="640" type="line"/>
			<point x="817" y="640" type="line"/>
			<point x="803" y="579" type="line"/>
			<point x="619" y="77" type="line"/>
			<point x="613" y="77" type="line"/>
			<point x="478" y="557" type="line"/>
			<point x="463" y="645" type="line"/>
			<point x="394" y="635" type="line"/>
			<point x="416" y="557" type="line"/>
			<point x="273" y="77" type="line"/>
			<point x="267" y="77" type="line"/>
			<point x="100" y="583" type="line"/>
			<point x="89" y="640" type="line"/>
			<point x="22" y="640" type="line"/>
			<point x="231" y="0" type="line"/>
			<point x="308" y="0" type="line"/>
			<point x="441" y="456" type="line"/>
			<point x="447" y="456" type="line"/>
			<point x="571" y="0" type="line"/>
			<point x="648" y="0" type="line"/>
		</contour>
	</outline>
</glyph>
<glyph name="X" format="2">
	<advance width="589"/>
	<unicode hex="0058"/>
	<anchor x="288" y="0" name="bottom"/>
	<anchor x="297" y="640" name="top"/>
	<outline>
		<contour>
			<point x="509" y="-41" type="line"/>
			<point x="574" y="-137"/>
			<point x="614" y="-188"/>
			<point x="749" y="-195" type="curve"/>
			<point x="773" y="-123" type="line"/>
			<point x="680" y="-122"/>
			<point x="631" y="-100"/>
			<point x="569" y="-9" type="curve" smooth="yes"/>
			<point x="405" y="231" type="line"/>
			<point x="337" y="333" type="line"/>
			<point x="541" y="640" type="line"/>
			<point x="467" y="640" type="line"/>
			<point x="442" y="592" type="line"/>
			<point x="296" y="377" type="line"/>
			<point x="149" y="593" type="line"/>
			<point x="124" y="640" type="line"/>
			<point x="41" y="640" type="line"/>
			<point x="252" y="325" type="line"/>
			<point x="32" y="0" type="line"/>
			<point x="105" y="0" type="line"/>
			<point x="130" y="45" type="line"/>
			<point x="291" y="280" type="line"/>
			<point x="349" y="196" type="line"/>
		</contour>
	</outline>
</glyph>
<glyph name="Y" format="2">
	<advance width="521"/>
	<unicode hex="0059"/>
	<anchor x="249" y="0" name="bottom"/>
	<anchor x="251" y="182" name="center"/>
	<anchor x="258" y="640" name="top"/>
	<outline>
		<contour>
			<point x="504" y="640" type="line"/>
			<point x="432" y="640" type="line"/>
			<point x="418" y="605" type="line"/>
			<point x="257" y="308" type="line"/>
			<point x="250" y="308" type="line"/>
			<point x="103" y="606" type="line"/>
			<point x="91" y="640" type="line"/>
			<point x="17" y="640" type="line"/>
			<point x="239" y="195" type="line"/>
			<point x="261" y="195" type="line"/>
		</contour>
		<contour>
			<point x="284" y="271" type="line"/>
			<point x="219" y="271" type="line"/>
			<point x="221" y="189" type="line"/>
			<point x="218" y="0" type="line"/>
			<point x="284" y="0" type="line"/>
			<point x="282" y="189" type="line"/>
		</contour>
	</outline>
</glyph>
<glyph name="Z" format="2">
	<advance width="523"/>
	<unicode hex="005A"/>
	<anchor x="262" y="0" name="bottom"/>
	<anchor x="262" y="640" name="top"/>
	<outline>
		<contour>
			<point x="481" y="641" type="line"/>
			<point x="434" y="640" type="line"/>
			<point x="151" y="640" type="line"/>
			<point x="50" y="641" type="line"/>
			<point x="45" y="584" type="line"/>
			<point x="49" y="578" type="line"/>
			<point x="137" y="584" type="line"/>
			<point x="400" y="584" type="line"/>
			<point x="31" y="48" type="line"/>
			<point x="31" y="-2" type="line"/>
			<point x="84" y="0" type="line"/>
			<point x="372" y="0" type="line"/>
			<point x="480" y="-1" type="line"/>
			<point x="486" y="55" type="line"/>
			<point x="482" y="61" type="line"/>
			<point x="392" y="55" type="line"/>
			<point x="113" y="55" type="line"/>
			<point x="481" y="590" type="line"/>
		</contour>
	</outline>
</glyph>
<glyph name="bracketleft" format="2">
	<advance width="287"/>
	<unicode hex="005B"/>
	<outline>
		<contour>
			<point x="274" y="647" type="line"/>
			<point x="102" y="637" type="line"/>
			<point x="105" y="258" type="line"/>
			<point x="102" y="-120" type="line"/>
			<point x="274" y="-130" type="line"/>
			<point x="278" y="-125" type="line"/>
			<point x="278" y="-92" type="line"/>
			<point x="158" y="-81" type="line"/>
			<point x="158" y="597" type="line"/>
			<point x="278" y="608" type="line"/>
			<point x="278" y="641" type="line"/>
		</contour>
	</outline>
</glyph>
<glyph name="backslash" format="2">
	<advance width="288"/>
	<unicode hex="005C"/>
	<outline>
		<contour>
			<point x="214" y="-112" type="line"/>
			<point x="260" y="-112" type="line"/>
			<point x="265" y="-105" type="line"/>
			<point x="61" y="677" type="line"/>
			<point x="15" y="677" type="line"/>
			<point x="9" y="669" type="line"/>
		</contour>
	</outline>
</glyph>
<glyph name="asciicircum" format="2">
	<advance width="487"/>
	<unicode hex="005E"/>
	<outline>
		<contour>
			<point x="285" y="590" type="line"/>
			<point x="215" y="590" type="line"/>
			<point x="206" y="585" type="line"/>
			<point x="50" y="229" type="line"/>
			<point x="99" y="210" type="line"/>
			<point x="107" y="215" type="line"/>
			<point x="245" y="527" type="line"/>
			<point x="251" y="527" type="line"/>
			<point x="381" y="213" type="line"/>
			<point x="430" y="225" type="line"/>
			<point x="436" y="233" type="line"/>
		</contour>
	</outline>
</glyph>
<glyph name="underscore" format="2">
	<advance width="451"/>
	<unicode hex="005F"/>
	<outline>
		<contour>
			<point x="461" y="-87" type="line"/>
			<point x="-11" y="-87" type="line"/>
			<point x="-15" y="-127" type="line"/>
			<point x="-10" y="-133" type="line"/>
			<point x="462" y="-133" type="line"/>
			<point x="466" y="-93" type="line"/>
		</contour>
	</outline>
</glyph>
<glyph name="a" format="2">
	<advance width="460"/>
	<unicode hex="0061"/>
	<anchor x="248" y="0" name="bottom"/>
	<anchor x="432" y="10" name="ogonek"/>
	<anchor x="234" y="459" name="top"/>
	<anchor x="426" y="459" name="topright"/>
	<outline>
		<contour>
			<point x="243" y="467" type="curve" smooth="yes"/>
			<point x="184" y="467"/>
			<point x="125" y="446"/>
			<point x="69" y="406" type="curve"/>
			<point x="80" y="344" type="line"/>
			<point x="88" y="340" type="line"/>
			<point x="140" y="385"/>
			<point x="184" y="406"/>
			<point x="230" y="406" type="curve" smooth="yes"/>
			<point x="278" y="406"/>
			<point x="307" y="379"/>
			<point x="307" y="327" type="curve"/>
			<point x="307" y="265" type="line"/>
			<point x="145" y="227" type="line" smooth="yes"/>
			<point x="85" y="213"/>
			<point x="51" y="181"/>
			<point x="51" y="119" type="curve" smooth="yes"/>
			<point x="51" y="42"/>
			<point x="104" y="-7"/>
			<point x="196" y="-7" type="curve"/>
			<point x="233" y="8"/>
			<point x="277" y="34"/>
			<point x="310" y="68" type="curve"/>
			<point x="317" y="68" type="line"/>
			<point x="333" y="25"/>
			<point x="340" y="8"/>
			<point x="354" y="-10" type="curve"/>
			<point x="432" y="10" type="line"/>
			<point x="419" y="25"/>
			<point x="408" y="39"/>
			<point x="399" y="55" type="curve" smooth="yes"/>
			<point x="390" y="71"/>
			<point x="384" y="93"/>
			<point x="384" y="121" type="curve" smooth="yes"/>
			<point x="384" y="157"/>
			<point x="385" y="310"/>
			<point x="385" y="346" type="curve" smooth="yes"/>
			<point x="386" y="422"/>
			<point x="329" y="467"/>
		</contour>
		<contour>
			<point x="309" y="211" type="line"/>
			<point x="309" y="132" type="line"/>
			<point x="273" y="89"/>
			<point x="231" y="63"/>
			<point x="192" y="63" type="curve" smooth="yes"/>
			<point x="153" y="63"/>
			<point x="127" y="88"/>
			<point x="127" y="131" type="curve" smooth="yes"/>
			<point x="127" y="159"/>
			<point x="138" y="170"/>
			<point x="162" y="176" type="curve" smooth="yes"/>
		</contour>
	</outline>
</glyph>
<glyph name="b" format="2">
	<advance width="515"/>
	<unicode hex="0062"/>
	<anchor x="255" y="0" name="bottom"/>
	<anchor x="323" y="459" name="top"/>
	<outline>
		<contour>
			<point x="292" y="464" type="curve"/>
			<point x="244" y="449"/>
			<point x="213" y="432"/>
			<point x="168" y="396" type="curve"/>
			<point x="152" y="396" type="line"/>
			<point x="152" y="316" type="line"/>
			<point x="202" y="371"/>
			<point x="242" y="394"/>
			<point x="284" y="394" type="curve" smooth="yes"/>
			<point x="351" y="394"/>
			<point x="388" y="335"/>
			<point x="390" y="234" type="curve" smooth="yes"/>
			<point x="392" y="111"/>
			<point x="338" y="53"/>
			<point x="257" y="53" type="curve" smooth="yes"/>
			<point x="207" y="53"/>
			<point x="155" y="81"/>
			<point x="98" y="141" type="curve"/>
			<point x="94" y="48" type="line"/>
			<point x="142" y="14"/>
			<point x="196" y="-8"/>
			<point x="250" y="-8" type="curve" smooth="yes"/>
			<point x="387" y="-8"/>
			<point x="470" y="82"/>
			<point x="470" y="244" type="curve" smooth="yes"/>
			<point x="470" y="381"/>
			<point x="410" y="464"/>
		</contour>
		<contour>
			<point x="165" y="702" type="line"/>
			<point x="75" y="695" type="line"/>
			<point x="81" y="622" type="line"/>
			<point x="86" y="192" type="line"/>
			<point x="79" y="56" type="line"/>
			<point x="94" y="48" type="line"/>
			<point x="164" y="20" type="line"/>
			<point x="159" y="202" type="line"/>
		</contour>
	</outline>
</glyph>
<glyph name="c" format="2">
	<advance width="424"/>
	<unicode hex="0063"/>
	<anchor x="239" y="0" name="bottom"/>
	<anchor x="245" y="230" name="center"/>
	<anchor x="241" y="459" name="top"/>
	<outline>
		<contour>
			<point x="257" y="406" type="curve" smooth="yes"/>
			<point x="293" y="406"/>
			<point x="329" y="393"/>
			<point x="360" y="374" type="curve"/>
			<point x="369" y="378" type="line"/>
			<point x="384" y="450" type="line"/>
			<point x="346" y="460"/>
			<point x="307" y="467"/>
			<point x="267" y="467" type="curve" smooth="yes"/>
			<point x="129" y="467"/>
			<point x="45" y="383"/>
			<point x="45" y="226" type="curve" smooth="yes"/>
			<point x="45" y="82"/>
			<point x="115" y="-8"/>
			<point x="248" y="-8" type="curve" smooth="yes"/>
			<point x="299" y="-8"/>
			<point x="347" y="15"/>
			<point x="380" y="37" type="curve"/>
			<point x="389" y="109" type="line"/>
			<point x="380" y="114" type="line"/>
			<point x="334" y="78"/>
			<point x="286" y="64"/>
			<point x="244" y="64" type="curve" smooth="yes"/>
			<point x="171" y="64"/>
			<point x="127" y="128"/>
			<point x="125" y="233" type="curve" smooth="yes"/>
			<point x="123" y="351"/>
			<point x="178" y="406"/>
		</contour>
	</outline>
</glyph>
<glyph name="d" format="2">
	<advance width="517"/>
	<unicode hex="0064"/>
	<anchor x="259" y="0" name="bottom"/>
	<anchor x="239" y="236" name="center"/>
	<anchor x="195" y="459" name="top"/>
	<anchor x="497" y="459" name="topright"/>
	<outline>
		<contour>
			<point x="252" y="407" type="curve" smooth="yes"/>
			<point x="283" y="407"/>
			<point x="314" y="398"/>
			<point x="348" y="382" type="curve"/>
			<point x="351" y="195" type="line"/>
			<point x="349" y="125" type="line"/>
			<point x="309" y="80"/>
			<point x="276" y="67"/>
			<point x="242" y="67" type="curve" smooth="yes"/>
			<point x="167" y="67"/>
			<point x="121" y="127"/>
			<point x="119" y="237" type="curve" smooth="yes"/>
			<point x="117" y="350"/>
			<point x="171" y="407"/>
		</contour>
		<contour>
			<point x="352" y="64" type="curve"/>
			<point x="361" y="64" type="line"/>
			<point x="377" y="21"/>
			<point x="382" y="8"/>
			<point x="396" y="-10" type="curve"/>
			<point x="474" y="10" type="line"/>
			<point x="461" y="25"/>
			<point x="450" y="39"/>
			<point x="441" y="55" type="curve" smooth="yes"/>
			<point x="432" y="71"/>
			<point x="425" y="93"/>
			<point x="425" y="121" type="curve" smooth="yes"/>
			<point x="424" y="202" type="line"/>
			<point x="435" y="702" type="line"/>
			<point x="350" y="695" type="line"/>
			<point x="348" y="458" type="line"/>
			<point x="319" y="464"/>
			<point x="290" y="467"/>
			<point x="262" y="467" type="curve" smooth="yes"/>
			<point x="123" y="467"/>
			<point x="39" y="381"/>
			<point x="39" y="229" type="curve" smooth="yes"/>
			<point x="39" y="80"/>
			<point x="111" y="-5"/>
			<point x="247" y="-5" type="curve"/>
			<point x="287" y="13"/>
			<point x="313" y="31"/>
		</contour>
	</outline>
</glyph>
<glyph name="e" format="2">
	<advance width="457"/>
	<unicode hex="0065"/>
	<anchor x="245" y="0" name="bottom"/>
	<anchor x="388" y="28" name="ogonek"/>
	<anchor x="236" y="457" name="top"/>
	<outline>
		<contour>
			<point x="249" y="-7" type="curve" smooth="yes"/>
			<point x="297" y="-7"/>
			<point x="344" y="5"/>
			<point x="388" y="28" type="curve"/>
			<point x="398" y="86" type="line"/>
			<point x="390" y="91" type="line"/>
			<point x="353" y="63"/>
			<point x="304" y="47"/>
			<point x="257" y="47" type="curve" smooth="yes"/>
			<point x="162" y="47"/>
			<point x="107" y="113"/>
			<point x="107" y="228" type="curve" smooth="yes"/>
			<point x="107" y="343"/>
			<point x="161" y="416"/>
			<point x="247" y="416" type="curve" smooth="yes"/>
			<point x="312" y="416"/>
			<point x="349" y="375"/>
			<point x="349" y="302" type="curve"/>
			<point x="347" y="286" type="line"/>
			<point x="95" y="282" type="line"/>
			<point x="94" y="236" type="line"/>
			<point x="398" y="238" type="line"/>
			<point x="407" y="247" type="line"/>
			<point x="426" y="383"/>
			<point x="366" y="464"/>
			<point x="248" y="464" type="curve" smooth="yes"/>
			<point x="124" y="464"/>
			<point x="45" y="371"/>
			<point x="45" y="225" type="curve" smooth="yes"/>
			<point x="45" y="81"/>
			<point x="122" y="-7"/>
		</contour>
	</outline>
</glyph>
<glyph name="f" format="2">
	<advance width="312"/>
	<unicode hex="0066"/>
	<anchor x="150" y="0" name="bottom"/>
	<anchor x="150" y="209" name="center"/>
	<anchor x="201" y="700" name="top"/>
	<outline>
		<contour>
			<point x="248" y="707" type="curve" smooth="yes"/>
			<point x="141" y="707"/>
			<point x="109" y="644"/>
			<point x="110" y="535" type="curve" smooth="yes"/>
			<point x="113" y="195" type="line"/>
			<point x="107" y="0" type="line"/>
			<point x="192" y="0" type="line"/>
			<point x="186" y="202" type="line"/>
			<point x="191" y="548" type="line" smooth="yes"/>
			<point x="192" y="611"/>
			<point x="200" y="639"/>
			<point x="241" y="639" type="curve" smooth="yes"/>
			<point x="254" y="639"/>
			<point x="273" y="636"/>
			<point x="302" y="622" type="curve"/>
			<point x="308" y="627" type="line"/>
			<point x="320" y="697" type="line"/>
			<point x="292" y="703"/>
			<point x="263" y="707"/>
		</contour>
		<contour>
			<point x="299" y="457" type="line"/>
			<point x="43" y="457" type="line"/>
			<point x="38" y="407" type="line"/>
			<point x="42" y="401" type="line"/>
			<point x="297" y="401" type="line"/>
			<point x="302" y="451" type="line"/>
		</contour>
	</outline>
</glyph>
<glyph name="g" format="2">
	<advance width="483"/>
	<unicode hex="0067"/>
	<anchor x="243" y="447" name="top"/>
	<outline>
		<contour>
			<point x="419" y="18" type="curve" smooth="yes"/>
			<point x="417" y="194" type="line"/>
			<point x="422" y="437" type="line"/>
			<point x="381" y="447" type="line"/>
			<point x="344" y="457"/>
			<point x="303" y="464"/>
			<point x="263" y="464" type="curve" smooth="yes"/>
			<point x="128" y="464"/>
			<point x="45" y="379"/>
			<point x="45" y="224" type="curve" smooth="yes"/>
			<point x="45" y="80"/>
			<point x="115" y="-5"/>
			<point x="240" y="-5" type="curve" smooth="yes"/>
			<point x="286" y="7"/>
			<point x="316" y="25"/>
			<point x="352" y="58" type="curve"/>
			<point x="359" y="58" type="line"/>
			<point x="359" y="14" type="line" smooth="yes"/>
			<point x="359" y="-93"/>
			<point x="355" y="-133"/>
			<point x="252" y="-133" type="curve" smooth="yes"/>
			<point x="229" y="-133"/>
			<point x="165" y="-131"/>
			<point x="112" y="-98" type="curve"/>
			<point x="102" y="-102" type="line"/>
			<point x="86" y="-157" type="line"/>
			<point x="144" y="-195"/>
			<point x="226" y="-193"/>
			<point x="257" y="-193" type="curve" smooth="yes"/>
			<point x="405" y="-193"/>
			<point x="420" y="-105"/>
		</contour>
		<contour>
			<point x="257" y="415" type="curve" smooth="yes"/>
			<point x="289" y="415"/>
			<point x="321" y="407"/>
			<point x="357" y="390" type="curve"/>
			<point x="360" y="188" type="line"/>
			<point x="359" y="118" type="line"/>
			<point x="316" y="70"/>
			<point x="278" y="52"/>
			<point x="237" y="52" type="curve" smooth="yes"/>
			<point x="159" y="52"/>
			<point x="110" y="117"/>
			<point x="108" y="229" type="curve" smooth="yes"/>
			<point x="107" y="353"/>
			<point x="166" y="415"/>
		</contour>
	</outline>
</glyph>
<glyph name="h" format="2">
	<advance width="522"/>
	<unicode hex="0068"/>
	<anchor x="258" y="0" name="bottom"/>
	<anchor x="258" y="230" name="center"/>
	<anchor x="320" y="459" name="top"/>
	<anchor x="444" y="457" name="topright"/>
	<outline>
		<contour>
			<point x="291" y="465" type="curve"/>
			<point x="252" y="454"/>
			<point x="208" y="430"/>
			<point x="167" y="395" type="curve"/>
			<point x="151" y="395" type="line"/>
			<point x="151" y="316" type="line"/>
			<point x="197" y="365"/>
			<point x="245" y="394"/>
			<point x="293" y="394" type="curve" smooth="yes"/>
			<point x="344" y="394"/>
			<point x="369" y="361"/>
			<point x="368" y="310" type="curve" smooth="yes"/>
			<point x="362" y="0" type="line"/>
			<point x="448" y="0" type="line"/>
			<point x="444" y="200" type="line"/>
			<point x="446" y="330" type="line"/>
			<point x="447" y="416"/>
			<point x="394" y="465"/>
		</contour>
		<contour>
			<point x="165" y="702" type="line"/>
			<point x="75" y="695" type="line"/>
			<point x="81" y="621" type="line"/>
			<point x="85" y="195" type="line"/>
			<point x="79" y="0" type="line"/>
			<point x="164" y="0" type="line"/>
			<point x="158" y="202" type="line"/>
		</contour>
	</outline>
</glyph>
<glyph name="j" format="2">
	<advance width="214"/>
	<unicode hex="006A"/>
	<anchor x="107" y="457" name="top"/>
	<outline>
		<contour>
			<point x="77" y="23" type="line"/>
			<point x="76" y="-111"/>
			<point x="167" y="-172"/>
			<point x="301" y="-191" type="curve"/>
			<point x="308" y="-191" type="line"/>
			<point x="320" y="-179"/>
			<point x="328" y="-166"/>
			<point x="335" y="-152" type="curve"/>
			<point x="334" y="-143" type="line"/>
			<point x="223" y="-133"/>
			<point x="138" y="-86"/>
			<point x="137" y="10" type="curve" smooth="yes"/>
			<point x="136" y="200" type="line"/>
			<point x="141" y="457" type="line"/>
			<point x="138" y="459" type="line"/>
			<point x="74" y="456" type="line"/>
			<point x="75" y="410" type="line"/>
			<point x="78" y="195" type="line"/>
		</contour>
	</outline>
</glyph>
<glyph name="k" format="2">
	<advance width="433"/>
	<unicode hex="006B"/>
	<anchor x="234" y="0" name="bottom"/>
	<anchor x="106" y="645" name="top"/>
	<anchor x="209" y="457" name="topright"/>
	<outline>
		<contour>
			<point x="225" y="247" type="curve"/>
			<point x="411" y="457" type="line"/>
			<point x="335" y="457" type="line"/>
			<point x="308" y="417" type="line"/>
			<point x="157" y="247" type="line"/>
			<point x="157" y="240" type="line"/>
			<point x="219" y="155"/>
			<point x="287" y="73"/>
			<point x="357" y="-5" type="curve"/>
			<point x="365" y="-8" type="line"/>
			<point x="385" y="-5"/>
			<point x="406" y="-2"/>
			<point x="424" y="4" type="curve"/>
			<point x="424" y="12" type="line"/>
			<point x="357" y="87"/>
			<point x="288" y="166"/>
		</contour>
		<contour>
			<point x="141" y="702" type="line"/>
			<point x="74" y="696" type="line"/>
			<point x="78" y="195" type="line"/>
			<point x="74" y="0" type="line"/>
			<point x="140" y="0" type="line"/>
			<point x="136" y="200" type="line"/>
		</contour>
	</outline>
</glyph>
<glyph name="l" format="2">
	<advance width="240"/>
	<unicode hex="006C"/>
	<anchor x="122" y="0" name="bottom"/>
	<anchor x="122" y="350" name="center"/>
	<anchor x="121" y="680" name="top"/>
	<anchor x="226" y="459" name="topright"/>
	<outline>
		<contour>
			<point x="165" y="702" type="line"/>
			<point x="75" y="695" type="line"/>
			<point x="81" y="618" type="line"/>
			<point x="85" y="195" type="line"/>
			<point x="79" y="0" type="line"/>
			<point x="164" y="0" type="line"/>
			<point x="158" y="202" type="line"/>
		</contour>
	</outline>
</glyph>
<glyph name="m" format="2">
	<advance width="786"/>
	<unicode hex="006D"/>
	<anchor x="388" y="0" name="bottom"/>
	<anchor x="388" y="457" name="top"/>
	<outline>
		<contour>
			<point x="562" y="463" type="curve" smooth="yes"/>
			<point x="518" y="454"/>
			<point x="467" y="427"/>
			<point x="422" y="384" type="curve"/>
			<point x="406" y="384" type="line"/>
			<point x="417" y="324" type="line"/>
			<point x="464" y="376"/>
			<point x="515" y="406"/>
			<point x="564" y="406" type="curve" smooth="yes"/>
			<point x="620" y="406"/>
			<point x="649" y="370"/>
			<point x="649" y="313" type="curve" smooth="yes"/>
			<point x="644" y="0" type="line"/>
			<point x="711" y="0" type="line"/>
			<point x="709" y="198" type="line"/>
			<point x="710" y="327" type="line" smooth="yes"/>
			<point x="711" y="413"/>
			<point x="660" y="463"/>
		</contour>
		<contour>
			<point x="139" y="459" type="line"/>
			<point x="75" y="452" type="line"/>
			<point x="78" y="195" type="line"/>
			<point x="74" y="0" type="line"/>
			<point x="141" y="0" type="line"/>
			<point x="137" y="200" type="line"/>
		</contour>
		<contour>
			<point x="277" y="463" type="curve" smooth="yes"/>
			<point x="235" y="455"/>
			<point x="188" y="429"/>
			<point x="144" y="389" type="curve"/>
			<point x="131" y="389" type="line"/>
			<point x="131" y="323" type="line"/>
			<point x="179" y="375"/>
			<point x="229" y="406"/>
			<point x="279" y="406" type="curve" smooth="yes"/>
			<point x="335" y="406"/>
			<point x="364" y="370"/>
			<point x="364" y="313" type="curve" smooth="yes"/>
			<point x="359" y="0" type="line"/>
			<point x="426" y="0" type="line"/>
			<point x="424" y="198" type="line"/>
			<point x="425" y="327" type="line" smooth="yes"/>
			<point x="426" y="413"/>
			<point x="374" y="463"/>
		</contour>
	</outline>
</glyph>
<glyph name="n" format="2">
	<advance width="517"/>
	<unicode hex="006E"/>
	<anchor x="257" y="0" name="bottom"/>
	<anchor x="270" y="459" name="top"/>
	<outline>
		<contour>
			<point x="286" y="465" type="curve"/>
			<point x="247" y="454"/>
			<point x="203" y="430"/>
			<point x="162" y="395" type="curve"/>
			<point x="146" y="395" type="line"/>
			<point x="146" y="316" type="line"/>
			<point x="192" y="365"/>
			<point x="240" y="394"/>
			<point x="288" y="394" type="curve" smooth="yes"/>
			<point x="339" y="394"/>
			<point x="364" y="361"/>
			<point x="363" y="310" type="curve" smooth="yes"/>
			<point x="357" y="0" type="line"/>
			<point x="443" y="0" type="line"/>
			<point x="439" y="200" type="line"/>
			<point x="441" y="330" type="line"/>
			<point x="442" y="416"/>
			<point x="389" y="465"/>
		</contour>
		<contour>
			<point x="156" y="461" type="line"/>
			<point x="75" y="453" type="line"/>
			<point x="79" y="194" type="line"/>
			<point x="74" y="0" type="line"/>
			<point x="159" y="0" type="line"/>
			<point x="154" y="201" type="line"/>
		</contour>
	</outline>
</glyph>
<glyph name="o" format="2">
	<advance width="498"/>
	<unicode hex="006F"/>
	<anchor x="250" y="0" name="bottom"/>
	<anchor x="250" y="230" name="center"/>
	<anchor x="364" y="32" name="ogonek"/>
	<anchor x="250" y="459" name="top"/>
	<anchor x="455" y="459" name="topright"/>
	<outline>
		<contour>
			<point x="255" y="467" type="curve" smooth="yes"/>
			<point x="121" y="467"/>
			<point x="45" y="378"/>
			<point x="45" y="223" type="curve" smooth="yes"/>
			<point x="45" y="76"/>
			<point x="117" y="-8"/>
			<point x="243" y="-8" type="curve" smooth="yes"/>
			<point x="377" y="-8"/>
			<point x="453" y="81"/>
			<point x="453" y="236" type="curve" smooth="yes"/>
			<point x="453" y="383"/>
			<point x="381" y="467"/>
		</contour>
		<contour>
			<point x="250" y="407" type="curve" smooth="yes"/>
			<point x="330" y="407"/>
			<point x="373" y="343"/>
			<point x="373" y="216" type="curve" smooth="yes"/>
			<point x="373" y="106"/>
			<point x="330" y="52"/>
			<point x="248" y="52" type="curve" smooth="yes"/>
			<point x="168" y="52"/>
			<point x="125" y="114"/>
			<point x="125" y="243" type="curve" smooth="yes"/>
			<point x="125" y="350"/>
			<point x="168" y="407"/>
		</contour>
	</outline>
</glyph>
<glyph name="p" format="2">
	<advance width="497"/>
	<unicode hex="0070"/>
	<anchor x="243" y="0" name="bottom"/>
	<anchor x="243" y="457" name="top"/>
	<outline>
		<contour>
			<point x="275" y="462" type="curve" smooth="yes"/>
			<point x="225" y="452"/>
			<point x="188" y="432"/>
			<point x="144" y="393" type="curve"/>
			<point x="126" y="393" type="line"/>
			<point x="129" y="323" type="line"/>
			<point x="176" y="379"/>
			<point x="221" y="406"/>
			<point x="269" y="406" type="curve" smooth="yes"/>
			<point x="343" y="406"/>
			<point x="386" y="345"/>
			<point x="387" y="235" type="curve" smooth="yes"/>
			<point x="389" y="112"/>
			<point x="334" y="42"/>
			<point x="237" y="42" type="curve" smooth="yes"/>
			<point x="192" y="42"/>
			<point x="143" y="59"/>
			<point x="89" y="95" type="curve"/>
			<point x="84" y="16" type="line"/>
			<point x="130" y="1"/>
			<point x="183" y="-7"/>
			<point x="229" y="-7" type="curve" smooth="yes"/>
			<point x="370" y="-7"/>
			<point x="450" y="83"/>
			<point x="450" y="242" type="curve" smooth="yes"/>
			<point x="450" y="383"/>
			<point x="387" y="462"/>
		</contour>
		<contour>
			<point x="139" y="459" type="line"/>
			<point x="74" y="452" type="line"/>
			<point x="79" y="195" type="line"/>
			<point x="74" y="-185" type="line"/>
			<point x="140" y="-185" type="line"/>
			<point x="136" y="200" type="line"/>
		</contour>
	</outline>
</glyph>
<glyph name="q" format="2">
	<advance width="483"/>
	<unicode hex="0071"/>
	<anchor x="231" y="0" name="bottom"/>
	<anchor x="256" y="457" name="top"/>
	<outline>
		<contour>
			<point x="257" y="415" type="curve" smooth="yes"/>
			<point x="289" y="415"/>
			<point x="321" y="407"/>
			<point x="357" y="390" type="curve"/>
			<point x="360" y="188" type="line"/>
			<point x="359" y="118" type="line"/>
			<point x="316" y="70"/>
			<point x="278" y="52"/>
			<point x="237" y="52" type="curve" smooth="yes"/>
			<point x="159" y="52"/>
			<point x="110" y="117"/>
			<point x="108" y="229" type="curve" smooth="yes"/>
			<point x="107" y="353"/>
			<point x="166" y="415"/>
		</contour>
		<contour>
			<point x="359" y="53" type="line"/>
			<point x="359" y="-81"/>
			<point x="449" y="-172"/>
			<point x="583" y="-191" type="curve"/>
			<point x="590" y="-191" type="line"/>
			<point x="602" y="-179"/>
			<point x="610" y="-166"/>
			<point x="617" y="-152" type="curve"/>
			<point x="616" y="-143" type="line"/>
			<point x="505" y="-133"/>
			<point x="420" y="-56"/>
			<point x="419" y="40" type="curve" smooth="yes"/>
			<point x="417" y="194" type="line"/>
			<point x="422" y="437" type="line"/>
			<point x="381" y="447" type="line"/>
			<point x="344" y="457"/>
			<point x="303" y="464"/>
			<point x="263" y="464" type="curve" smooth="yes"/>
			<point x="128" y="464"/>
			<point x="45" y="379"/>
			<point x="45" y="224" type="curve" smooth="yes"/>
			<point x="45" y="80"/>
			<point x="115" y="-5"/>
			<point x="240" y="-5" type="curve" smooth="yes"/>
			<point x="286" y="7"/>
			<point x="316" y="25"/>
			<point x="352" y="58" type="curve"/>
			<point x="359" y="58" type="line"/>
		</contour>
	</outline>
</glyph>
<glyph name="r" format="2">
	<advance width="340"/>
	<unicode hex="0072"/>
	<anchor x="134" y="0" name="bottom"/>
	<anchor x="197" y="459" name="top"/>
	<outline>
		<contour>
			<point x="161" y="461" type="line"/>
			<point x="80" y="453" type="line"/>
			<point x="85" y="194" type="line"/>
			<point x="79" y="0" type="line"/>
			<point x="164" y="0" type="line"/>
			<point x="158" y="201" type="line"/>
		</contour>
		<contour>
			<point x="294" y="460" type="curve" smooth="yes"/>
			<point x="256" y="460"/>
			<point x="207" y="440"/>
			<point x="166" y="368" type="curve"/>
			<point x="152" y="368" type="line"/>
			<point x="152" y="252" type="line"/>
			<point x="190" y="342"/>
			<point x="227" y="377"/>
			<point x="273" y="377" type="curve" smooth="yes"/>
			<point x="281" y="377"/>
			<point x="296" y="376"/>
			<point x="310" y="372" type="curve"/>
			<point x="320" y="375" type="line"/>
			<point x="320" y="458" type="line"/>
			<point x="313" y="459"/>
			<point x="303" y="460"/>
		</contour>
	</outline>
</glyph>
<glyph name="s" format="2">
	<advance width="390"/>
	<unicode hex="0073"/>
	<anchor x="189" y="0" name="bottom"/>
	<anchor x="199" y="459" name="top"/>
	<outline>
		<contour>
			<point x="220" y="466" type="curve" smooth="yes"/>
			<point x="119" y="466"/>
			<point x="60" y="409"/>
			<point x="60" y="332" type="curve" smooth="yes"/>
			<point x="60" y="189"/>
			<point x="267" y="208"/>
			<point x="267" y="118" type="curve" smooth="yes"/>
			<point x="267" y="85"/>
			<point x="238" y="52"/>
			<point x="188" y="52" type="curve" smooth="yes"/>
			<point x="151" y="52"/>
			<point x="103" y="70"/>
			<point x="65" y="104" type="curve"/>
			<point x="55" y="98" type="line"/>
			<point x="45" y="24" type="line"/>
			<point x="88" y="3"/>
			<point x="136" y="-8"/>
			<point x="180" y="-8" type="curve" smooth="yes"/>
			<point x="288" y="-8"/>
			<point x="345" y="60"/>
			<point x="345" y="133" type="curve" smooth="yes"/>
			<point x="345" y="272"/>
			<point x="138" y="253"/>
			<point x="138" y="343" type="curve" smooth="yes"/>
			<point x="138" y="375"/>
			<point x="165" y="405"/>
			<point x="210" y="405" type="curve" smooth="yes"/>
			<point x="242" y="405"/>
			<point x="274" y="394"/>
			<point x="308" y="371" type="curve"/>
			<point x="320" y="374" type="line"/>
			<point x="332" y="444" type="line"/>
			<point x="296" y="459"/>
			<point x="256" y="466"/>
		</contour>
	</outline>
</glyph>
<glyph name="t" format="2">
	<advance width="354"/>
	<unicode hex="0074"/>
	<anchor x="223" y="0" name="bottom"/>
	<anchor x="172" y="242" name="center"/>
	<anchor x="182" y="550" name="top"/>
	<anchor x="312" y="459" name="topright"/>
	<outline>
		<contour>
			<point x="208" y="-6" type="curve"/>
			<point x="253" y="-3"/>
			<point x="292" y="6"/>
			<point x="330" y="23" type="curve"/>
			<point x="338" y="79" type="line"/>
			<point x="329" y="85" type="line"/>
			<point x="300" y="70"/>
			<point x="268" y="65"/>
			<point x="247" y="65" type="curve" smooth="yes"/>
			<point x="204" y="65"/>
			<point x="174" y="82"/>
			<point x="175" y="135" type="curve" smooth="yes"/>
			<point x="183" y="553" type="line"/>
			<point x="175" y="560" type="line"/>
			<point x="101" y="528" type="line"/>
			<point x="103" y="194" type="line"/>
			<point x="99" y="127" type="line"/>
			<point x="99" y="48"/>
			<point x="130" y="10"/>
		</contour>
		<contour>
			<point x="39" y="399" type="line"/>
			<point x="314" y="399" type="line"/>
			<point x="319" y="453" type="line"/>
			<point x="315" y="459" type="line"/>
			<point x="40" y="459" type="line"/>
			<point x="35" y="405" type="line"/>
		</contour>
	</outline>
</glyph>
<glyph name="u" format="2">
	<advance width="484"/>
	<unicode hex="0075"/>
	<anchor x="257" y="0" name="bottom"/>
	<anchor x="434" y="5" name="ogonek"/>
	<anchor x="253" y="457" name="top"/>
	<outline>
		<contour>
			<point x="219" y="-5" type="curve" smooth="yes"/>
			<point x="262" y="2"/>
			<point x="307" y="26"/>
			<point x="350" y="67" type="curve"/>
			<point x="370" y="67" type="line"/>
			<point x="362" y="130" type="line"/>
			<point x="316" y="79"/>
			<point x="265" y="51"/>
			<point x="218" y="51" type="curve" smooth="yes"/>
			<point x="164" y="51"/>
			<point x="136" y="87"/>
			<point x="137" y="144" type="curve" smooth="yes"/>
			<point x="141" y="459" type="line"/>
			<point x="74" y="452" type="line"/>
			<point x="77" y="248" type="line"/>
			<point x="75" y="130" type="line" smooth="yes"/>
			<point x="74" y="44"/>
			<point x="124" y="-5"/>
		</contour>
		<contour>
			<point x="410" y="93" type="curve" smooth="yes"/>
			<point x="414" y="459" type="line"/>
			<point x="351" y="452" type="line"/>
			<point x="351" y="104" type="line" smooth="yes"/>
			<point x="351" y="88"/>
			<point x="351" y="75"/>
			<point x="353" y="61" type="curve" smooth="yes"/>
			<point x="358" y="30"/>
			<point x="365" y="14"/>
			<point x="372" y="-5" type="curve"/>
			<point x="434" y="5" type="line"/>
			<point x="424" y="21"/>
			<point x="410" y="62"/>
		</contour>
	</outline>
</glyph>
<glyph name="v" format="2">
	<advance width="415"/>
	<unicode hex="0076"/>
	<anchor x="203" y="0" name="bottom"/>
	<anchor x="211" y="457" name="top"/>
	<outline>
		<contour>
			<point x="82" y="460" type="line"/>
			<point x="20" y="455" type="line"/>
			<point x="164" y="0" type="line"/>
			<point x="236" y="0" type="line"/>
			<point x="407" y="457" type="line"/>
			<point x="346" y="457" type="line"/>
			<point x="330" y="399" type="line"/>
			<point x="206" y="69" type="line"/>
			<point x="201" y="69" type="line"/>
			<point x="95" y="402" type="line"/>
		</contour>
	</outline>
</glyph>
<glyph name="w" format="2">
	<advance width="700"/>
	<unicode hex="0077"/>
	<anchor x="344" y="0" name="bottom"/>
	<anchor x="348" y="459" name="top"/>
	<outline>
		<contour>
			<point x="103" y="462" type="line"/>
			<point x="25" y="457" type="line"/>
			<point x="152" y="0" type="line"/>
			<point x="236" y="0" type="line"/>
			<point x="344" y="349" type="line"/>
			<point x="351" y="349" type="line"/>
			<point x="444" y="0" type="line"/>
			<point x="525" y="0" type="line"/>
			<point x="675" y="459" type="line"/>
			<point x="601" y="459" type="line"/>
			<point x="586" y="397" type="line"/>
			<point x="492" y="91" type="line"/>
			<point x="486" y="91" type="line"/>
			<point x="405" y="401" type="line"/>
			<point x="394" y="459" type="line"/>
			<point x="311" y="459" type="line"/>
			<point x="295" y="397" type="line"/>
			<point x="201" y="91" type="line"/>
			<point x="195" y="91" type="line"/>
			<point x="114" y="401" type="line"/>
		</contour>
	</outline>
</glyph>
<glyph name="x" format="2">
	<advance width="430"/>
	<unicode hex="0078"/>
	<anchor x="213" y="0" name="bottom"/>
	<anchor x="219" y="457" name="top"/>
	<outline>
		<contour>
			<point x="361" y="-41" type="line"/>
			<point x="421" y="-137"/>
			<point x="478" y="-188"/>
			<point x="613" y="-195" type="curve"/>
			<point x="632" y="-137" type="line"/>
			<point x="539" y="-136"/>
			<point x="482" y="-120"/>
			<point x="422" y="-29" type="curve" smooth="yes"/>
			<point x="252" y="231" type="line"/>
			<point x="399" y="457" type="line"/>
			<point x="335" y="457" type="line"/>
			<point x="313" y="417" type="line"/>
			<point x="219" y="272" type="line"/>
			<point x="118" y="419" type="line"/>
			<point x="99" y="460" type="line"/>
			<point x="28" y="454" type="line"/>
			<point x="175" y="233" type="line"/>
			<point x="24" y="0" type="line"/>
			<point x="88" y="0" type="line"/>
			<point x="108" y="37" type="line"/>
			<point x="213" y="196" type="line"/>
		</contour>
	</outline>
</glyph>
<glyph name="y" format="2">
	<advance width="422"/>
	<unicode hex="0079"/>
	<anchor x="214" y="457" name="top"/>
	<outline>
		<contour>
			<point x="74" y="460" type="line"/>
			<point x="11" y="455" type="line"/>
			<point x="179" y="0" type="line"/>
			<point x="134" y="-96"/>
			<point x="126" y="-118"/>
			<point x="106" y="-152" type="curve"/>
			<point x="105" y="-161" type="line"/>
			<point x="115" y="-171"/>
			<point x="140" y="-191"/>
			<point x="152" y="-200" type="curve"/>
			<point x="159" y="-200" type="line"/>
			<point x="177" y="-147"/>
			<point x="192" y="-121"/>
			<point x="242" y="13" type="curve" smooth="yes"/>
			<point x="409" y="457" type="line"/>
			<point x="349" y="457" type="line"/>
			<point x="333" y="398" type="line"/>
			<point x="213" y="75" type="line"/>
			<point x="206" y="75" type="line"/>
			<point x="89" y="403" type="line"/>
		</contour>
	</outline>
</glyph>
<glyph name="z" format="2">
	<advance width="409"/>
	<unicode hex="007A"/>
	<anchor x="205" y="0" name="bottom"/>
	<anchor x="205" y="457" name="top"/>
	<outline>
		<contour>
			<point x="49" y="459" type="line"/>
			<point x="42" y="409" type="line"/>
			<point x="48" y="403" type="line"/>
			<point x="114" y="409" type="line"/>
			<point x="298" y="409" type="line"/>
			<point x="34" y="40" type="line"/>
			<point x="34" y="-2" type="line"/>
			<point x="76" y="0" type="line"/>
			<point x="284" y="0" type="line"/>
			<point x="369" y="-2" type="line"/>
			<point x="375" y="48" type="line"/>
			<point x="370" y="54" type="line"/>
			<point x="300" y="48" type="line"/>
			<point x="107" y="48" type="line"/>
			<point x="371" y="416" type="line"/>
			<point x="369" y="458" type="line"/>
			<point x="333" y="457" type="line"/>
			<point x="124" y="457" type="line"/>
		</contour>
	</outline>
</glyph>
<glyph name="braceleft" format="2">
	<advance width="287"/>
	<unicode hex="007B"/>
	<outline>
		<contour>
			<point x="222" y="654" type="curve" smooth="yes"/>
			<point x="149" y="654"/>
			<point x="111" y="616"/>
			<point x="111" y="543" type="curve" smooth="yes"/>
			<point x="111" y="485"/>
			<point x="131" y="410"/>
			<point x="131" y="366" type="curve" smooth="yes"/>
			<point x="131" y="316"/>
			<point x="105" y="287"/>
			<point x="47" y="277" type="curve"/>
			<point x="47" y="241" type="line"/>
			<point x="105" y="232"/>
			<point x="131" y="203"/>
			<point x="131" y="153" type="curve" smooth="yes"/>
			<point x="131" y="108"/>
			<point x="111" y="34"/>
			<point x="111" y="-24" type="curve" smooth="yes"/>
			<point x="111" y="-97"/>
			<point x="149" y="-136"/>
			<point x="222" y="-136" type="curve" smooth="yes"/>
			<point x="240" y="-136"/>
			<point x="255" y="-134"/>
			<point x="270" y="-129" type="curve"/>
			<point x="274" y="-123" type="line"/>
			<point x="267" y="-86" type="line"/>
			<point x="252" y="-89"/>
			<point x="242" y="-91"/>
			<point x="229" y="-91" type="curve" smooth="yes"/>
			<point x="186" y="-91"/>
			<point x="165" y="-67"/>
			<point x="165" y="-14" type="curve" smooth="yes"/>
			<point x="165" y="37"/>
			<point x="186" y="109"/>
			<point x="186" y="155" type="curve" smooth="yes"/>
			<point x="186" y="204"/>
			<point x="163" y="239"/>
			<point x="119" y="258" type="curve"/>
			<point x="119" y="261" type="line"/>
			<point x="163" y="280"/>
			<point x="186" y="314"/>
			<point x="186" y="364" type="curve" smooth="yes"/>
			<point x="186" y="410"/>
			<point x="165" y="483"/>
			<point x="165" y="533" type="curve" smooth="yes"/>
			<point x="165" y="586"/>
			<point x="186" y="609"/>
			<point x="229" y="609" type="curve" smooth="yes"/>
			<point x="242" y="609"/>
			<point x="252" y="607"/>
			<point x="267" y="604" type="curve"/>
			<point x="274" y="642" type="line"/>
			<point x="270" y="648" type="line"/>
			<point x="255" y="652"/>
			<point x="240" y="654"/>
		</contour>
	</outline>
</glyph>
<glyph name="bar" format="2">
	<advance width="313"/>
	<unicode hex="007C"/>
	<outline>
		<contour>
			<point x="190" y="712" type="line"/>
			<point x="124" y="712" type="line"/>
			<point x="123" y="283" type="line"/>
			<point x="123" y="-200" type="line"/>
			<point x="189" y="-200" type="line"/>
			<point x="189" y="288" type="line"/>
		</contour>
	</outline>
</glyph>
<glyph name="cent" format="2">
	<advance width="383"/>
	<unicode hex="00A2"/>
	<outline>
		<contour>
			<point x="234" y="506" type="curve" smooth="yes"/>
			<point x="116" y="506"/>
			<point x="42" y="414"/>
			<point x="42" y="267" type="curve" smooth="yes"/>
			<point x="42" y="127"/>
			<point x="113" y="37"/>
			<point x="226" y="37" type="curve" smooth="yes"/>
			<point x="275" y="37"/>
			<point x="323" y="53"/>
			<point x="358" y="75" type="curve"/>
			<point x="364" y="117" type="line"/>
			<point x="356" y="120" type="line"/>
			<point x="322" y="98"/>
			<point x="277" y="84"/>
			<point x="237" y="84" type="curve" smooth="yes"/>
			<point x="148" y="84"/>
			<point x="95" y="155"/>
			<point x="95" y="271" type="curve" smooth="yes"/>
			<point x="95" y="387"/>
			<point x="149" y="459"/>
			<point x="234" y="459" type="curve" smooth="yes"/>
			<point x="273" y="459"/>
			<point x="314" y="444"/>
			<point x="342" y="425" type="curve"/>
			<point x="350" y="425" type="line"/>
			<point x="361" y="469" type="line"/>
			<point x="328" y="491"/>
			<point x="280" y="506"/>
		</contour>
		<contour>
			<point x="228" y="63" type="line"/>
			<point x="186" y="63" type="line"/>
			<point x="172" y="-111" type="line"/>
			<point x="179" y="-118" type="line"/>
			<point x="213" y="-118" type="line"/>
		</contour>
		<contour>
			<point x="262" y="480" type="line"/>
			<point x="219" y="480" type="line"/>
			<point x="186" y="63" type="line"/>
			<point x="228" y="63" type="line"/>
		</contour>
		<contour>
			<point x="267" y="651" type="line"/>
			<point x="232" y="651" type="line"/>
			<point x="219" y="480" type="line"/>
			<point x="261" y="480" type="line"/>
			<point x="274" y="644" type="line"/>
		</contour>
	</outline>
</glyph>
<glyph name="yen" format="2">
	<advance width="471"/>
	<unicode hex="00A5"/>
	<anchor x="245" y="497" name="top"/>
	<outline>
		<contour>
			<point x="450" y="159" type="line"/>
			<point x="23" y="159" type="line"/>
			<point x="20" y="127" type="line"/>
			<point x="24" y="123" type="line"/>
			<point x="451" y="123" type="line"/>
			<point x="454" y="154" type="line"/>
		</contour>
		<contour>
			<point x="182" y="291" type="line"/>
			<point x="23" y="291" type="line"/>
			<point x="20" y="260" type="line"/>
			<point x="24" y="255" type="line"/>
			<point x="191" y="255" type="line"/>
		</contour>
		<contour>
			<point x="450" y="291" type="line"/>
			<point x="284" y="291" type="line"/>
			<point x="276" y="255" type="line"/>
			<point x="451" y="255" type="line"/>
			<point x="454" y="287" type="line"/>
		</contour>
		<contour>
			<point x="448" y="496" type="line"/>
			<point x="388" y="496" type="line"/>
			<point x="375" y="468" type="line"/>
			<point x="239" y="242" type="line"/>
			<point x="233" y="242" type="line"/>
			<point x="108" y="469" type="line"/>
			<point x="97" y="496" type="line"/>
			<point x="36" y="496" type="line"/>
			<point x="224" y="147" type="line"/>
			<point x="244" y="147" type="line"/>
		</contour>
		<contour>
			<point x="262" y="210" type="line"/>
			<point x="208" y="210" type="line"/>
			<point x="209" y="145" type="line"/>
			<point x="207" y="0" type="line"/>
			<point x="262" y="0" type="line"/>
			<point x="260" y="145" type="line"/>
		</contour>
	</outline>
</glyph>
<glyph name="section" format="2">
	<advance width="487"/>
	<unicode hex="00A7"/>
	<outline>
		<contour>
			<point x="238" y="389" type="curve"/>
			<point x="207" y="432" type="line"/>
			<point x="124" y="406"/>
			<point x="69" y="339"/>
			<point x="74" y="268" type="curve" smooth="yes"/>
			<point x="83" y="133"/>
			<point x="307" y="116"/>
			<point x="313" y="29" type="curve" smooth="yes"/>
			<point x="316" y="-5"/>
			<point x="286" y="-43"/>
			<point x="231" y="-46" type="curve" smooth="yes"/>
			<point x="189" y="-49"/>
			<point x="144" y="-32"/>
			<point x="104" y="0" type="curve"/>
			<point x="95" y="-7" type="line"/>
			<point x="89" y="-80" type="line"/>
			<point x="130" y="-98"/>
			<point x="184" y="-106"/>
			<point x="226" y="-103" type="curve" smooth="yes"/>
			<point x="325" y="-96"/>
			<point x="390" y="-27"/>
			<point x="385" y="47" type="curve" smooth="yes"/>
			<point x="376" y="178"/>
			<point x="151" y="196"/>
			<point x="145" y="289" type="curve" smooth="yes"/>
			<point x="142" y="325"/>
			<point x="172" y="360"/>
		</contour>
		<contour>
			<point x="259" y="649" type="curve" smooth="yes"/>
			<point x="163" y="643"/>
			<point x="99" y="575"/>
			<point x="104" y="501" type="curve" smooth="yes"/>
			<point x="113" y="370"/>
			<point x="336" y="356"/>
			<point x="343" y="257" type="curve" smooth="yes"/>
			<point x="346" y="224"/>
			<point x="324" y="191"/>
			<point x="249" y="160" type="curve"/>
			<point x="283" y="120" type="line"/>
			<point x="368" y="146"/>
			<point x="419" y="211"/>
			<point x="414" y="279" type="curve" smooth="yes"/>
			<point x="404" y="416"/>
			<point x="181" y="432"/>
			<point x="175" y="518" type="curve" smooth="yes"/>
			<point x="173" y="550"/>
			<point x="201" y="587"/>
			<point x="250" y="590" type="curve" smooth="yes"/>
			<point x="279" y="593"/>
			<point x="315" y="583"/>
			<point x="353" y="559" type="curve"/>
			<point x="365" y="562" type="line"/>
			<point x="371" y="635" type="line"/>
			<point x="333" y="647"/>
			<point x="291" y="651"/>
		</contour>
	</outline>
</glyph>
<glyph name="copyright" format="2">
	<advance width="974"/>
	<unicode hex="00A9"/>
	<outline>
		<contour>
			<point x="487" y="698" type="curve" smooth="yes"/>
			<point x="259" y="698"/>
			<point x="91" y="526"/>
			<point x="91" y="293" type="curve" smooth="yes"/>
			<point x="91" y="60"/>
			<point x="259" y="-112"/>
			<point x="487" y="-112" type="curve" smooth="yes"/>
			<point x="715" y="-112"/>
			<point x="883" y="60"/>
			<point x="883" y="293" type="curve" smooth="yes"/>
			<point x="883" y="526"/>
			<point x="715" y="698"/>
		</contour>
		<contour>
			<point x="511" y="520" type="curve" smooth="yes"/>
			<point x="386" y="520"/>
			<point x="290" y="423"/>
			<point x="290" y="294" type="curve" smooth="yes"/>
			<point x="290" y="166"/>
			<point x="381" y="71"/>
			<point x="505" y="71" type="curve" smooth="yes"/>
			<point x="534" y="71"/>
			<point x="586" y="79"/>
			<point x="614" y="93" type="curve"/>
			<point x="619" y="146" type="line"/>
			<point x="613" y="148" type="line"/>
			<point x="588" y="134"/>
			<point x="536" y="126"/>
			<point x="509" y="126" type="curve" smooth="yes"/>
			<point x="423" y="126"/>
			<point x="362" y="198"/>
			<point x="362" y="299" type="curve" smooth="yes"/>
			<point x="362" y="397"/>
			<point x="423" y="465"/>
			<point x="509" y="465" type="curve" smooth="yes"/>
			<point x="535" y="465"/>
			<point x="585" y="457"/>
			<point x="607" y="443" type="curve"/>
			<point x="612" y="445" type="line"/>
			<point x="624" y="498" type="line"/>
			<point x="596" y="511"/>
			<point x="544" y="520"/>
		</contour>
		<contour>
			<point x="487" y="649" type="curve" smooth="yes"/>
			<point x="685" y="649"/>
			<point x="834" y="497"/>
			<point x="834" y="293" type="curve" smooth="yes"/>
			<point x="834" y="89"/>
			<point x="685" y="-63"/>
			<point x="487" y="-63" type="curve" smooth="yes"/>
			<point x="288" y="-63"/>
			<point x="140" y="89"/>
			<point x="140" y="293" type="curve" smooth="yes"/>
			<point x="140" y="497"/>
			<point x="288" y="649"/>
		</contour>
	</outline>
</glyph>
<glyph name="logicalnot" format="2">
	<advance width="487"/>
	<unicode hex="00AC"/>
	<outline>
		<contour>
			<point x="419" y="354" type="line"/>
			<point x="33" y="354" type="line"/>
			<point x="28" y="301" type="line"/>
			<point x="34" y="295" type="line"/>
			<point x="365" y="295" type="line"/>
			<point x="365" y="121" type="line"/>
			<point x="372" y="115" type="line"/>
			<point x="425" y="119" type="line"/>
			<point x="425" y="347" type="line"/>
		</contour>
	</outline>
</glyph>
<glyph name="uni00AD" format="2">
	<advance width="308"/>
	<unicode hex="00AD"/>
	<outline>
		<contour>
			<point x="272" y="296" type="line"/>
			<point x="30" y="262" type="line"/>
			<point x="30" y="219" type="line"/>
			<point x="36" y="212" type="line"/>
			<point x="279" y="247" type="line"/>
			<point x="279" y="290" type="line"/>
		</contour>
	</outline>
</glyph>
<glyph name="registered" format="2">
	<advance width="487"/>
	<unicode hex="00AE"/>
	<outline>
		<contour>
			<point x="243" y="710" type="curve" smooth="yes"/>
			<point x="119" y="710"/>
			<point x="33" y="625"/>
			<point x="33" y="501" type="curve" smooth="yes"/>
			<point x="33" y="376"/>
			<point x="119" y="290"/>
			<point x="243" y="290" type="curve" smooth="yes"/>
			<point x="368" y="290"/>
			<point x="453" y="376"/>
			<point x="453" y="501" type="curve" smooth="yes"/>
			<point x="453" y="625"/>
			<point x="368" y="710"/>
		</contour>
		<contour>
			<point x="217" y="600" type="line"/>
			<point x="174" y="600" type="line"/>
			<point x="175" y="464" type="line"/>
			<point x="174" y="406" type="line"/>
			<point x="216" y="406" type="line"/>
			<point x="214" y="468" type="line"/>
		</contour>
		<contour>
			<point x="279" y="491" type="curve"/>
			<point x="238" y="491" type="line"/>
			<point x="254" y="463"/>
			<point x="270" y="434"/>
			<point x="290" y="406" type="curve"/>
			<point x="294" y="403" type="line"/>
			<point x="306" y="404"/>
			<point x="325" y="406"/>
			<point x="335" y="410" type="curve"/>
			<point x="336" y="414" type="line"/>
			<point x="315" y="439"/>
			<point x="296" y="465"/>
		</contour>
		<contour>
			<point x="244" y="675" type="curve" smooth="yes"/>
			<point x="347" y="675"/>
			<point x="419" y="604"/>
			<point x="419" y="501" type="curve" smooth="yes"/>
			<point x="419" y="397"/>
			<point x="347" y="325"/>
			<point x="244" y="325" type="curve" smooth="yes"/>
			<point x="141" y="325"/>
			<point x="69" y="397"/>
			<point x="69" y="501" type="curve" smooth="yes"/>
			<point x="69" y="604"/>
			<point x="141" y="675"/>
		</contour>
		<contour>
			<point x="253" y="600" type="curve"/>
			<point x="179" y="600" type="line"/>
			<point x="200" y="565" type="line"/>
			<point x="241" y="567" type="line"/>
			<point x="267" y="566"/>
			<point x="280" y="560"/>
			<point x="280" y="539" type="curve" smooth="yes"/>
			<point x="280" y="520"/>
			<point x="270" y="515"/>
			<point x="250" y="508" type="curve"/>
			<point x="193" y="511" type="line"/>
			<point x="193" y="474" type="line"/>
			<point x="251" y="474" type="line"/>
			<point x="298" y="482"/>
			<point x="323" y="510"/>
			<point x="323" y="542" type="curve" smooth="yes"/>
			<point x="323" y="580"/>
			<point x="300" y="600"/>
		</contour>
	</outline>
</glyph>
<glyph name="degree" format="2">
	<advance width="487"/>
	<unicode hex="00B0"/>
	<outline>
		<contour>
			<point x="244" y="658" type="curve" smooth="yes"/>
			<point x="167" y="658"/>
			<point x="107" y="599"/>
			<point x="107" y="523" type="curve" smooth="yes"/>
			<point x="107" y="447"/>
			<point x="167" y="388"/>
			<point x="244" y="388" type="curve" smooth="yes"/>
			<point x="320" y="388"/>
			<point x="380" y="447"/>
			<point x="380" y="523" type="curve" smooth="yes"/>
			<point x="380" y="599"/>
			<point x="320" y="658"/>
		</contour>
		<contour>
			<point x="243" y="609" type="curve" smooth="yes"/>
			<point x="291" y="609"/>
			<point x="330" y="570"/>
			<point x="330" y="523" type="curve" smooth="yes"/>
			<point x="330" y="476"/>
			<point x="291" y="437"/>
			<point x="243" y="437" type="curve" smooth="yes"/>
			<point x="196" y="437"/>
			<point x="156" y="476"/>
			<point x="156" y="523" type="curve" smooth="yes"/>
			<point x="156" y="570"/>
			<point x="196" y="609"/>
		</contour>
	</outline>
</glyph>
<glyph name="paragraph" format="2">
	<advance width="487"/>
	<unicode hex="00B6"/>
	<outline>
		<contour>
			<point x="456" y="641" type="line"/>
			<point x="257" y="641" type="line" smooth="yes"/>
			<point x="115" y="641"/>
			<point x="36" y="568"/>
			<point x="36" y="442" type="curve" smooth="yes"/>
			<point x="36" y="325"/>
			<point x="106" y="252"/>
			<point x="227" y="228" type="curve"/>
			<point x="255" y="276" type="line"/>
			<point x="171" y="302"/>
			<point x="125" y="359"/>
			<point x="125" y="439" type="curve" smooth="yes"/>
			<point x="125" y="519"/>
			<point x="167" y="568"/>
			<point x="242" y="575" type="curve"/>
			<point x="299" y="575" type="line"/>
			<point x="301" y="171" type="line"/>
			<point x="301" y="125" type="line" smooth="yes"/>
			<point x="301" y="62"/>
			<point x="269" y="16"/>
			<point x="194" y="-29" type="curve"/>
			<point x="194" y="-39" type="line"/>
			<point x="218" y="-78" type="line"/>
			<point x="337" y="-21"/>
			<point x="383" y="41"/>
			<point x="381" y="130" type="curve" smooth="yes"/>
			<point x="380" y="184" type="line"/>
			<point x="383" y="574" type="line"/>
			<point x="456" y="574" type="line"/>
			<point x="463" y="633" type="line"/>
		</contour>
	</outline>
</glyph>
<glyph name="one.sups" format="2">
	<advance width="260"/>
	<unicode hex="00B9"/>
	<outline>
		<contour>
			<point x="162" y="709" type="line"/>
			<point x="14" y="665" type="line"/>
			<point x="14" y="602" type="line"/>
			<point x="20" y="598" type="line"/>
			<point x="98" y="623" type="line"/>
			<point x="98" y="448" type="line"/>
			<point x="96" y="322" type="line"/>
			<point x="172" y="322" type="line"/>
			<point x="170" y="457" type="line"/>
			<point x="172" y="700" type="line"/>
		</contour>
	</outline>
</glyph>
<glyph name="multiply" format="2">
	<advance width="487"/>
	<unicode hex="00D7"/>
	<outline>
		<contour>
			<point x="368" y="431" type="line"/>
			<point x="244" y="307" type="line"/>
			<point x="119" y="431" type="line"/>
			<point x="79" y="397" type="line"/>
			<point x="79" y="387" type="line"/>
			<point x="202" y="265" type="line"/>
			<point x="79" y="141" type="line"/>
			<point x="79" y="133" type="line"/>
			<point x="119" y="98" type="line"/>
			<point x="244" y="222" type="line"/>
			<point x="368" y="98" type="line"/>
			<point x="409" y="133" type="line"/>
			<point x="409" y="142" type="line"/>
			<point x="286" y="265" type="line"/>
			<point x="409" y="387" type="line"/>
			<point x="409" y="397" type="line"/>
		</contour>
	</outline>
</glyph>
<glyph name="Oslash" format="2">
	<advance width="636"/>
	<unicode hex="00D8"/>
	<anchor x="318" y="0" name="bottom"/>
	<anchor x="318" y="321" name="center"/>
	<anchor x="453" y="28" name="ogonek"/>
	<anchor x="317" y="642" name="top"/>
	<anchor x="20" y="641" name="topleft"/>
	<anchor x="616" y="641" name="topright"/>
	<outline>
		<contour>
			<point x="521" y="706" type="line"/>
			<point x="470" y="725" type="line"/>
			<point x="95" y="-77" type="line"/>
			<point x="99" y="-85" type="line"/>
			<point x="151" y="-104" type="line"/>
			<point x="526" y="696" type="line"/>
		</contour>
		<component base="O"/>
	</outline>
</glyph>
<glyph name="germandbls" format="2">
	<advance width="557"/>
	<unicode hex="00DF"/>
	<outline>
		<contour>
			<point x="281" y="704" type="curve" smooth="yes"/>
			<point x="157" y="704"/>
			<point x="78" y="632"/>
			<point x="78" y="503" type="curve"/>
			<point x="81" y="190" type="line"/>
			<point x="75" y="0" type="line"/>
			<point x="160" y="0" type="line"/>
			<point x="154" y="199" type="line"/>
			<point x="158" y="512" type="line"/>
			<point x="159" y="599"/>
			<point x="204" y="642"/>
			<point x="277" y="642" type="curve" smooth="yes"/>
			<point x="335" y="642"/>
			<point x="372" y="615"/>
			<point x="372" y="563" type="curve" smooth="yes"/>
			<point x="372" y="469"/>
			<point x="254" y="464"/>
			<point x="254" y="356" type="curve" smooth="yes"/>
			<point x="254" y="215"/>
			<point x="454" y="209"/>
			<point x="454" y="118" type="curve" smooth="yes"/>
			<point x="454" y="82"/>
			<point x="423" y="52"/>
			<point x="372" y="52" type="curve" smooth="yes"/>
			<point x="333" y="52"/>
			<point x="289" y="70"/>
			<point x="252" y="104" type="curve"/>
			<point x="243" y="98" type="line"/>
			<point x="232" y="24" type="line"/>
			<point x="274" y="3"/>
			<point x="322" y="-8"/>
			<point x="365" y="-8" type="curve" smooth="yes"/>
			<point x="472" y="-8"/>
			<point x="532" y="58"/>
			<point x="532" y="132" type="curve" smooth="yes"/>
			<point x="532" y="268"/>
			<point x="332" y="265"/>
			<point x="332" y="370" type="curve" smooth="yes"/>
			<point x="332" y="448"/>
			<point x="443" y="466"/>
			<point x="443" y="574" type="curve" smooth="yes"/>
			<point x="443" y="651"/>
			<point x="387" y="704"/>
		</contour>
	</outline>
</glyph>
<glyph name="ae" format="2">
	<advance width="696"/>
	<unicode hex="00E6"/>
	<anchor x="347" y="459" name="top"/>
	<outline>
		<contour>
			<point x="322" y="261" type="line"/>
			<point x="322" y="211" type="line"/>
			<point x="644" y="263" type="line"/>
			<point x="653" y="275" type="line"/>
			<point x="630" y="317" type="line"/>
		</contour>
		<contour>
			<point x="166" y="181" type="curve" smooth="yes"/>
			<point x="322" y="211" type="line"/>
			<point x="322" y="261" type="line"/>
			<point x="135" y="231" type="line" smooth="yes"/>
			<point x="73" y="221"/>
			<point x="41" y="180"/>
			<point x="41" y="120" type="curve" smooth="yes"/>
			<point x="41" y="40"/>
			<point x="99" y="-7"/>
			<point x="191" y="-7" type="curve"/>
			<point x="246" y="13"/>
			<point x="290" y="46"/>
			<point x="325" y="89" type="curve"/>
			<point x="357" y="26"/>
			<point x="414" y="-8"/>
			<point x="489" y="-8" type="curve" smooth="yes"/>
			<point x="533" y="-8"/>
			<point x="583" y="6"/>
			<point x="622" y="28" type="curve"/>
			<point x="632" y="97" type="line"/>
			<point x="623" y="102" type="line"/>
			<point x="585" y="73"/>
			<point x="538" y="56"/>
			<point x="495" y="56" type="curve" smooth="yes"/>
			<point x="406" y="56"/>
			<point x="362" y="119"/>
			<point x="362" y="237" type="curve" smooth="yes"/>
			<point x="362" y="273" type="line" smooth="yes"/>
			<point x="362" y="347"/>
			<point x="414" y="408"/>
			<point x="482" y="408" type="curve" smooth="yes"/>
			<point x="537" y="408"/>
			<point x="576" y="370"/>
			<point x="576" y="300" type="curve"/>
			<point x="653" y="275" type="line"/>
			<point x="658" y="403"/>
			<point x="589" y="466"/>
			<point x="494" y="466" type="curve" smooth="yes"/>
			<point x="437" y="466"/>
			<point x="384" y="443"/>
			<point x="349" y="399" type="curve"/>
			<point x="332" y="438"/>
			<point x="293" y="467"/>
			<point x="228" y="467" type="curve" smooth="yes"/>
			<point x="172" y="467"/>
			<point x="114" y="446"/>
			<point x="59" y="406" type="curve"/>
			<point x="71" y="344" type="line"/>
			<point x="79" y="340" type="line"/>
			<point x="133" y="385"/>
			<point x="178" y="406"/>
			<point x="218" y="406" type="curve" smooth="yes"/>
			<point x="267" y="406"/>
			<point x="294" y="379"/>
			<point x="294" y="327" type="curve" smooth="yes"/>
			<point x="294" y="232" type="line" smooth="yes"/>
			<point x="294" y="197"/>
			<point x="296" y="174"/>
			<point x="302" y="136" type="curve"/>
			<point x="250" y="82"/>
			<point x="222" y="64"/>
			<point x="186" y="64" type="curve" smooth="yes"/>
			<point x="147" y="64"/>
			<point x="117" y="85"/>
			<point x="117" y="129" type="curve" smooth="yes"/>
			<point x="117" y="156"/>
			<point x="129" y="174"/>
		</contour>
	</outline>
</glyph>
<glyph name="oslash" format="2">
	<advance width="491"/>
	<unicode hex="00F8"/>
	<anchor x="246" y="0" name="bottom"/>
	<anchor x="246" y="230" name="center"/>
	<anchor x="360" y="32" name="ogonek"/>
	<anchor x="245" y="459" name="top"/>
	<anchor x="471" y="459" name="topright"/>
	<outline>
		<contour>
			<point x="421" y="532" type="line"/>
			<point x="377" y="553" type="line"/>
			<point x="53" y="-87" type="line"/>
			<point x="56" y="-95" type="line"/>
			<point x="103" y="-117" type="line"/>
			<point x="426" y="523" type="line"/>
		</contour>
		<component base="o"/>
	</outline>
</glyph>
<glyph name="thorn" format="2">
	<advance width="514"/>
	<unicode hex="00FE"/>
	<outline>
		<contour>
			<point x="291" y="464" type="curve"/>
			<point x="243" y="449"/>
			<point x="212" y="432"/>
			<point x="167" y="396" type="curve"/>
			<point x="151" y="396" type="line"/>
			<point x="151" y="316" type="line"/>
			<point x="201" y="371"/>
			<point x="241" y="394"/>
			<point x="283" y="394" type="curve" smooth="yes"/>
			<point x="350" y="394"/>
			<point x="387" y="335"/>
			<point x="389" y="234" type="curve" smooth="yes"/>
			<point x="391" y="111"/>
			<point x="337" y="53"/>
			<point x="256" y="53" type="curve" smooth="yes"/>
			<point x="206" y="53"/>
			<point x="154" y="81"/>
			<point x="97" y="141" type="curve"/>
			<point x="93" y="48" type="line"/>
			<point x="141" y="14"/>
			<point x="195" y="-8"/>
			<point x="249" y="-8" type="curve" smooth="yes"/>
			<point x="386" y="-8"/>
			<point x="469" y="82"/>
			<point x="469" y="244" type="curve" smooth="yes"/>
			<point x="469" y="381"/>
			<point x="409" y="464"/>
		</contour>
		<contour>
			<point x="164" y="702" type="line"/>
			<point x="75" y="695" type="line"/>
			<point x="80" y="636" type="line"/>
			<point x="85" y="194" type="line"/>
			<point x="79" y="-195" type="line"/>
			<point x="163" y="-195" type="line"/>
			<point x="158" y="201" type="line"/>
		</contour>
	</outline>
</glyph>
<glyph name="dcroat" format="2">
	<advance width="519"/>
	<unicode hex="0111"/>
	<anchor x="259" y="0" name="bottom"/>
	<anchor x="259" y="230" name="center"/>
	<anchor x="259" y="459" name="top"/>
	<anchor x="497" y="459" name="topright"/>
	<outline>
		<contour>
			<point x="498" y="607" type="line"/>
			<point x="221" y="607" type="line"/>
			<point x="216" y="562" type="line"/>
			<point x="222" y="556" type="line"/>
			<point x="500" y="556" type="line"/>
			<point x="505" y="600" type="line"/>
		</contour>
		<contour>
			<point x="431" y="702" type="line"/>
			<point x="346" y="695" type="line"/>
			<point x="348" y="458" type="line"/>
			<point x="319" y="464"/>
			<point x="290" y="467"/>
			<point x="262" y="467" type="curve" smooth="yes"/>
			<point x="123" y="467"/>
			<point x="39" y="381"/>
			<point x="39" y="229" type="curve" smooth="yes"/>
			<point x="39" y="80"/>
			<point x="111" y="-5"/>
			<point x="247" y="-5" type="curve"/>
			<point x="287" y="13"/>
			<point x="313" y="31"/>
			<point x="352" y="64" type="curve"/>
			<point x="360" y="64" type="line"/>
			<point x="365" y="25"/>
			<point x="389" y="-2"/>
			<point x="431" y="-6" type="curve"/>
			<point x="451" y="-4"/>
			<point x="472" y="4"/>
			<point x="489" y="14" type="curve"/>
			<point x="497" y="62" type="line"/>
			<point x="489" y="69" type="line"/>
			<point x="473" y="65"/>
			<point x="464" y="64"/>
			<point x="455" y="64" type="curve" smooth="yes"/>
			<point x="434" y="64"/>
			<point x="428" y="73"/>
			<point x="427" y="100" type="curve" smooth="yes"/>
			<point x="424" y="202" type="line"/>
		</contour>
		<contour>
			<point x="252" y="407" type="curve" smooth="yes"/>
			<point x="283" y="407"/>
			<point x="314" y="398"/>
			<point x="348" y="382" type="curve"/>
			<point x="351" y="195" type="line"/>
			<point x="349" y="125" type="line"/>
			<point x="309" y="80"/>
			<point x="276" y="67"/>
			<point x="242" y="67" type="curve" smooth="yes"/>
			<point x="167" y="67"/>
			<point x="121" y="127"/>
			<point x="119" y="237" type="curve" smooth="yes"/>
			<point x="117" y="350"/>
			<point x="171" y="407"/>
		</contour>
	</outline>
</glyph>
<glyph name="idotless" format="2">
	<advance width="242"/>
	<unicode hex="0131"/>
	<anchor x="121" y="0" name="bottom"/>
	<anchor x="163" y="0" name="ogonek"/>
	<anchor x="121" y="459" name="top"/>
	<anchor x="234" y="459" name="topright"/>
	<outline>
		<contour>
			<point x="79" y="0" type="line"/>
			<point x="163" y="0" type="line"/>
			<point x="160" y="201" type="line"/>
			<point x="163" y="462" type="line"/>
			<point x="80" y="454" type="line"/>
			<point x="83" y="194" type="line"/>
		</contour>
	</outline>
</glyph>
<glyph name="kgreenlandic" format="2">
	<advance width="461"/>
	<unicode hex="0138"/>
	<anchor x="240" y="0" name="bottom"/>
	<anchor x="240" y="457" name="top"/>
	<outline>
		<contour>
			<point x="264" y="249" type="curve"/>
			<point x="441" y="459" type="line"/>
			<point x="346" y="459" type="line"/>
			<point x="320" y="417" type="line"/>
			<point x="180" y="248" type="line"/>
			<point x="180" y="241" type="line"/>
			<point x="237" y="156"/>
			<point x="300" y="74"/>
			<point x="366" y="-5" type="curve"/>
			<point x="376" y="-9" type="line"/>
			<point x="402" y="-5"/>
			<point x="428" y="-2"/>
			<point x="453" y="5" type="curve"/>
			<point x="453" y="15" type="line"/>
			<point x="389" y="90"/>
			<point x="323" y="169"/>
		</contour>
		<contour>
			<point x="169" y="463" type="line"/>
			<point x="79" y="456" type="line"/>
			<point x="85" y="380" type="line"/>
			<point x="89" y="195" type="line"/>
			<point x="83" y="0" type="line"/>
			<point x="168" y="0" type="line"/>
			<point x="162" y="202" type="line"/>
		</contour>
	</outline>
</glyph>
<glyph name="lslash" format="2">
	<advance width="248"/>
	<unicode hex="0142"/>
	<outline>
		<contour>
			<point x="224" y="464" type="line"/>
			<point x="123" y="411" type="line"/>
			<point x="112" y="408" type="line"/>
			<point x="1" y="350" type="line"/>
			<point x="19" y="295" type="line"/>
			<point x="24" y="292" type="line"/>
			<point x="124" y="344" type="line"/>
			<point x="135" y="347" type="line"/>
			<point x="247" y="407" type="line"/>
			<point x="229" y="462" type="line"/>
		</contour>
		<component base="l"/>
	</outline>
</glyph>
<glyph name="Eng" format="2">
	<advance width="684"/>
	<unicode hex="014A"/>
	<anchor x="340" y="641" name="top"/>
	<outline>
		<contour>
			<point x="510" y="-13" type="line"/>
			<point x="527" y="-76"/>
			<point x="480" y="-123"/>
			<point x="420" y="-123" type="curve" smooth="yes"/>
			<point x="348" y="-123"/>
			<point x="307" y="-57"/>
			<point x="287" y="-29" type="curve"/>
			<point x="276" y="-32" type="line"/>
			<point x="258" y="-112" type="line"/>
			<point x="288" y="-145"/>
			<point x="337" y="-195"/>
			<point x="413" y="-195" type="curve" smooth="yes"/>
			<point x="525" y="-195"/>
			<point x="592" y="-135"/>
			<point x="590" y="20" type="curve" smooth="yes"/>
			<point x="588" y="189" type="line"/>
			<point x="595" y="643" type="line"/>
			<point x="513" y="637" type="line"/>
			<point x="515" y="138" type="line"/>
			<point x="508" y="138" type="line"/>
			<point x="185" y="641" type="line"/>
			<point x="94" y="641" type="line"/>
			<point x="98" y="190" type="line"/>
			<point x="92" y="0" type="line"/>
			<point x="173" y="0" type="line"/>
			<point x="169" y="212" type="line"/>
			<point x="170" y="505" type="line"/>
			<point x="177" y="505" type="line"/>
		</contour>
	</outline>
</glyph>
<glyph name="eng" format="2">
	<advance width="517"/>
	<unicode hex="014B"/>
	<anchor x="270" y="459" name="top"/>
	<outline>
		<contour>
			<point x="286" y="465" type="curve"/>
			<point x="247" y="454"/>
			<point x="203" y="430"/>
			<point x="162" y="395" type="curve"/>
			<point x="146" y="395" type="line"/>
			<point x="146" y="316" type="line"/>
			<point x="192" y="365"/>
			<point x="240" y="394"/>
			<point x="288" y="394" type="curve" smooth="yes"/>
			<point x="339" y="394"/>
			<point x="363" y="361"/>
			<point x="363" y="310" type="curve" smooth="yes"/>
			<point x="364" y="16" type="line" smooth="yes"/>
			<point x="364" y="-77"/>
			<point x="368" y="-129"/>
			<point x="298" y="-129" type="curve" smooth="yes"/>
			<point x="246" y="-129"/>
			<point x="221" y="-104"/>
			<point x="201" y="-86" type="curve"/>
			<point x="190" y="-89" type="line"/>
			<point x="172" y="-157" type="line"/>
			<point x="202" y="-180"/>
			<point x="241" y="-200"/>
			<point x="297" y="-200" type="curve" smooth="yes"/>
			<point x="409" y="-200"/>
			<point x="448" y="-135"/>
			<point x="444" y="20" type="curve" smooth="yes"/>
			<point x="439" y="200" type="line"/>
			<point x="441" y="330" type="line" smooth="yes"/>
			<point x="442" y="416"/>
			<point x="389" y="465"/>
		</contour>
		<contour>
			<point x="156" y="461" type="line"/>
			<point x="75" y="453" type="line"/>
			<point x="79" y="194" type="line"/>
			<point x="74" y="0" type="line"/>
			<point x="159" y="0" type="line"/>
			<point x="154" y="201" type="line"/>
		</contour>
	</outline>
</glyph>
<glyph name="tbar" format="2">
	<advance width="337"/>
	<unicode hex="0167"/>
	<anchor x="212" y="-191" name="bottom"/>
	<outline>
		<component base="t"/>
		<contour>
			<point x="284" y="287" type="line"/>
			<point x="30" y="287" type="line"/>
			<point x="26" y="232" type="line"/>
			<point x="31" y="227" type="line"/>
			<point x="286" y="227" type="line"/>
			<point x="289" y="280" type="line"/>
		</contour>
	</outline>
</glyph>
<glyph name="uni0237" format="2">
	<advance width="242"/>
	<unicode hex="0237"/>
	<anchor x="121" y="-191" name="bottom"/>
	<anchor x="122" y="459" name="top"/>
	<outline>
		<contour>
			<point x="162" y="461" type="line"/>
			<point x="80" y="454" type="line"/>
			<point x="83" y="401" type="line"/>
			<point x="85" y="194" type="line"/>
			<point x="83" y="16" type="line"/>
			<point x="83" y="-64"/>
			<point x="39" y="-111"/>
			<point x="-32" y="-152" type="curve"/>
			<point x="-32" y="-162" type="line"/>
			<point x="15" y="-200" type="line"/>
			<point x="119" y="-157"/>
			<point x="163" y="-85"/>
			<point x="163" y="20" type="curve"/>
			<point x="158" y="201" type="line"/>
			<point x="165" y="459" type="line"/>
		</contour>
	</outline>
</glyph>
<glyph name="alpha-latin" format="2">
	<advance width="509"/>
	<unicode hex="0251"/>
	<anchor x="269" y="0" name="bottom"/>
	<anchor x="479" y="10" name="ogonek"/>
	<anchor x="255" y="459" name="top"/>
	<outline>
		<contour>
			<point x="257" y="406" type="curve" smooth="yes"/>
			<point x="289" y="406"/>
			<point x="319" y="397"/>
			<point x="354" y="378" type="curve"/>
			<point x="357" y="193" type="line"/>
			<point x="356" y="125" type="line"/>
			<point x="312" y="80"/>
			<point x="278" y="67"/>
			<point x="244" y="67" type="curve" smooth="yes"/>
			<point x="171" y="67"/>
			<point x="127" y="128"/>
			<point x="125" y="233" type="curve" smooth="yes"/>
			<point x="123" y="351"/>
			<point x="177" y="406"/>
		</contour>
		<contour>
			<point x="364" y="68" type="line"/>
			<point x="380" y="25"/>
			<point x="387" y="8"/>
			<point x="401" y="-10" type="curve"/>
			<point x="484" y="10" type="line"/>
			<point x="471" y="25"/>
			<point x="460" y="39"/>
			<point x="451" y="55" type="curve" smooth="yes"/>
			<point x="442" y="71"/>
			<point x="437" y="93"/>
			<point x="436" y="121" type="curve" smooth="yes"/>
			<point x="432" y="201" type="line"/>
			<point x="436" y="432" type="line"/>
			<point x="428" y="437" type="line"/>
			<point x="387" y="449" type="line"/>
			<point x="348" y="460"/>
			<point x="307" y="467"/>
			<point x="267" y="467" type="curve" smooth="yes"/>
			<point x="129" y="467"/>
			<point x="45" y="383"/>
			<point x="45" y="226" type="curve" smooth="yes"/>
			<point x="45" y="82"/>
			<point x="115" y="-5"/>
			<point x="248" y="-5" type="curve"/>
			<point x="289" y="12"/>
			<point x="314" y="24"/>
			<point x="347" y="53" type="curve" smooth="yes"/>
		</contour>
	</outline>
</glyph>
<glyph name="uni0251" format="2">
	<advance width="504"/>
	<unicode hex="0251"/>
	<anchor x="257" y="457" name="top"/>
	<outline>
		<contour>
			<point x="257" y="415" type="curve" smooth="yes"/>
			<point x="289" y="415"/>
			<point x="321" y="407"/>
			<point x="357" y="390" type="curve"/>
			<point x="360" y="188" type="line"/>
			<point x="359" y="118" type="line"/>
			<point x="316" y="70"/>
			<point x="278" y="52"/>
			<point x="237" y="52" type="curve" smooth="yes"/>
			<point x="159" y="52"/>
			<point x="110" y="117"/>
			<point x="108" y="229" type="curve" smooth="yes"/>
			<point x="107" y="353"/>
			<point x="166" y="415"/>
		</contour>
		<contour>
			<point x="351" y="58" type="curve" smooth="yes"/>
			<point x="366" y="73" type="line"/>
			<point x="367" y="41"/>
			<point x="374" y="14"/>
			<point x="381" y="-5" type="curve"/>
			<point x="443" y="5" type="line"/>
			<point x="433" y="21"/>
			<point x="419" y="62"/>
			<point x="419" y="93" type="curve"/>
			<point x="417" y="194" type="line"/>
			<point x="422" y="437" type="line"/>
			<point x="381" y="447" type="line"/>
			<point x="344" y="457"/>
			<point x="303" y="464"/>
			<point x="263" y="464" type="curve" smooth="yes"/>
			<point x="128" y="464"/>
			<point x="45" y="379"/>
			<point x="45" y="224" type="curve" smooth="yes"/>
			<point x="45" y="80"/>
			<point x="115" y="-5"/>
			<point x="240" y="-5" type="curve" smooth="yes"/>
			<point x="286" y="7"/>
			<point x="316" y="23"/>
		</contour>
	</outline>
</glyph>
<glyph name="gsingle" format="2">
	<advance width="509"/>
	<unicode hex="0261"/>
	<anchor x="260" y="-191" name="bottom"/>
	<anchor x="254" y="235" name="center"/>
	<anchor x="254" y="459" name="top"/>
	<outline>
		<contour>
			<point x="433" y="20" type="curve" smooth="yes"/>
			<point x="430" y="201" type="line"/>
			<point x="437" y="432" type="line"/>
			<point x="429" y="437" type="line"/>
			<point x="387" y="449" type="line"/>
			<point x="348" y="460"/>
			<point x="307" y="467"/>
			<point x="267" y="467" type="curve" smooth="yes"/>
			<point x="129" y="467"/>
			<point x="45" y="383"/>
			<point x="45" y="226" type="curve" smooth="yes"/>
			<point x="45" y="82"/>
			<point x="115" y="-5"/>
			<point x="248" y="-5" type="curve"/>
			<point x="289" y="12"/>
			<point x="316" y="31"/>
			<point x="350" y="58" type="curve"/>
			<point x="359" y="58" type="line"/>
			<point x="359" y="34" type="line"/>
			<point x="359" y="13" type="line" smooth="yes"/>
			<point x="359" y="-80"/>
			<point x="315" y="-132"/>
			<point x="245" y="-132" type="curve" smooth="yes"/>
			<point x="183" y="-132"/>
			<point x="149" y="-117"/>
			<point x="99" y="-86" type="curve"/>
			<point x="88" y="-89" type="line"/>
			<point x="70" y="-157" type="line"/>
			<point x="130" y="-193"/>
			<point x="172" y="-200"/>
			<point x="238" y="-200" type="curve" smooth="yes"/>
			<point x="350" y="-200"/>
			<point x="436" y="-135"/>
		</contour>
		<contour>
			<point x="257" y="406" type="curve" smooth="yes"/>
			<point x="289" y="406"/>
			<point x="319" y="397"/>
			<point x="354" y="378" type="curve"/>
			<point x="357" y="193" type="line"/>
			<point x="356" y="125" type="line"/>
			<point x="312" y="80"/>
			<point x="278" y="67"/>
			<point x="244" y="67" type="curve" smooth="yes"/>
			<point x="171" y="67"/>
			<point x="127" y="128"/>
			<point x="125" y="233" type="curve" smooth="yes"/>
			<point x="123" y="351"/>
			<point x="177" y="406"/>
		</contour>
	</outline>
</glyph>
<glyph name="uni0261" format="2">
	<advance width="508"/>
	<unicode hex="0261"/>
	<anchor x="254" y="-191" name="bottom"/>
	<anchor x="248" y="235" name="center"/>
	<anchor x="248" y="459" name="top"/>
	<outline>
		<contour>
			<point x="427" y="20" type="curve" smooth="yes"/>
			<point x="424" y="201" type="line"/>
			<point x="431" y="432" type="line"/>
			<point x="423" y="437" type="line"/>
			<point x="381" y="449" type="line"/>
			<point x="342" y="460"/>
			<point x="301" y="467"/>
			<point x="261" y="467" type="curve" smooth="yes"/>
			<point x="123" y="467"/>
			<point x="39" y="383"/>
			<point x="39" y="226" type="curve" smooth="yes"/>
			<point x="39" y="82"/>
			<point x="109" y="-5"/>
			<point x="242" y="-5" type="curve"/>
			<point x="283" y="12"/>
			<point x="310" y="31"/>
			<point x="344" y="58" type="curve"/>
			<point x="353" y="58" type="line"/>
			<point x="353" y="34" type="line"/>
			<point x="353" y="13" type="line" smooth="yes"/>
			<point x="353" y="-80"/>
			<point x="309" y="-132"/>
			<point x="239" y="-132" type="curve" smooth="yes"/>
			<point x="177" y="-132"/>
			<point x="143" y="-117"/>
			<point x="93" y="-86" type="curve"/>
			<point x="82" y="-89" type="line"/>
			<point x="64" y="-157" type="line"/>
			<point x="124" y="-193"/>
			<point x="166" y="-200"/>
			<point x="232" y="-200" type="curve" smooth="yes"/>
			<point x="344" y="-200"/>
			<point x="430" y="-135"/>
		</contour>
		<contour>
			<point x="251" y="406" type="curve" smooth="yes"/>
			<point x="283" y="406"/>
			<point x="313" y="397"/>
			<point x="348" y="378" type="curve"/>
			<point x="351" y="193" type="line"/>
			<point x="350" y="125" type="line"/>
			<point x="306" y="80"/>
			<point x="272" y="67"/>
			<point x="238" y="67" type="curve" smooth="yes"/>
			<point x="165" y="67"/>
			<point x="121" y="128"/>
			<point x="119" y="233" type="curve" smooth="yes"/>
			<point x="117" y="351"/>
			<point x="171" y="406"/>
		</contour>
	</outline>
</glyph>
<glyph name="h.sups" format="2">
	<advance width="341.021"/>
	<unicode hex="02B0"/>
	<outline>
		<contour>
			<point x="209" y="645" type="curve" smooth="yes"/>
			<point x="178" y="645"/>
			<point x="150" y="623"/>
			<point x="125" y="596" type="curve"/>
			<point x="111" y="596" type="line"/>
			<point x="111" y="546" type="line"/>
			<point x="135" y="572"/>
			<point x="160" y="585"/>
			<point x="182" y="585" type="curve" smooth="yes"/>
			<point x="212" y="585"/>
			<point x="231" y="566"/>
			<point x="231" y="528" type="curve" smooth="yes"/>
			<point x="226" y="337" type="line"/>
			<point x="302" y="337" type="line"/>
			<point x="300" y="471" type="line"/>
			<point x="302" y="558" type="line" smooth="yes"/>
			<point x="303" y="616"/>
			<point x="269" y="645"/>
		</contour>
		<contour>
			<point x="124" y="801" type="line"/>
			<point x="48" y="796" type="line"/>
			<point x="51" y="464" type="line"/>
			<point x="47" y="337" type="line"/>
			<point x="124" y="337" type="line"/>
			<point x="121" y="471" type="line"/>
		</contour>
	</outline>
</glyph>
<glyph name="j.sups" format="2">
	<advance width="190"/>
	<unicode hex="02B2"/>
	<outline>
		<contour>
			<point x="99" y="790" type="curve" smooth="yes"/>
			<point x="74" y="790"/>
			<point x="58" y="772"/>
			<point x="58" y="747" type="curve" smooth="yes"/>
			<point x="58" y="721"/>
			<point x="73" y="706"/>
			<point x="97" y="706" type="curve" smooth="yes"/>
			<point x="121" y="706"/>
			<point x="137" y="722"/>
			<point x="137" y="749" type="curve" smooth="yes"/>
			<point x="137" y="774"/>
			<point x="123" y="790"/>
		</contour>
		<contour>
			<point x="135" y="645" type="line"/>
			<point x="62" y="641" type="line"/>
			<point x="64" y="584" type="line"/>
			<point x="65" y="464" type="line"/>
			<point x="65" y="350" type="line"/>
			<point x="65" y="301"/>
			<point x="54" y="274"/>
			<point x="27" y="250" type="curve"/>
			<point x="27" y="243" type="line"/>
			<point x="54" y="208" type="line"/>
			<point x="111" y="243"/>
			<point x="136" y="284"/>
			<point x="136" y="353" type="curve"/>
			<point x="133" y="471" type="line"/>
			<point x="137" y="644" type="line"/>
		</contour>
	</outline>
</glyph>
<glyph name="uni02B2" format="2">
	<advance width="190"/>
	<unicode hex="02B2"/>
	<outline>
		<contour>
			<point x="99" y="790" type="curve" smooth="yes"/>
			<point x="74" y="790"/>
			<point x="58" y="772"/>
			<point x="58" y="747" type="curve" smooth="yes"/>
			<point x="58" y="721"/>
			<point x="73" y="706"/>
			<point x="97" y="706" type="curve" smooth="yes"/>
			<point x="121" y="706"/>
			<point x="137" y="722"/>
			<point x="137" y="749" type="curve" smooth="yes"/>
			<point x="137" y="774"/>
			<point x="123" y="790"/>
		</contour>
		<contour>
			<point x="138" y="645" type="line"/>
			<point x="65" y="641" type="line"/>
			<point x="67" y="584" type="line"/>
			<point x="68" y="464" type="line"/>
			<point x="68" y="350" type="line"/>
			<point x="68" y="301"/>
			<point x="57" y="274"/>
			<point x="30" y="250" type="curve"/>
			<point x="30" y="243" type="line"/>
			<point x="57" y="208" type="line"/>
			<point x="114" y="243"/>
			<point x="139" y="284"/>
			<point x="139" y="353" type="curve"/>
			<point x="136" y="471" type="line"/>
			<point x="140" y="644" type="line"/>
		</contour>
	</outline>
</glyph>
<glyph name="r.sups" format="2">
	<advance width="239"/>
	<unicode hex="02B3"/>
	<outline>
		<contour>
			<point x="120" y="645" type="line"/>
			<point x="48" y="638" type="line"/>
			<point x="51" y="464" type="line"/>
			<point x="47" y="337" type="line"/>
			<point x="124" y="337" type="line"/>
			<point x="120" y="471" type="line"/>
		</contour>
		<contour>
			<point x="199" y="644" type="curve" smooth="yes"/>
			<point x="167" y="644"/>
			<point x="143" y="622"/>
			<point x="124" y="579" type="curve"/>
			<point x="112" y="579" type="line"/>
			<point x="112" y="513" type="line"/>
			<point x="137" y="557"/>
			<point x="158" y="575"/>
			<point x="186" y="575" type="curve" smooth="yes"/>
			<point x="197" y="575"/>
			<point x="206" y="573"/>
			<point x="215" y="569" type="curve"/>
			<point x="224" y="573" type="line"/>
			<point x="224" y="640" type="line"/>
			<point x="216" y="643"/>
			<point x="208" y="644"/>
		</contour>
	</outline>
</glyph>
<glyph name="uni02B8" format="2">
	<advance width="275"/>
	<unicode hex="02B8"/>
	<anchor x="147" y="303" name="top"/>
	<outline>
		<contour>
			<point x="64" y="646" type="line"/>
			<point x="-9" y="641" type="line"/>
			<point x="101" y="337" type="line"/>
			<point x="69" y="290"/>
			<point x="36" y="274"/>
			<point x="14" y="264" type="curve"/>
			<point x="12" y="255" type="line"/>
			<point x="20" y="239"/>
			<point x="31" y="224"/>
			<point x="45" y="210" type="curve"/>
			<point x="51" y="210" type="line"/>
			<point x="108" y="237"/>
			<point x="144" y="267"/>
			<point x="174" y="354" type="curve" smooth="yes"/>
			<point x="274" y="644" type="line"/>
			<point x="208" y="644" type="line"/>
			<point x="197" y="593" type="line"/>
			<point x="138" y="416" type="line"/>
			<point x="133" y="416" type="line"/>
			<point x="74" y="600" type="line"/>
		</contour>
	</outline>
</glyph>
<glyph name="gravecomb" format="2">
	<advance width="0"/>
	<unicode hex="0300"/>
	<anchor x="195" y="457" name="_top"/>
	<anchor x="195" y="691" name="top"/>
	<outline>
		<contour>
			<point x="111" y="711" type="curve"/>
			<point x="104" y="710" type="line"/>
			<point x="75" y="672" type="line"/>
			<point x="77" y="664" type="line"/>
			<point x="133" y="618"/>
			<point x="226" y="537"/>
			<point x="281" y="496" type="curve"/>
			<point x="289" y="497" type="line"/>
			<point x="312" y="528" type="line"/>
			<point x="259" y="572"/>
			<point x="168" y="656"/>
		</contour>
	</outline>
</glyph>
<glyph name="acutecomb" format="2">
	<advance width="0"/>
	<unicode hex="0301"/>
	<anchor x="167" y="457" name="_top"/>
	<anchor x="196" y="691" name="top"/>
	<outline>
		<contour>
			<point x="279" y="711" type="line"/>
			<point x="223" y="656"/>
			<point x="132" y="572"/>
			<point x="79" y="528" type="curve"/>
			<point x="101" y="497" type="line"/>
			<point x="109" y="496" type="line"/>
			<point x="165" y="537"/>
			<point x="257" y="618"/>
			<point x="314" y="664" type="curve"/>
			<point x="315" y="672" type="line"/>
			<point x="287" y="710" type="line"/>
		</contour>
	</outline>
</glyph>
<glyph name="tildecomb" format="2">
	<advance width="0"/>
	<unicode hex="0303"/>
	<anchor x="194" y="459" name="_top"/>
	<anchor x="195" y="691" name="top"/>
	<outline>
		<contour>
			<point x="360" y="685" type="line"/>
			<point x="350" y="685" type="line"/>
			<point x="318" y="652"/>
			<point x="298" y="626"/>
			<point x="279" y="626" type="curve"/>
			<point x="247" y="626"/>
			<point x="138" y="666"/>
			<point x="85" y="672" type="curve"/>
			<point x="74" y="669" type="line"/>
			<point x="-5" y="580" type="line"/>
			<point x="-5" y="570" type="line"/>
			<point x="27" y="536" type="line"/>
			<point x="38" y="536" type="line"/>
			<point x="69" y="567"/>
			<point x="89" y="595"/>
			<point x="109" y="595" type="curve"/>
			<point x="142" y="595"/>
			<point x="249" y="555"/>
			<point x="303" y="549" type="curve"/>
			<point x="314" y="552" type="line"/>
			<point x="393" y="641" type="line"/>
			<point x="393" y="651" type="line"/>
		</contour>
	</outline>
</glyph>
<glyph name="macroncomb" format="2">
	<advance width="389"/>
	<unicode hex="0304"/>
	<anchor x="195" y="459" name="_top"/>
	<anchor x="195" y="644" name="top"/>
	<outline>
		<contour>
			<point x="328" y="644" type="line"/>
			<point x="52" y="644" type="line"/>
			<point x="47" y="583" type="line"/>
			<point x="55" y="574" type="line"/>
			<point x="331" y="574" type="line"/>
			<point x="337" y="637" type="line"/>
		</contour>
	</outline>
</glyph>
<glyph name="uni0304" format="2">
	<advance width="0"/>
	<unicode hex="0304"/>
	<anchor x="195" y="457" name="_top"/>
	<anchor x="195" y="616" name="top"/>
	<outline>
		<contour>
			<point x="336" y="628" type="line"/>
			<point x="52" y="628" type="line"/>
			<point x="48" y="584" type="line"/>
			<point x="53" y="578" type="line"/>
			<point x="338" y="578" type="line"/>
			<point x="342" y="623" type="line"/>
		</contour>
	</outline>
</glyph>
<glyph name="uni0306" format="2">
	<advance width="0"/>
	<unicode hex="0306"/>
	<anchor x="186" y="459" name="_top"/>
	<anchor x="186" y="670" name="top"/>
	<outline>
		<contour>
			<point x="337" y="642" type="curve"/>
			<point x="309" y="680" type="line"/>
			<point x="292" y="680" type="line"/>
			<point x="286" y="623"/>
			<point x="247" y="581"/>
			<point x="186" y="581" type="curve" smooth="yes"/>
			<point x="126" y="581"/>
			<point x="86" y="623"/>
			<point x="80" y="680" type="curve"/>
			<point x="64" y="680" type="line"/>
			<point x="35" y="642" type="line"/>
			<point x="44" y="570"/>
			<point x="92" y="509"/>
			<point x="184" y="509" type="curve" smooth="yes"/>
			<point x="275" y="509"/>
			<point x="326" y="568"/>
		</contour>
	</outline>
</glyph>
<glyph name="uni0308" format="2">
	<advance width="0"/>
	<unicode hex="0308"/>
	<anchor x="194" y="457" name="_top"/>
	<anchor x="195" y="638" name="top"/>
	<outline>
		<contour>
			<point x="119" y="643" type="curve" smooth="yes"/>
			<point x="95" y="643"/>
			<point x="80" y="627"/>
			<point x="80" y="604" type="curve" smooth="yes"/>
			<point x="80" y="580"/>
			<point x="93" y="565"/>
			<point x="117" y="565" type="curve" smooth="yes"/>
			<point x="141" y="565"/>
			<point x="156" y="581"/>
			<point x="156" y="606" type="curve" smooth="yes"/>
			<point x="156" y="629"/>
			<point x="143" y="643"/>
		</contour>
		<contour>
			<point x="273" y="643" type="curve" smooth="yes"/>
			<point x="248" y="643"/>
			<point x="233" y="627"/>
			<point x="233" y="604" type="curve" smooth="yes"/>
			<point x="233" y="580"/>
			<point x="247" y="565"/>
			<point x="271" y="565" type="curve" smooth="yes"/>
			<point x="295" y="565"/>
			<point x="310" y="581"/>
			<point x="310" y="606" type="curve" smooth="yes"/>
			<point x="310" y="629"/>
			<point x="296" y="643"/>
		</contour>
	</outline>
</glyph>
<glyph name="hookabovecomb" format="2">
	<advance width="0"/>
	<unicode hex="0309"/>
	<anchor x="134" y="487" name="_custom1"/>
	<anchor x="131" y="459" name="_top"/>
	<anchor x="132" y="718" name="top"/>
	<outline>
		<contour>
			<point x="89" y="557" type="curve"/>
			<point x="134" y="486" type="line"/>
			<point x="182" y="512" type="line"/>
			<point x="157" y="557" type="line"/>
			<point x="204" y="596"/>
			<point x="223" y="622"/>
			<point x="223" y="653" type="curve" smooth="yes"/>
			<point x="223" y="697"/>
			<point x="187" y="728"/>
			<point x="137" y="728" type="curve" smooth="yes"/>
			<point x="98" y="728"/>
			<point x="57" y="708"/>
			<point x="22" y="673" type="curve"/>
			<point x="43" y="638" type="line"/>
			<point x="68" y="658"/>
			<point x="98" y="668"/>
			<point x="121" y="668" type="curve" smooth="yes"/>
			<point x="141" y="668"/>
			<point x="156" y="660"/>
			<point x="156" y="642" type="curve" smooth="yes"/>
			<point x="156" y="620"/>
			<point x="132" y="587"/>
		</contour>
	</outline>
</glyph>
<glyph name="ringcomb" format="2">
	<advance width="389"/>
	<unicode hex="030A"/>
	<anchor x="194" y="459" name="_top"/>
	<anchor x="195" y="721" name="top"/>
	<outline>
		<contour>
			<point x="195" y="721" type="curve" smooth="yes"/>
			<point x="130" y="721"/>
			<point x="88" y="680"/>
			<point x="88" y="616" type="curve" smooth="yes"/>
			<point x="88" y="551"/>
			<point x="134" y="511"/>
			<point x="192" y="511" type="curve" smooth="yes"/>
			<point x="251" y="511"/>
			<point x="300" y="552"/>
			<point x="300" y="619" type="curve" smooth="yes"/>
			<point x="300" y="675"/>
			<point x="262" y="721"/>
		</contour>
		<contour>
			<point x="193" y="670" type="curve" smooth="yes"/>
			<point x="230" y="670"/>
			<point x="250" y="645"/>
			<point x="250" y="615" type="curve" smooth="yes"/>
			<point x="250" y="581"/>
			<point x="225" y="561"/>
			<point x="194" y="561" type="curve" smooth="yes"/>
			<point x="162" y="561"/>
			<point x="138" y="582"/>
			<point x="138" y="617" type="curve" smooth="yes"/>
			<point x="138" y="650"/>
			<point x="159" y="670"/>
		</contour>
	</outline>
</glyph>
<glyph name="uni030A" format="2">
	<advance width="0"/>
	<unicode hex="030A"/>
	<anchor x="195" y="457" name="_top"/>
	<anchor x="194" y="691" name="top"/>
	<outline>
		<contour>
			<point x="194" y="696" type="curve" smooth="yes"/>
			<point x="141" y="696"/>
			<point x="108" y="662"/>
			<point x="108" y="611" type="curve" smooth="yes"/>
			<point x="108" y="557"/>
			<point x="145" y="526"/>
			<point x="192" y="526" type="curve" smooth="yes"/>
			<point x="240" y="526"/>
			<point x="280" y="557"/>
			<point x="280" y="612" type="curve" smooth="yes"/>
			<point x="280" y="659"/>
			<point x="250" y="696"/>
		</contour>
		<contour>
			<point x="193" y="656" type="curve" smooth="yes"/>
			<point x="225" y="656"/>
			<point x="240" y="636"/>
			<point x="240" y="610" type="curve" smooth="yes"/>
			<point x="240" y="580"/>
			<point x="220" y="565"/>
			<point x="194" y="565" type="curve" smooth="yes"/>
			<point x="167" y="565"/>
			<point x="147" y="581"/>
			<point x="147" y="612" type="curve" smooth="yes"/>
			<point x="147" y="639"/>
			<point x="163" y="656"/>
		</contour>
	</outline>
</glyph>
<glyph name="uni030B" format="2">
	<advance width="0"/>
	<unicode hex="030B"/>
	<anchor x="194" y="459" name="_top"/>
	<anchor x="195" y="691" name="top"/>
	<outline>
		<contour>
			<point x="190" y="528" type="curve"/>
			<point x="225" y="496" type="line"/>
			<point x="237" y="498" type="line"/>
			<point x="298" y="556"/>
			<point x="358" y="615"/>
			<point x="417" y="678" type="curve"/>
			<point x="417" y="688" type="line"/>
			<point x="368" y="724" type="line"/>
			<point x="358" y="723" type="line"/>
			<point x="304" y="656"/>
			<point x="249" y="591"/>
		</contour>
		<contour>
			<point x="12" y="528" type="curve"/>
			<point x="47" y="496" type="line"/>
			<point x="58" y="498" type="line"/>
			<point x="119" y="556"/>
			<point x="179" y="615"/>
			<point x="238" y="678" type="curve"/>
			<point x="238" y="688" type="line"/>
			<point x="189" y="724" type="line"/>
			<point x="179" y="723" type="line"/>
			<point x="125" y="656"/>
			<point x="70" y="591"/>
		</contour>
	</outline>
</glyph>
<glyph name="uni030C" format="2">
	<advance width="0"/>
	<unicode hex="030C"/>
	<anchor x="194" y="459" name="_top"/>
	<anchor x="195" y="691" name="top"/>
	<outline>
		<contour>
			<point x="364" y="670" type="curve"/>
			<point x="335" y="712" type="line"/>
			<point x="323" y="712" type="line"/>
			<point x="275" y="667"/>
			<point x="233" y="626"/>
			<point x="194" y="583" type="curve"/>
			<point x="156" y="626"/>
			<point x="114" y="667"/>
			<point x="65" y="712" type="curve"/>
			<point x="54" y="712" type="line"/>
			<point x="25" y="670" type="line"/>
			<point x="78" y="618"/>
			<point x="129" y="561"/>
			<point x="179" y="501" type="curve"/>
			<point x="209" y="501" type="line"/>
			<point x="264" y="565"/>
			<point x="315" y="621"/>
		</contour>
	</outline>
</glyph>
<glyph name="uni030D" format="2">
	<advance width="0"/>
	<unicode hex="030D"/>
	<anchor x="113" y="459" name="_top"/>
	<anchor x="114" y="691" name="top"/>
	<outline>
		<contour>
			<point x="74" y="480" type="line"/>
			<point x="153" y="480" type="line"/>
			<point x="153" y="697" type="line"/>
			<point x="74" y="697" type="line"/>
		</contour>
	</outline>
</glyph>
<glyph name="verticallineabovecomb" format="2">
	<advance width="227"/>
	<unicode hex="030D"/>
	<anchor x="114" y="459" name="_top"/>
	<anchor x="114" y="719" name="top"/>
	<outline>
		<contour>
			<point x="149" y="731" type="line"/>
			<point x="78" y="731" type="line"/>
			<point x="71" y="722" type="line"/>
			<point x="77" y="681"/>
			<point x="80" y="605"/>
			<point x="84" y="504" type="curve"/>
			<point x="143" y="504" type="line"/>
			<point x="147" y="605"/>
			<point x="150" y="681"/>
			<point x="156" y="722" type="curve"/>
		</contour>
	</outline>
</glyph>
<glyph name="uni030F" format="2">
	<advance width="0"/>
	<unicode hex="030F"/>
	<anchor x="193" y="459" name="_top"/>
	<anchor x="194" y="691" name="top"/>
	<outline>
		<contour>
			<point x="218" y="528" type="curve"/>
			<point x="183" y="496" type="line"/>
			<point x="173" y="498" type="line"/>
			<point x="112" y="556"/>
			<point x="50" y="615"/>
			<point x="-8" y="678" type="curve"/>
			<point x="-7" y="688" type="line"/>
			<point x="42" y="724" type="line"/>
			<point x="52" y="723" type="line"/>
			<point x="105" y="656"/>
			<point x="160" y="591"/>
		</contour>
		<contour>
			<point x="397" y="528" type="curve"/>
			<point x="362" y="496" type="line"/>
			<point x="350" y="498" type="line"/>
			<point x="289" y="556"/>
			<point x="229" y="615"/>
			<point x="170" y="678" type="curve"/>
			<point x="170" y="688" type="line"/>
			<point x="219" y="724" type="line"/>
			<point x="229" y="723" type="line"/>
			<point x="283" y="656"/>
			<point x="338" y="591"/>
		</contour>
	</outline>
</glyph>
<glyph name="horncomb" format="2">
	<advance width="200"/>
	<unicode hex="031B"/>
	<anchor x="70" y="457" name="_topright"/>
	<anchor x="70" y="457" name="topright"/>
	<outline>
		<contour>
			<point x="-16" y="387" type="line"/>
			<point x="28" y="384"/>
			<point x="152" y="406"/>
			<point x="161" y="498" type="curve" smooth="yes"/>
			<point x="167" y="564"/>
			<point x="139" y="607"/>
			<point x="108" y="607" type="curve" smooth="yes"/>
			<point x="90" y="607"/>
			<point x="71" y="597"/>
			<point x="55" y="586" type="curve"/>
			<point x="51" y="576" type="line"/>
			<point x="78" y="551"/>
			<point x="83" y="519"/>
			<point x="73" y="491" type="curve" smooth="yes"/>
			<point x="57" y="445"/>
			<point x="-6" y="449"/>
			<point x="-46" y="445" type="curve"/>
		</contour>
	</outline>
</glyph>
<glyph name="uni031B" format="2">
	<advance width="0"/>
	<unicode hex="031B"/>
	<anchor x="70" y="446" name="_topright"/>
	<anchor x="70" y="446" name="topright"/>
	<outline>
		<contour>
			<point x="-46" y="434" type="curve"/>
			<point x="-16" y="376" type="line"/>
			<point x="28" y="373"/>
			<point x="152" y="395"/>
			<point x="161" y="487" type="curve" smooth="yes"/>
			<point x="167" y="553"/>
			<point x="139" y="596"/>
			<point x="108" y="596" type="curve" smooth="yes"/>
			<point x="90" y="596"/>
			<point x="71" y="586"/>
			<point x="55" y="575" type="curve"/>
			<point x="51" y="565" type="line"/>
			<point x="78" y="540"/>
			<point x="83" y="508"/>
			<point x="73" y="480" type="curve" smooth="yes"/>
			<point x="57" y="434"/>
			<point x="-6" y="438"/>
		</contour>
	</outline>
</glyph>
<glyph name="cedillacomb" format="2">
	<advance width="389"/>
	<unicode hex="0327"/>
	<anchor x="199" y="0" name="_bottom"/>
	<anchor x="195" y="-191" name="bottom"/>
	<outline>
		<contour>
			<point x="229" y="0" type="line"/>
			<point x="224" y="25" type="line"/>
			<point x="177" y="25" type="line"/>
			<point x="167" y="0" type="line"/>
			<point x="147" y="-74" type="line"/>
			<point x="171" y="-74" type="line" smooth="yes"/>
			<point x="226" y="-74"/>
			<point x="265" y="-91"/>
			<point x="265" y="-116" type="curve" smooth="yes"/>
			<point x="265" y="-138"/>
			<point x="247" y="-145"/>
			<point x="195" y="-145" type="curve" smooth="yes"/>
			<point x="155" y="-145"/>
			<point x="115" y="-130"/>
			<point x="84" y="-106" type="curve"/>
			<point x="77" y="-109" type="line"/>
			<point x="67" y="-161" type="line"/>
			<point x="97" y="-181"/>
			<point x="157" y="-200"/>
			<point x="200" y="-200" type="curve" smooth="yes"/>
			<point x="271" y="-200"/>
			<point x="344" y="-187"/>
			<point x="344" y="-117" type="curve" smooth="yes"/>
			<point x="344" y="-79"/>
			<point x="295" y="-38"/>
			<point x="236" y="-33" type="curve" smooth="yes"/>
			<point x="223" y="-32" type="line"/>
		</contour>
	</outline>
</glyph>
<glyph name="uni0327" format="2">
	<advance width="0"/>
	<unicode hex="0327"/>
	<anchor x="190" y="0" name="_bottom"/>
	<anchor x="195" y="-190" name="bottom"/>
	<outline>
		<contour>
			<point x="224" y="17" type="line"/>
			<point x="173" y="17" type="line"/>
			<point x="145" y="-79" type="line"/>
			<point x="171" y="-78" type="line" smooth="yes"/>
			<point x="221" y="-76"/>
			<point x="260" y="-82"/>
			<point x="260" y="-115" type="curve" smooth="yes"/>
			<point x="260" y="-133"/>
			<point x="238" y="-146"/>
			<point x="189" y="-146" type="curve" smooth="yes"/>
			<point x="154" y="-146"/>
			<point x="130" y="-139"/>
			<point x="114" y="-130" type="curve"/>
			<point x="109" y="-131" type="line"/>
			<point x="102" y="-177" type="line"/>
			<point x="116" y="-182"/>
			<point x="155" y="-193"/>
			<point x="192" y="-193" type="curve" smooth="yes"/>
			<point x="256" y="-193"/>
			<point x="313" y="-154"/>
			<point x="313" y="-116" type="curve" smooth="yes"/>
			<point x="313" y="-74"/>
			<point x="283" y="-38"/>
			<point x="213" y="-38" type="curve" smooth="yes"/>
			<point x="206" y="-38" type="line"/>
		</contour>
	</outline>
</glyph>
<glyph name="uni0328" format="2">
	<advance width="0"/>
	<unicode hex="0328"/>
	<anchor x="144" y="0" name="_bottom"/>
	<anchor x="235" y="58" name="_ogonek"/>
	<anchor x="144" y="-191" name="bottom"/>
	<outline>
		<contour>
			<point x="138" y="-225" type="curve" smooth="yes"/>
			<point x="183" y="-225"/>
			<point x="227" y="-203"/>
			<point x="265" y="-165" type="curve"/>
			<point x="247" y="-109" type="line"/>
			<point x="241" y="-108" type="line"/>
			<point x="208" y="-138"/>
			<point x="176" y="-155"/>
			<point x="148" y="-155" type="curve" smooth="yes"/>
			<point x="120" y="-155"/>
			<point x="105" y="-143"/>
			<point x="105" y="-117" type="curve" smooth="yes"/>
			<point x="105" y="-87"/>
			<point x="127" y="-60"/>
			<point x="235" y="58" type="curve"/>
			<point x="167" y="58" type="line"/>
			<point x="52" y="-44"/>
			<point x="30" y="-83"/>
			<point x="30" y="-132" type="curve" smooth="yes"/>
			<point x="30" y="-190"/>
			<point x="73" y="-225"/>
		</contour>
	</outline>
</glyph>
<glyph name="uni0329" format="2">
	<advance width="0"/>
	<unicode hex="0329"/>
	<anchor x="114" y="0" name="_bottom"/>
	<anchor x="114" y="-191" name="bottom"/>
	<outline>
		<contour>
			<point x="74" y="-230" type="line"/>
			<point x="153" y="-230" type="line"/>
			<point x="153" y="-12" type="line"/>
			<point x="74" y="-12" type="line"/>
		</contour>
	</outline>
</glyph>
<glyph name="uni0331" format="2">
	<advance width="0"/>
	<unicode hex="0331"/>
	<anchor x="166" y="0" name="_bottom"/>
	<anchor x="166" y="-191" name="bottom"/>
	<outline>
		<contour>
			<point x="314" y="-98" type="line"/>
			<point x="16" y="-98" type="line"/>
			<point x="11" y="-159" type="line"/>
			<point x="19" y="-168" type="line"/>
			<point x="316" y="-168" type="line"/>
			<point x="321" y="-105" type="line"/>
		</contour>
	</outline>
</glyph>
<glyph name="tildeoverlaycomb" format="2">
	<advance width="389"/>
	<unicode hex="0334"/>
	<anchor x="195" y="260" name="_center"/>
	<outline>
		<contour>
			<point x="305" y="349" type="line"/>
			<point x="295" y="349" type="line"/>
			<point x="288" y="316"/>
			<point x="277" y="263"/>
			<point x="258" y="263" type="curve"/>
			<point x="226" y="263"/>
			<point x="150" y="337"/>
			<point x="107" y="333" type="curve"/>
			<point x="96" y="330" type="line"/>
			<point x="66" y="299"/>
			<point x="49" y="257"/>
			<point x="44" y="218" type="curve"/>
			<point x="44" y="208" type="line"/>
			<point x="82" y="172" type="line"/>
			<point x="93" y="172" type="line"/>
			<point x="99" y="203"/>
			<point x="107" y="255"/>
			<point x="130" y="255" type="curve"/>
			<point x="153" y="255"/>
			<point x="227" y="180"/>
			<point x="281" y="184" type="curve"/>
			<point x="292" y="187" type="line"/>
			<point x="322" y="215"/>
			<point x="339" y="261"/>
			<point x="344" y="301" type="curve"/>
			<point x="344" y="311" type="line"/>
		</contour>
	</outline>
</glyph>
<glyph name="strokeshortcomb" format="2">
	<advance width="491"/>
	<unicode hex="0335"/>
	<anchor x="246" y="256" name="_center"/>
	<outline>
		<contour>
			<point x="372" y="285" type="line"/>
			<point x="118" y="285" type="line"/>
			<point x="114" y="230" type="line"/>
			<point x="119" y="225" type="line"/>
			<point x="374" y="225" type="line"/>
			<point x="377" y="278" type="line"/>
		</contour>
	</outline>
</glyph>
<glyph name="uni0335" format="2">
	<advance width="0"/>
	<unicode hex="0335"/>
	<anchor x="246" y="0" name="_bottom"/>
	<anchor x="246" y="256" name="_center"/>
	<anchor x="246" y="-191" name="bottom"/>
	<outline>
		<contour>
			<point x="372" y="287" type="line"/>
			<point x="118" y="287" type="line"/>
			<point x="114" y="232" type="line"/>
			<point x="119" y="227" type="line"/>
			<point x="374" y="227" type="line"/>
			<point x="377" y="280" type="line"/>
		</contour>
	</outline>
</glyph>
<glyph name="strokelongcomb" format="2">
	<advance width="491"/>
	<unicode hex="0336"/>
	<anchor x="246" y="256" name="_center"/>
	<outline>
		<contour>
			<point x="422" y="285" type="line"/>
			<point x="68" y="285" type="line"/>
			<point x="64" y="230" type="line"/>
			<point x="69" y="225" type="line"/>
			<point x="424" y="225" type="line"/>
			<point x="427" y="278" type="line"/>
		</contour>
	</outline>
</glyph>
<glyph name="lefthalfringabovecomb" format="2">
	<advance width="245"/>
	<unicode hex="0351"/>
	<anchor x="123" y="459" name="_top"/>
	<anchor x="123" y="744" name="top"/>
	<outline>
		<contour>
			<point x="184" y="484" type="curve"/>
			<point x="215" y="527" type="line"/>
			<point x="215" y="537" type="line"/>
			<point x="145" y="537"/>
			<point x="113" y="569"/>
			<point x="113" y="619" type="curve" smooth="yes"/>
			<point x="113" y="669"/>
			<point x="145" y="701"/>
			<point x="215" y="701" type="curve"/>
			<point x="215" y="711" type="line"/>
			<point x="184" y="754" type="line"/>
			<point x="104" y="754"/>
			<point x="30" y="699"/>
			<point x="30" y="619" type="curve" smooth="yes"/>
			<point x="30" y="539"/>
			<point x="104" y="484"/>
		</contour>
	</outline>
</glyph>
<glyph name="doublemacroncomb" format="2">
	<advance width="0"/>
	<unicode hex="035E"/>
	<outline>
		<contour>
			<point x="296" y="644" type="line"/>
			<point x="-300" y="644" type="line"/>
			<point x="-310" y="583" type="line"/>
			<point x="-294" y="574" type="line"/>
			<point x="300" y="574" type="line"/>
			<point x="310" y="637" type="line"/>
		</contour>
	</outline>
</glyph>
<glyph name="uni035F" format="2">
	<advance width="0"/>
	<unicode hex="035F"/>
	<outline>
		<contour>
			<point x="296" y="-98" type="line"/>
			<point x="-300" y="-98" type="line"/>
			<point x="-310" y="-159" type="line"/>
			<point x="-294" y="-168" type="line"/>
			<point x="300" y="-168" type="line"/>
			<point x="310" y="-105" type="line"/>
		</contour>
	</outline>
</glyph>
<glyph name="uni1D04" format="2">
	<advance width="460"/>
	<unicode hex="1D04"/>
	<anchor x="266" y="0" name="bottom"/>
	<anchor x="265" y="499" name="top"/>
	<outline>
		<contour>
			<point x="285" y="504" type="curve" smooth="yes"/>
			<point x="132" y="504"/>
			<point x="44" y="412"/>
			<point x="44" y="246" type="curve" smooth="yes"/>
			<point x="44" y="84"/>
			<point x="127" y="-6"/>
			<point x="274" y="-6" type="curve" smooth="yes"/>
			<point x="328" y="-6"/>
			<point x="372" y="6"/>
			<point x="416" y="29" type="curve"/>
			<point x="423" y="103" type="line"/>
			<point x="414" y="107" type="line"/>
			<point x="376" y="79"/>
			<point x="326" y="61"/>
			<point x="277" y="61" type="curve" smooth="yes"/>
			<point x="181" y="61"/>
			<point x="128" y="128"/>
			<point x="128" y="253" type="curve" smooth="yes"/>
			<point x="128" y="378"/>
			<point x="181" y="438"/>
			<point x="276" y="438" type="curve" smooth="yes"/>
			<point x="327" y="438"/>
			<point x="372" y="421"/>
			<point x="405" y="393" type="curve"/>
			<point x="414" y="396" type="line"/>
			<point x="429" y="470" type="line"/>
			<point x="389" y="492"/>
			<point x="340" y="504"/>
		</contour>
	</outline>
</glyph>
<glyph name="uni1D0A" format="2">
	<advance width="261"/>
	<unicode hex="1D0A"/>
	<outline>
		<contour>
			<point x="169" y="499" type="line"/>
			<point x="88" y="499" type="line"/>
			<point x="92" y="156" type="line"/>
			<point x="92" y="92" type="line" smooth="yes"/>
			<point x="92" y="36"/>
			<point x="67" y="3"/>
			<point x="5" y="-31" type="curve"/>
			<point x="5" y="-39" type="line"/>
			<point x="37" y="-80" type="line"/>
			<point x="133" y="-34"/>
			<point x="166" y="12"/>
			<point x="166" y="93" type="curve" smooth="yes"/>
			<point x="166" y="165" type="line"/>
		</contour>
	</outline>
</glyph>
<glyph name="uni1D0B" format="2">
	<advance width="493"/>
	<unicode hex="1D0B"/>
	<anchor x="239" y="0" name="bottom"/>
	<anchor x="229" y="499" name="top"/>
	<outline>
		<contour>
			<point x="260" y="265" type="curve"/>
			<point x="469" y="500" type="line"/>
			<point x="374" y="499" type="line"/>
			<point x="341" y="454" type="line"/>
			<point x="172" y="266" type="line"/>
			<point x="172" y="260" type="line"/>
			<point x="240" y="169"/>
			<point x="314" y="81"/>
			<point x="390" y="-4" type="curve"/>
			<point x="402" y="-9" type="line"/>
			<point x="428" y="-6"/>
			<point x="455" y="-1"/>
			<point x="480" y="6" type="curve"/>
			<point x="481" y="18" type="line"/>
			<point x="404" y="96"/>
			<point x="327" y="180"/>
		</contour>
		<contour>
			<point x="169" y="499" type="line"/>
			<point x="88" y="499" type="line"/>
			<point x="91" y="150" type="line"/>
			<point x="88" y="0" type="line"/>
			<point x="168" y="0" type="line"/>
			<point x="165" y="157" type="line"/>
		</contour>
	</outline>
</glyph>
<glyph name="lslash.sc" format="2">
	<advance width="378"/>
	<unicode hex="1D0C"/>
	<outline>
		<component base="l.sc"/>
		<contour>
			<point x="238" y="359" type="line"/>
			<point x="137" y="306" type="line"/>
			<point x="126" y="303" type="line"/>
			<point x="15" y="245" type="line"/>
			<point x="33" y="190" type="line"/>
			<point x="38" y="187" type="line"/>
			<point x="138" y="239" type="line"/>
			<point x="149" y="242" type="line"/>
			<point x="261" y="302" type="line"/>
			<point x="243" y="357" type="line"/>
		</contour>
	</outline>
</glyph>
<glyph name="uni1D0C" format="2">
	<advance width="378"/>
	<unicode hex="1D0C"/>
	<outline>
		<component base="uni029F"/>
		<contour>
			<point x="233" y="359" type="line"/>
			<point x="132" y="306" type="line"/>
			<point x="121" y="303" type="line"/>
			<point x="10" y="245" type="line"/>
			<point x="28" y="190" type="line"/>
			<point x="33" y="187" type="line"/>
			<point x="133" y="239" type="line"/>
			<point x="144" y="242" type="line"/>
			<point x="256" y="302" type="line"/>
			<point x="238" y="357" type="line"/>
		</contour>
	</outline>
</glyph>
<glyph name="uni1D0D" format="2">
	<advance width="683"/>
	<unicode hex="1D0D"/>
	<anchor x="342" y="0" name="bottom"/>
	<anchor x="342" y="499" name="top"/>
	<outline>
		<contour>
			<point x="571" y="499" type="line"/>
			<point x="481" y="499" type="line"/>
			<point x="455" y="427" type="line"/>
			<point x="344" y="161" type="line"/>
			<point x="338" y="161" type="line"/>
			<point x="233" y="424" type="line"/>
			<point x="208" y="499" type="line"/>
			<point x="115" y="499" type="line"/>
			<point x="60" y="0" type="line"/>
			<point x="128" y="0" type="line"/>
			<point x="142" y="159" type="line"/>
			<point x="167" y="376" type="line"/>
			<point x="174" y="376" type="line"/>
			<point x="305" y="55" type="line"/>
			<point x="368" y="55" type="line"/>
			<point x="508" y="376" type="line"/>
			<point x="514" y="376" type="line"/>
			<point x="540" y="152" type="line"/>
			<point x="551" y="0" type="line"/>
			<point x="622" y="0" type="line"/>
		</contour>
	</outline>
</glyph>
<glyph name="uni1D20" format="2">
	<advance width="502"/>
	<unicode hex="1D20"/>
	<outline>
		<contour>
			<point x="483" y="499" type="line"/>
			<point x="403" y="499" type="line"/>
			<point x="390" y="438" type="line"/>
			<point x="251" y="78" type="line"/>
			<point x="246" y="78" type="line"/>
			<point x="121" y="442" type="line"/>
			<point x="108" y="499" type="line"/>
			<point x="26" y="499" type="line"/>
			<point x="199" y="0" type="line"/>
			<point x="294" y="0" type="line"/>
		</contour>
	</outline>
</glyph>
<glyph name="uni1D3A" format="2">
	<advance width="453"/>
	<unicode hex="1D3A"/>
	<outline>
		<contour>
			<point x="406" y="783" type="line"/>
			<point x="339" y="779" type="line"/>
			<point x="339" y="449" type="line"/>
			<point x="335" y="449" type="line"/>
			<point x="132" y="782" type="line"/>
			<point x="48" y="782" type="line"/>
			<point x="50" y="458" type="line"/>
			<point x="47" y="337" type="line"/>
			<point x="114" y="337" type="line"/>
			<point x="113" y="472" type="line"/>
			<point x="113" y="670" type="line"/>
			<point x="117" y="670" type="line"/>
			<point x="320" y="337" type="line"/>
			<point x="404" y="337" type="line"/>
			<point x="402" y="458" type="line"/>
		</contour>
	</outline>
</glyph>
<glyph name="a.sups" format="2">
	<advance width="322"/>
	<unicode hex="1D43"/>
	<unicode hex="00AA"/>
	<outline>
		<contour>
			<point x="167" y="649" type="curve" smooth="yes"/>
			<point x="127" y="649"/>
			<point x="84" y="635"/>
			<point x="48" y="611" type="curve"/>
			<point x="57" y="561" type="line"/>
			<point x="63" y="559" type="line"/>
			<point x="99" y="583"/>
			<point x="129" y="595"/>
			<point x="154" y="595" type="curve" smooth="yes"/>
			<point x="185" y="595"/>
			<point x="200" y="580"/>
			<point x="200" y="549" type="curve"/>
			<point x="200" y="515" type="line"/>
			<point x="99" y="496" type="line" smooth="yes"/>
			<point x="55" y="488"/>
			<point x="33" y="463"/>
			<point x="33" y="421" type="curve" smooth="yes"/>
			<point x="33" y="366"/>
			<point x="68" y="333"/>
			<point x="126" y="331" type="curve"/>
			<point x="152" y="337"/>
			<point x="182" y="355"/>
			<point x="204" y="380" type="curve"/>
			<point x="207" y="380" type="line"/>
			<point x="222" y="327" type="line"/>
			<point x="292" y="337" type="line"/>
			<point x="276" y="371"/>
			<point x="271" y="396"/>
			<point x="271" y="414" type="curve" smooth="yes"/>
			<point x="271" y="430"/>
			<point x="270" y="544"/>
			<point x="270" y="563" type="curve" smooth="yes"/>
			<point x="270" y="618"/>
			<point x="233" y="649"/>
		</contour>
		<contour>
			<point x="200" y="478" type="line"/>
			<point x="200" y="419" type="line"/>
			<point x="182" y="397"/>
			<point x="158" y="385"/>
			<point x="141" y="385" type="curve" smooth="yes"/>
			<point x="116" y="385"/>
			<point x="102" y="402"/>
			<point x="102" y="428" type="curve" smooth="yes"/>
			<point x="102" y="447"/>
			<point x="112" y="459"/>
			<point x="131" y="463" type="curve" smooth="yes"/>
		</contour>
	</outline>
</glyph>
<glyph name="d.sups" format="2">
	<advance width="353"/>
	<unicode hex="1D48"/>
	<outline>
		<contour>
			<point x="302" y="801" type="line"/>
			<point x="226" y="796" type="line"/>
			<point x="227" y="642" type="line"/>
			<point x="210" y="646"/>
			<point x="195" y="649"/>
			<point x="182" y="649" type="curve" smooth="yes"/>
			<point x="89" y="649"/>
			<point x="30" y="592"/>
			<point x="30" y="484" type="curve" smooth="yes"/>
			<point x="30" y="390"/>
			<point x="79" y="334"/>
			<point x="155" y="334" type="curve" smooth="yes"/>
			<point x="183" y="334"/>
			<point x="208" y="353"/>
			<point x="229" y="378" type="curve"/>
			<point x="232" y="378" type="line"/>
			<point x="241" y="327" type="line"/>
			<point x="315" y="337" type="line"/>
			<point x="303" y="376"/>
			<point x="299" y="392"/>
			<point x="299" y="414" type="curve" smooth="yes"/>
		</contour>
		<contour>
			<point x="180" y="595" type="curve" smooth="yes"/>
			<point x="196" y="595"/>
			<point x="212" y="592"/>
			<point x="227" y="588" type="curve"/>
			<point x="230" y="424" type="line"/>
			<point x="211" y="402"/>
			<point x="190" y="390"/>
			<point x="168" y="390" type="curve" smooth="yes"/>
			<point x="127" y="390"/>
			<point x="101" y="424"/>
			<point x="101" y="493" type="curve" smooth="yes"/>
			<point x="101" y="564"/>
			<point x="128" y="595"/>
		</contour>
	</outline>
</glyph>
<glyph name="g.sups" format="2">
	<advance width="352"/>
	<unicode hex="1D4D"/>
	<outline>
		<contour>
			<point x="93" y="463" type="line"/>
			<point x="93" y="456" type="line"/>
			<point x="74" y="442"/>
			<point x="58" y="433"/>
			<point x="49" y="414" type="curve"/>
			<point x="48" y="315"/>
			<point x="255" y="368"/>
			<point x="255" y="305" type="curve" smooth="yes"/>
			<point x="255" y="276"/>
			<point x="212" y="252"/>
			<point x="169" y="252" type="curve" smooth="yes"/>
			<point x="126" y="252"/>
			<point x="93" y="271"/>
			<point x="93" y="295" type="curve" smooth="yes"/>
			<point x="93" y="316"/>
			<point x="120" y="336"/>
			<point x="144" y="351" type="curve"/>
			<point x="98" y="363" type="line"/>
			<point x="98" y="354" type="line"/>
			<point x="69" y="338"/>
			<point x="34" y="314"/>
			<point x="31" y="290" type="curve" smooth="yes"/>
			<point x="31" y="244"/>
			<point x="85" y="208"/>
			<point x="163" y="208" type="curve" smooth="yes"/>
			<point x="250" y="208"/>
			<point x="321" y="252"/>
			<point x="321" y="313" type="curve" smooth="yes"/>
			<point x="321" y="423"/>
			<point x="112" y="380"/>
			<point x="112" y="425" type="curve" smooth="yes"/>
			<point x="112" y="433"/>
			<point x="115" y="438"/>
			<point x="131" y="450" type="curve"/>
		</contour>
		<contour>
			<point x="172" y="600" type="curve" smooth="yes"/>
			<point x="209" y="600"/>
			<point x="227" y="580"/>
			<point x="227" y="543" type="curve" smooth="yes"/>
			<point x="227" y="504"/>
			<point x="208" y="488"/>
			<point x="170" y="488" type="curve" smooth="yes"/>
			<point x="133" y="488"/>
			<point x="116" y="504"/>
			<point x="116" y="542" type="curve" smooth="yes"/>
			<point x="116" y="579"/>
			<point x="134" y="600"/>
		</contour>
		<contour>
			<point x="172" y="648" type="curve" smooth="yes"/>
			<point x="93" y="648"/>
			<point x="48" y="608"/>
			<point x="48" y="541" type="curve" smooth="yes"/>
			<point x="48" y="476"/>
			<point x="91" y="442"/>
			<point x="169" y="442" type="curve" smooth="yes"/>
			<point x="248" y="442"/>
			<point x="294" y="478"/>
			<point x="294" y="545" type="curve" smooth="yes"/>
			<point x="294" y="605"/>
			<point x="247" y="648"/>
		</contour>
		<contour>
			<point x="330" y="660" type="line"/>
			<point x="303" y="650"/>
			<point x="267" y="638"/>
			<point x="235" y="633" type="curve"/>
			<point x="274" y="582" type="line"/>
			<point x="281" y="596" type="line"/>
			<point x="299" y="598"/>
			<point x="317" y="602"/>
			<point x="337" y="606" type="curve"/>
			<point x="337" y="656" type="line"/>
		</contour>
	</outline>
</glyph>
<glyph name="uni1D52" format="2">
	<advance width="340"/>
	<unicode hex="1D52"/>
	<unicode hex="00BA"/>
	<outline>
		<contour>
			<point x="174" y="649" type="curve" smooth="yes"/>
			<point x="81" y="649"/>
			<point x="30" y="591"/>
			<point x="30" y="485" type="curve" smooth="yes"/>
			<point x="30" y="385"/>
			<point x="78" y="330"/>
			<point x="166" y="330" type="curve" smooth="yes"/>
			<point x="259" y="330"/>
			<point x="310" y="389"/>
			<point x="310" y="494" type="curve" smooth="yes"/>
			<point x="310" y="594"/>
			<point x="263" y="649"/>
		</contour>
		<contour>
			<point x="171" y="595" type="curve" smooth="yes"/>
			<point x="217" y="595"/>
			<point x="240" y="562"/>
			<point x="240" y="486" type="curve" smooth="yes"/>
			<point x="240" y="414"/>
			<point x="217" y="383"/>
			<point x="171" y="383" type="curve" smooth="yes"/>
			<point x="125" y="383"/>
			<point x="103" y="416"/>
			<point x="103" y="493" type="curve" smooth="yes"/>
			<point x="103" y="564"/>
			<point x="125" y="595"/>
		</contour>
	</outline>
</glyph>
<glyph name="u.sups" format="2">
	<advance width="342"/>
	<unicode hex="1D58"/>
	<outline>
		<contour>
			<point x="292" y="645" type="line"/>
			<point x="220" y="638" type="line"/>
			<point x="220" y="428" type="line"/>
			<point x="199" y="405"/>
			<point x="179" y="395"/>
			<point x="156" y="395" type="curve" smooth="yes"/>
			<point x="128" y="395"/>
			<point x="111" y="412"/>
			<point x="111" y="450" type="curve" smooth="yes"/>
			<point x="111" y="645" type="line"/>
			<point x="39" y="638" type="line"/>
			<point x="41" y="486" type="line"/>
			<point x="40" y="422" type="line" smooth="yes"/>
			<point x="39" y="366"/>
			<point x="72" y="335"/>
			<point x="130" y="335" type="curve" smooth="yes"/>
			<point x="162" y="335"/>
			<point x="192" y="356"/>
			<point x="218" y="386" type="curve"/>
			<point x="222" y="386" type="line"/>
			<point x="229" y="332" type="line"/>
			<point x="301" y="332" type="line"/>
			<point x="292" y="370"/>
			<point x="289" y="387"/>
			<point x="289" y="415" type="curve" smooth="yes"/>
		</contour>
	</outline>
</glyph>
<glyph name="f.sups" format="2">
	<advance width="217"/>
	<unicode hex="1DA0"/>
	<outline>
		<contour>
			<point x="179" y="803" type="curve" smooth="yes"/>
			<point x="101" y="803"/>
			<point x="71" y="761"/>
			<point x="72" y="683" type="curve" smooth="yes"/>
			<point x="75" y="462" type="line"/>
			<point x="71" y="337" type="line"/>
			<point x="147" y="337" type="line"/>
			<point x="144" y="470" type="line"/>
			<point x="145" y="693" type="line" smooth="yes"/>
			<point x="145" y="729"/>
			<point x="145" y="745"/>
			<point x="171" y="745" type="curve" smooth="yes"/>
			<point x="185" y="745"/>
			<point x="193" y="742"/>
			<point x="214" y="733" type="curve"/>
			<point x="220" y="738" type="line"/>
			<point x="224" y="799" type="line"/>
			<point x="206" y="803"/>
			<point x="196" y="803"/>
		</contour>
		<contour>
			<point x="206" y="641" type="line"/>
			<point x="30" y="641" type="line"/>
			<point x="27" y="600" type="line"/>
			<point x="30" y="595" type="line"/>
			<point x="205" y="595" type="line"/>
			<point x="208" y="637" type="line"/>
		</contour>
	</outline>
</glyph>
<glyph name="uni1DBB" format="2">
	<advance width="284"/>
	<unicode hex="1DBB"/>
	<outline>
		<contour>
			<point x="31" y="645" type="line"/>
			<point x="26" y="599" type="line"/>
			<point x="30" y="592" type="line"/>
			<point x="77" y="595" type="line"/>
			<point x="176" y="595" type="line"/>
			<point x="23" y="381" type="line"/>
			<point x="23" y="335" type="line"/>
			<point x="61" y="337" type="line"/>
			<point x="189" y="337" type="line"/>
			<point x="257" y="336" type="line"/>
			<point x="262" y="383" type="line"/>
			<point x="258" y="388" type="line"/>
			<point x="209" y="385" type="line"/>
			<point x="105" y="385" type="line"/>
			<point x="258" y="597" type="line"/>
			<point x="257" y="645" type="line"/>
			<point x="226" y="644" type="line"/>
			<point x="88" y="644" type="line"/>
		</contour>
	</outline>
</glyph>
<glyph name="figuredash" format="2">
	<advance width="475"/>
	<unicode hex="2012"/>
	<outline>
		<contour>
			<point x="485" y="280" type="line"/>
			<point x="-11" y="280" type="line"/>
			<point x="-15" y="237" type="line"/>
			<point x="-10" y="231" type="line"/>
			<point x="487" y="231" type="line"/>
			<point x="491" y="274" type="line"/>
		</contour>
	</outline>
</glyph>
<glyph name="endash" format="2">
	<advance width="479"/>
	<unicode hex="2013"/>
	<outline>
		<contour>
			<point x="490" y="280" type="line"/>
			<point x="-12" y="280" type="line"/>
			<point x="-16" y="237" type="line"/>
			<point x="-11" y="231" type="line"/>
			<point x="492" y="231" type="line"/>
			<point x="496" y="274" type="line"/>
		</contour>
	</outline>
</glyph>
<glyph name="emdash" format="2">
	<advance width="938"/>
	<unicode hex="2014"/>
	<outline>
		<contour>
			<point x="949" y="280" type="line"/>
			<point x="-12" y="280" type="line"/>
			<point x="-16" y="237" type="line"/>
			<point x="-11" y="231" type="line"/>
			<point x="951" y="231" type="line"/>
			<point x="955" y="274" type="line"/>
		</contour>
	</outline>
</glyph>
<glyph name="quoteright" format="2">
	<advance width="171"/>
	<unicode hex="2019"/>
	<outline>
		<contour>
			<point x="85" y="720" type="curve"/>
			<point x="61" y="706"/>
			<point x="39" y="691"/>
			<point x="21" y="675" type="curve"/>
			<point x="21" y="665" type="line"/>
			<point x="56" y="650"/>
			<point x="70" y="626"/>
			<point x="70" y="594" type="curve" smooth="yes"/>
			<point x="70" y="562"/>
			<point x="54" y="527"/>
			<point x="18" y="489" type="curve"/>
			<point x="19" y="480" type="line"/>
			<point x="59" y="452" type="line"/>
			<point x="123" y="515"/>
			<point x="153" y="571"/>
			<point x="153" y="624" type="curve" smooth="yes"/>
			<point x="153" y="670"/>
			<point x="131" y="701"/>
		</contour>
	</outline>
</glyph>
<glyph name="guilsinglright" format="2">
	<advance width="232"/>
	<unicode hex="203A"/>
	<outline>
		<contour>
			<point x="62" y="408" type="line"/>
			<point x="21" y="385" type="line"/>
			<point x="20" y="375" type="line"/>
			<point x="142" y="227" type="line"/>
			<point x="20" y="79" type="line"/>
			<point x="21" y="69" type="line"/>
			<point x="62" y="46" type="line"/>
			<point x="206" y="220" type="line"/>
			<point x="206" y="237" type="line"/>
		</contour>
	</outline>
</glyph>
<glyph name="i.sups" format="2">
	<advance width="167"/>
	<unicode hex="2071"/>
	<outline>
		<contour>
			<point x="124" y="645" type="line"/>
			<point x="48" y="638" type="line"/>
			<point x="51" y="464" type="line"/>
			<point x="47" y="337" type="line"/>
			<point x="124" y="337" type="line"/>
			<point x="120" y="471" type="line"/>
		</contour>
		<contour>
			<point x="91" y="790" type="curve" smooth="yes"/>
			<point x="65" y="790"/>
			<point x="49" y="772"/>
			<point x="49" y="747" type="curve" smooth="yes"/>
			<point x="49" y="721"/>
			<point x="63" y="706"/>
			<point x="87" y="706" type="curve" smooth="yes"/>
			<point x="113" y="706"/>
			<point x="128" y="722"/>
			<point x="128" y="749" type="curve" smooth="yes"/>
			<point x="128" y="774"/>
			<point x="115" y="790"/>
		</contour>
	</outline>
</glyph>
<glyph name="four.sups" format="2">
	<advance width="353"/>
	<unicode hex="2074"/>
	<outline>
		<contour>
			<point x="257" y="560" type="line"/>
			<point x="196" y="560" type="line"/>
			<point x="196" y="461" type="line"/>
			<point x="194" y="323" type="line"/>
			<point x="198" y="319" type="line"/>
			<point x="258" y="322" type="line"/>
			<point x="262" y="328" type="line"/>
			<point x="257" y="449" type="line"/>
		</contour>
		<contour>
			<point x="210" y="673" type="line"/>
			<point x="210" y="680" type="line"/>
			<point x="163" y="712" type="line"/>
			<point x="158" y="712" type="line"/>
			<point x="26" y="462" type="line"/>
			<point x="26" y="415" type="line"/>
			<point x="31" y="408" type="line"/>
			<point x="84" y="411" type="line"/>
			<point x="246" y="411" type="line"/>
			<point x="315" y="408" type="line"/>
			<point x="319" y="460" type="line"/>
			<point x="314" y="467" type="line"/>
			<point x="92" y="467" type="line"/>
		</contour>
	</outline>
</glyph>
<glyph name="plus.sups" format="2">
	<advance width="333"/>
	<unicode hex="207A"/>
	<outline>
		<contour>
			<point x="190" y="649" type="line"/>
			<point x="137" y="644" type="line"/>
			<point x="137" y="538" type="line"/>
			<point x="32" y="538" type="line"/>
			<point x="27" y="485" type="line"/>
			<point x="33" y="479" type="line"/>
			<point x="137" y="479" type="line"/>
			<point x="137" y="375" type="line"/>
			<point x="144" y="369" type="line"/>
			<point x="197" y="373" type="line"/>
			<point x="197" y="479" type="line"/>
			<point x="302" y="479" type="line"/>
			<point x="307" y="532" type="line"/>
			<point x="300" y="538" type="line"/>
			<point x="197" y="538" type="line"/>
			<point x="197" y="642" type="line"/>
		</contour>
	</outline>
</glyph>
<glyph name="minus.sups" format="2">
	<advance width="333"/>
	<unicode hex="207B"/>
	<outline>
		<contour>
			<point x="167" y="479" type="line"/>
			<point x="302" y="479" type="line"/>
			<point x="307" y="532" type="line"/>
			<point x="300" y="538" type="line"/>
			<point x="167" y="538" type="line"/>
			<point x="32" y="538" type="line"/>
			<point x="27" y="485" type="line"/>
			<point x="33" y="479" type="line"/>
		</contour>
	</outline>
</glyph>
<glyph name="uni2081" format="2">
	<advance width="333"/>
	<unicode hex="2081"/>
	<outline>
		<contour>
			<point x="204" y="267" type="line"/>
			<point x="79" y="167" type="line"/>
			<point x="79" y="112" type="line"/>
			<point x="84" y="109" type="line"/>
			<point x="158" y="164" type="line"/>
			<point x="158" y="6" type="line"/>
			<point x="155" y="-120" type="line"/>
			<point x="213" y="-120" type="line"/>
			<point x="211" y="14" type="line"/>
			<point x="212" y="259" type="line"/>
		</contour>
	</outline>
</glyph>
<glyph name="uni2082" format="2">
	<advance width="333"/>
	<unicode hex="2082"/>
	<outline>
		<contour>
			<point x="161" y="260" type="curve" smooth="yes"/>
			<point x="113" y="260"/>
			<point x="68" y="238"/>
			<point x="31" y="204" type="curve"/>
			<point x="41" y="159" type="line"/>
			<point x="48" y="159" type="line"/>
			<point x="76" y="191"/>
			<point x="113" y="211"/>
			<point x="148" y="211" type="curve" smooth="yes"/>
			<point x="184" y="211"/>
			<point x="204" y="189"/>
			<point x="204" y="164" type="curve" smooth="yes"/>
			<point x="204" y="131"/>
			<point x="174" y="94"/>
			<point x="126" y="36" type="curve" smooth="yes"/>
			<point x="26" y="-82" type="line"/>
			<point x="26" y="-118" type="line"/>
			<point x="30" y="-121" type="line"/>
			<point x="57" y="-120" type="line"/>
			<point x="224" y="-120" type="line"/>
			<point x="301" y="-122" type="line"/>
			<point x="307" y="-75" type="line"/>
			<point x="305" y="-70" type="line"/>
			<point x="241" y="-72" type="line"/>
			<point x="107" y="-72" type="line"/>
			<point x="105" y="-70" type="line"/>
			<point x="178" y="21" type="line" smooth="yes"/>
			<point x="235" y="92"/>
			<point x="264" y="135"/>
			<point x="264" y="176" type="curve" smooth="yes"/>
			<point x="264" y="228"/>
			<point x="220" y="260"/>
		</contour>
	</outline>
</glyph>
<glyph name="uni2083" format="2">
	<advance width="333"/>
	<unicode hex="2083"/>
	<outline>
		<contour>
			<point x="160" y="261" type="curve" smooth="yes"/>
			<point x="123" y="261"/>
			<point x="86" y="248"/>
			<point x="52" y="221" type="curve"/>
			<point x="61" y="180" type="line"/>
			<point x="68" y="180" type="line"/>
			<point x="97" y="202"/>
			<point x="122" y="213"/>
			<point x="148" y="213" type="curve" smooth="yes"/>
			<point x="182" y="213"/>
			<point x="204" y="195"/>
			<point x="204" y="166" type="curve" smooth="yes"/>
			<point x="204" y="127"/>
			<point x="163" y="98"/>
			<point x="129" y="97" type="curve" smooth="yes"/>
			<point x="99" y="97" type="line"/>
			<point x="98" y="57" type="line"/>
			<point x="102" y="53" type="line"/>
			<point x="142" y="53" type="line"/>
			<point x="194" y="52"/>
			<point x="221" y="29"/>
			<point x="221" y="-9" type="curve" smooth="yes"/>
			<point x="221" y="-52"/>
			<point x="185" y="-78"/>
			<point x="126" y="-78" type="curve" smooth="yes"/>
			<point x="107" y="-78"/>
			<point x="83" y="-75"/>
			<point x="60" y="-70" type="curve"/>
			<point x="55" y="-74" type="line"/>
			<point x="59" y="-117" type="line"/>
			<point x="80" y="-121"/>
			<point x="106" y="-123"/>
			<point x="126" y="-123" type="curve" smooth="yes"/>
			<point x="217" y="-123"/>
			<point x="279" y="-78"/>
			<point x="279" y="-10" type="curve" smooth="yes"/>
			<point x="279" y="36"/>
			<point x="252" y="69"/>
			<point x="201" y="81" type="curve"/>
			<point x="201" y="85" type="line"/>
			<point x="244" y="105"/>
			<point x="265" y="143"/>
			<point x="265" y="177" type="curve" smooth="yes"/>
			<point x="265" y="228"/>
			<point x="223" y="261"/>
		</contour>
	</outline>
</glyph>
<glyph name="uni2084" format="2">
	<advance width="333"/>
	<unicode hex="2084"/>
	<outline>
		<contour>
			<point x="239" y="257" type="line"/>
			<point x="184" y="257" type="line"/>
			<point x="18" y="26" type="line"/>
			<point x="18" y="-12" type="line"/>
			<point x="23" y="-18" type="line"/>
			<point x="69" y="-15" type="line"/>
			<point x="236" y="-15" type="line"/>
			<point x="299" y="-18" type="line"/>
			<point x="303" y="24" type="line"/>
			<point x="299" y="30" type="line"/>
			<point x="72" y="30" type="line"/>
			<point x="185" y="188" type="line"/>
			<point x="189" y="188" type="line"/>
			<point x="189" y="16" type="line"/>
			<point x="188" y="-119" type="line"/>
			<point x="191" y="-123" type="line"/>
			<point x="239" y="-120" type="line"/>
			<point x="242" y="-115" type="line"/>
			<point x="238" y="8" type="line"/>
		</contour>
	</outline>
</glyph>
<glyph name="uni2085" format="2">
	<advance width="333"/>
	<unicode hex="2085"/>
	<outline>
		<contour>
			<point x="274" y="259" type="line"/>
			<point x="217" y="257" type="line"/>
			<point x="120" y="257" type="line"/>
			<point x="85" y="258" type="line"/>
			<point x="77" y="249" type="line"/>
			<point x="74" y="71" type="line"/>
			<point x="78" y="65" type="line"/>
			<point x="137" y="67" type="line" smooth="yes"/>
			<point x="204" y="69"/>
			<point x="218" y="42"/>
			<point x="218" y="-2" type="curve" smooth="yes"/>
			<point x="218" y="-49"/>
			<point x="178" y="-79"/>
			<point x="116" y="-79" type="curve" smooth="yes"/>
			<point x="96" y="-79"/>
			<point x="74" y="-77"/>
			<point x="52" y="-71" type="curve"/>
			<point x="47" y="-76" type="line"/>
			<point x="51" y="-118" type="line"/>
			<point x="72" y="-122"/>
			<point x="97" y="-124"/>
			<point x="115" y="-124" type="curve" smooth="yes"/>
			<point x="211" y="-124"/>
			<point x="275" y="-74"/>
			<point x="275" y="3" type="curve" smooth="yes"/>
			<point x="275" y="68"/>
			<point x="252" y="117"/>
			<point x="163" y="117" type="curve" smooth="yes"/>
			<point x="121" y="117" type="line"/>
			<point x="124" y="210" type="line"/>
			<point x="222" y="210" type="line"/>
			<point x="267" y="206" type="line"/>
			<point x="272" y="210" type="line"/>
			<point x="277" y="255" type="line"/>
		</contour>
	</outline>
</glyph>
<glyph name="uni2086" format="2">
	<advance width="333"/>
	<unicode hex="2086"/>
	<outline>
		<contour>
			<point x="236" y="262" type="line"/>
			<point x="232" y="262" type="line"/>
			<point x="109" y="213"/>
			<point x="38" y="125"/>
			<point x="38" y="16" type="curve"/>
			<point x="38" y="-73"/>
			<point x="84" y="-125"/>
			<point x="164" y="-125" type="curve"/>
			<point x="252" y="-125"/>
			<point x="295" y="-73"/>
			<point x="295" y="-2" type="curve"/>
			<point x="295" y="61"/>
			<point x="257" y="106"/>
			<point x="187" y="106" type="curve" smooth="yes"/>
			<point x="158" y="106"/>
			<point x="130" y="95"/>
			<point x="106" y="79" type="curve"/>
			<point x="95" y="92" type="line"/>
			<point x="87" y="32" type="line"/>
			<point x="113" y="52"/>
			<point x="141" y="64"/>
			<point x="171" y="64" type="curve" smooth="yes"/>
			<point x="216" y="64"/>
			<point x="241" y="39"/>
			<point x="241" y="-7" type="curve"/>
			<point x="241" y="-58"/>
			<point x="214" y="-86"/>
			<point x="166" y="-86" type="curve"/>
			<point x="115" y="-86"/>
			<point x="93" y="-49"/>
			<point x="93" y="17" type="curve"/>
			<point x="93" y="121"/>
			<point x="146" y="183"/>
			<point x="273" y="230" type="curve"/>
			<point x="273" y="236" type="line"/>
		</contour>
	</outline>
</glyph>
<glyph name="uni2087" format="2">
	<advance width="333"/>
	<unicode hex="2087"/>
	<outline>
		<contour>
			<point x="50" y="258" type="line"/>
			<point x="45" y="211" type="line"/>
			<point x="49" y="204" type="line"/>
			<point x="101" y="208" type="line"/>
			<point x="230" y="208" type="line"/>
			<point x="84" y="-104" type="line"/>
			<point x="87" y="-114" type="line"/>
			<point x="136" y="-127" type="line"/>
			<point x="169" y="-47" type="line"/>
			<point x="290" y="214" type="line"/>
			<point x="289" y="258" type="line"/>
			<point x="261" y="257" type="line"/>
			<point x="112" y="257" type="line"/>
		</contour>
	</outline>
</glyph>
<glyph name="uni2088" format="2">
	<advance width="333"/>
	<unicode hex="2088"/>
	<outline>
		<contour>
			<point x="175" y="260" type="curve" smooth="yes"/>
			<point x="104" y="260"/>
			<point x="55" y="223"/>
			<point x="55" y="160" type="curve" smooth="yes"/>
			<point x="55" y="112"/>
			<point x="86" y="88"/>
			<point x="123" y="70" type="curve"/>
			<point x="123" y="67" type="line"/>
			<point x="79" y="51"/>
			<point x="41" y="23"/>
			<point x="41" y="-28" type="curve" smooth="yes"/>
			<point x="41" y="-85"/>
			<point x="84" y="-124"/>
			<point x="160" y="-124" type="curve" smooth="yes"/>
			<point x="239" y="-124"/>
			<point x="291" y="-83"/>
			<point x="291" y="-17" type="curve" smooth="yes"/>
			<point x="291" y="37"/>
			<point x="252" y="58"/>
			<point x="211" y="76" type="curve"/>
			<point x="211" y="80" type="line"/>
			<point x="250" y="99"/>
			<point x="279" y="124"/>
			<point x="279" y="171" type="curve" smooth="yes"/>
			<point x="279" y="226"/>
			<point x="240" y="260"/>
		</contour>
		<contour>
			<point x="161" y="52" type="curve"/>
			<point x="202" y="35"/>
			<point x="242" y="21"/>
			<point x="242" y="-22" type="curve" smooth="yes"/>
			<point x="242" y="-57"/>
			<point x="214" y="-84"/>
			<point x="165" y="-84" type="curve" smooth="yes"/>
			<point x="118" y="-84"/>
			<point x="91" y="-59"/>
			<point x="91" y="-22" type="curve" smooth="yes"/>
			<point x="91" y="21"/>
			<point x="126" y="39"/>
		</contour>
		<contour>
			<point x="171" y="220" type="curve" smooth="yes"/>
			<point x="208" y="220"/>
			<point x="231" y="199"/>
			<point x="231" y="165" type="curve" smooth="yes"/>
			<point x="231" y="126"/>
			<point x="203" y="108"/>
			<point x="172" y="94" type="curve"/>
			<point x="137" y="108"/>
			<point x="106" y="124"/>
			<point x="106" y="162" type="curve" smooth="yes"/>
			<point x="106" y="197"/>
			<point x="131" y="220"/>
		</contour>
	</outline>
</glyph>
<glyph name="uni2089" format="2">
	<advance width="333"/>
	<unicode hex="2089"/>
	<outline>
		<contour>
			<point x="168" y="263" type="curve"/>
			<point x="82" y="263"/>
			<point x="38" y="211"/>
			<point x="38" y="140" type="curve"/>
			<point x="38" y="76"/>
			<point x="78" y="31"/>
			<point x="145" y="31" type="curve" smooth="yes"/>
			<point x="175" y="31"/>
			<point x="203" y="42"/>
			<point x="226" y="57" type="curve"/>
			<point x="238" y="46" type="line"/>
			<point x="246" y="106" type="line"/>
			<point x="220" y="86"/>
			<point x="192" y="74"/>
			<point x="161" y="74" type="curve" smooth="yes"/>
			<point x="117" y="74"/>
			<point x="92" y="99"/>
			<point x="92" y="145" type="curve"/>
			<point x="92" y="196"/>
			<point x="119" y="223"/>
			<point x="168" y="223" type="curve"/>
			<point x="219" y="223"/>
			<point x="241" y="186"/>
			<point x="241" y="121" type="curve"/>
			<point x="241" y="17"/>
			<point x="188" y="-46"/>
			<point x="61" y="-92" type="curve"/>
			<point x="61" y="-99" type="line"/>
			<point x="96" y="-124" type="line"/>
			<point x="100" y="-124" type="line"/>
			<point x="225" y="-75"/>
			<point x="295" y="12"/>
			<point x="295" y="121" type="curve"/>
			<point x="295" y="210"/>
			<point x="248" y="263"/>
		</contour>
	</outline>
</glyph>
<glyph name="trademark" format="2">
	<advance width="487"/>
	<unicode hex="2122"/>
	<outline>
		<contour>
			<point x="459" y="640" type="line"/>
			<point x="406" y="640" type="line"/>
			<point x="394" y="605" type="line"/>
			<point x="346" y="491" type="line"/>
			<point x="343" y="491" type="line"/>
			<point x="299" y="605" type="line"/>
			<point x="288" y="640" type="line"/>
			<point x="233" y="640" type="line"/>
			<point x="207" y="405" type="line"/>
			<point x="247" y="405" type="line"/>
			<point x="253" y="481" type="line"/>
			<point x="264" y="570" type="line"/>
			<point x="267" y="570" type="line"/>
			<point x="324" y="430" type="line"/>
			<point x="361" y="430" type="line"/>
			<point x="422" y="570" type="line"/>
			<point x="426" y="570" type="line"/>
			<point x="436" y="476" type="line"/>
			<point x="441" y="405" type="line"/>
			<point x="482" y="405" type="line"/>
		</contour>
		<contour>
			<point x="121" y="634" type="line"/>
			<point x="76" y="634" type="line"/>
			<point x="77" y="475" type="line"/>
			<point x="75" y="405" type="line"/>
			<point x="121" y="405" type="line"/>
			<point x="119" y="479" type="line"/>
		</contour>
		<contour>
			<point x="187" y="640" type="line"/>
			<point x="8" y="640" type="line"/>
			<point x="5" y="606" type="line"/>
			<point x="8" y="602" type="line"/>
			<point x="56" y="604" type="line"/>
			<point x="141" y="604" type="line"/>
			<point x="187" y="602" type="line"/>
			<point x="190" y="636" type="line"/>
		</contour>
	</outline>
</glyph>
<glyph name="minus" format="2">
	<advance width="480"/>
	<unicode hex="2212"/>
	<outline>
		<contour>
			<point x="442" y="290" type="line"/>
			<point x="37" y="290" type="line"/>
			<point x="33" y="247" type="line"/>
			<point x="38" y="242" type="line"/>
			<point x="443" y="242" type="line"/>
			<point x="447" y="285" type="line"/>
		</contour>
	</outline>
</glyph>
<glyph name="infinity" format="2">
	<advance width="487"/>
	<unicode hex="221E"/>
	<outline>
		<contour>
			<point x="355" y="404" type="curve" smooth="yes"/>
			<point x="293" y="404"/>
			<point x="260" y="358"/>
			<point x="241" y="320" type="curve"/>
			<point x="215" y="366"/>
			<point x="188" y="404"/>
			<point x="132" y="404" type="curve" smooth="yes"/>
			<point x="62" y="404"/>
			<point x="20" y="347"/>
			<point x="20" y="265" type="curve" smooth="yes"/>
			<point x="20" y="186"/>
			<point x="61" y="125"/>
			<point x="133" y="125" type="curve" smooth="yes"/>
			<point x="191" y="125"/>
			<point x="221" y="163"/>
			<point x="247" y="214" type="curve"/>
			<point x="276" y="161"/>
			<point x="304" y="125"/>
			<point x="358" y="125" type="curve" smooth="yes"/>
			<point x="424" y="125"/>
			<point x="467" y="179"/>
			<point x="467" y="262" type="curve" smooth="yes"/>
			<point x="467" y="340"/>
			<point x="429" y="404"/>
		</contour>
		<contour>
			<point x="137" y="349" type="curve" smooth="yes"/>
			<point x="181" y="349"/>
			<point x="198" y="314"/>
			<point x="218" y="272" type="curve"/>
			<point x="197" y="225"/>
			<point x="179" y="182"/>
			<point x="133" y="182" type="curve" smooth="yes"/>
			<point x="94" y="182"/>
			<point x="70" y="219"/>
			<point x="70" y="266" type="curve" smooth="yes"/>
			<point x="70" y="312"/>
			<point x="93" y="349"/>
		</contour>
		<contour>
			<point x="354" y="347" type="curve" smooth="yes"/>
			<point x="397" y="347"/>
			<point x="417" y="307"/>
			<point x="417" y="262" type="curve" smooth="yes"/>
			<point x="417" y="214"/>
			<point x="394" y="179"/>
			<point x="355" y="179" type="curve" smooth="yes"/>
			<point x="311" y="179"/>
			<point x="291" y="215"/>
			<point x="269" y="259" type="curve"/>
			<point x="287" y="302"/>
			<point x="306" y="347"/>
		</contour>
	</outline>
</glyph>
<glyph name="notequal" format="2">
	<advance width="487"/>
	<unicode hex="2260"/>
	<outline>
		<contour>
			<point x="319" y="520" type="line"/>
			<point x="265" y="520" type="line"/>
			<point x="144" y="9" type="line"/>
			<point x="149" y="2" type="line"/>
			<point x="204" y="2" type="line"/>
			<point x="325" y="513" type="line"/>
		</contour>
		<contour>
			<point x="447" y="378" type="line"/>
			<point x="39" y="378" type="line"/>
			<point x="34" y="325" type="line"/>
			<point x="40" y="319" type="line"/>
			<point x="449" y="319" type="line"/>
			<point x="454" y="372" type="line"/>
		</contour>
		<contour>
			<point x="447" y="209" type="line"/>
			<point x="39" y="209" type="line"/>
			<point x="34" y="156" type="line"/>
			<point x="40" y="150" type="line"/>
			<point x="449" y="150" type="line"/>
			<point x="454" y="203" type="line"/>
		</contour>
	</outline>
</glyph>
<glyph name="blackSquare" format="2">
	<advance width="487"/>
	<unicode hex="25A0"/>
	<unicode hex="25AA"/>
	<outline>
		<contour>
			<point x="95" y="81" type="line"/>
			<point x="391" y="81" type="line"/>
			<point x="391" y="377" type="line"/>
			<point x="95" y="377" type="line"/>
		</contour>
	</outline>
</glyph>
<glyph name="whiteSquare" format="2">
	<advance width="487"/>
	<unicode hex="25A1"/>
	<unicode hex="25AB"/>
	<outline>
		<contour>
			<point x="150" y="136" type="line"/>
			<point x="150" y="322" type="line"/>
			<point x="336" y="322" type="line"/>
			<point x="336" y="136" type="line"/>
		</contour>
		<contour>
			<point x="95" y="81" type="line"/>
			<point x="391" y="81" type="line"/>
			<point x="391" y="377" type="line"/>
			<point x="95" y="377" type="line"/>
		</contour>
	</outline>
</glyph>
<glyph name="blackDiamond" format="2">
	<advance width="487"/>
	<unicode hex="25C6"/>
	<unicode hex="2B25"/>
	<unicode hex="2B29"/>
	<outline>
		<contour>
			<point x="243" y="20" type="line"/>
			<point x="452" y="229" type="line"/>
			<point x="243" y="438" type="line"/>
			<point x="34" y="229" type="line"/>
		</contour>
	</outline>
</glyph>
<glyph name="whiteDiamond" format="2">
	<advance width="487"/>
	<unicode hex="25C7"/>
	<unicode hex="2B26"/>
	<outline>
		<contour>
			<point x="243" y="98" type="line"/>
			<point x="112" y="229" type="line"/>
			<point x="243" y="360" type="line"/>
			<point x="374" y="229" type="line"/>
		</contour>
		<contour>
			<point x="243" y="20" type="line"/>
			<point x="452" y="229" type="line"/>
			<point x="243" y="438" type="line"/>
			<point x="34" y="229" type="line"/>
		</contour>
	</outline>
</glyph>
